*
*
G04 PADS VX.1.2 Build Number: 698008 generated Gerber (RS-274-X) file*
G04 PC Version=2.1*
*
%IN "PCB - P18-001 Socket Sh"*%
*
%MOIN*%
*
%FSLAX35Y35*%
*
*
*
*
G04 PC Standard Apertures*
*
*
G04 Thermal Relief Aperture macro.*
%AMTER*
1,1,$1,0,0*
1,0,$1-$2,0,0*
21,0,$3,$4,0,0,45*
21,0,$3,$4,0,0,135*
%
*
*
G04 Annular Aperture macro.*
%AMANN*
1,1,$1,0,0*
1,0,$2,0,0*
%
*
*
G04 Odd Aperture macro.*
%AMODD*
1,1,$1,0,0*
1,0,$1-0.005,0,0*
%
*
*
G04 PC Custom Aperture Macros*
*
*
*
*
*
*
G04 PC Aperture Table*
*
%ADD010C,0.001*%
%ADD046C,0.006*%
%ADD048C,0.01*%
%ADD049C,0.008*%
%ADD056C,0.004*%
%ADD057C,0.00787*%
%ADD059C,0.00984*%
%ADD060C,0.005*%
%ADD131C,0.00787*%
%ADD132C,0.01969*%
%ADD134C,0.00945*%
%ADD135C,0.00118*%
%ADD136C,0.01181*%
%ADD137C,0.00394*%
%ADD138C,0.003*%
*
*
*
*
G04 PC Circuitry*
G04 Layer Name PCB - P18-001 Socket Sh - circuitry*
%LPD*%
*
*
G04 PC Custom Flashes*
G04 Layer Name PCB - P18-001 Socket Sh - flashes*
%LPD*%
*
*
G04 PC Circuitry*
G04 Layer Name PCB - P18-001 Socket Sh - circuitry*
%LPD*%
*
G54D10*
G01X1222654Y995711D02*
X1235252D01*
Y985869*
X1222654*
Y995711*
X1221433Y985377D02*
G75*
G03X1221433I-945J0D01*
G01X1221153Y997090D02*
X1236853D01*
Y984490*
X1221153*
Y997090*
X1103700Y1037100D02*
X1103703D01*
X1345900D02*
X1345903D01*
X1096700Y1012500D02*
X1096703D01*
X1045500Y1012700D02*
X1045503D01*
X1045600Y914900D02*
X1045603D01*
X1045600Y1012800D02*
X1045603D01*
X1103700Y880000D02*
X1103703D01*
X1103600Y1037300D02*
X1103603D01*
G54D46*
X1302940Y883031D02*
X1222710D01*
Y892717*
X1302940*
Y883031*
X1346000Y880000D02*
X1109780D01*
Y1037480*
X1346000*
Y880000*
X1192860Y883047D02*
X1152800D01*
Y892733*
X1192860*
Y883047*
X1344228Y894567D02*
G03X1344228I-12795J0D01*
G01Y1022913D02*
G03X1344228I-12795J0D01*
G01X1137305Y894750D02*
G03X1137305I-12795J0D01*
G01X1137142Y1022913D02*
G03X1137142I-12795J0D01*
G01X1274650Y1024764D02*
X1174570D01*
Y1034449*
X1274650*
Y1024764*
X1309890Y883820D02*
X1305895Y887815D01*
X1309920Y891840*
Y883840*
G54D48*
X1088850Y991990D02*
X1047000D01*
Y1005160*
X1088850*
Y991990*
Y907090D02*
X1047000D01*
Y920260*
X1088850*
Y907090*
X1346000Y1037500D02*
X1103500D01*
Y998000*
X1096500*
Y1013000*
X1045500*
Y900000*
X1096500*
Y926000*
X1103500*
Y880000*
X1346000*
Y1037500*
X1103700Y1081700D02*
X1207255D01*
X1103700D02*
X1113700Y1084200D01*
Y1079200*
X1103700Y1081700*
X1345900D02*
X1242345D01*
X1345900D02*
X1335900Y1079200D01*
Y1084200*
X1345900Y1081700*
X1103700Y1042100D02*
Y1086700D01*
X1345900Y1042100D02*
Y1086700D01*
X1212982Y1083575D02*
X1212755Y1084200D01*
X1212073Y1084513*
X1212073D02*
X1211618D01*
X1211618D02*
X1210936Y1084200D01*
X1210482Y1083263*
X1210482D02*
X1210255Y1081700D01*
Y1080138*
X1210255D02*
X1210482Y1078888D01*
X1210482D02*
X1210936Y1078263D01*
X1210936D02*
X1211618Y1077950D01*
X1211845*
X1212527Y1078263*
X1212527D02*
X1212982Y1078888D01*
X1212982D02*
X1213209Y1079825D01*
Y1080138*
X1213209D02*
X1212982Y1081075D01*
X1212527Y1081700*
X1211845Y1082013*
X1211845D02*
X1211618D01*
X1211618D02*
X1210936Y1081700D01*
X1210482Y1081075*
X1210255Y1080138*
X1215255Y1083263D02*
X1215709Y1083575D01*
X1216391Y1084513*
X1216391D02*
Y1077950D01*
X1218664Y1078575D02*
X1218436Y1078263D01*
X1218436D02*
X1218664Y1077950D01*
X1218891Y1078263*
X1218891D02*
X1218664Y1078575D01*
X1223891Y1084513D02*
X1221618D01*
X1221618D02*
X1221391Y1081700D01*
X1221618Y1082013*
X1221618D02*
X1222300Y1082325D01*
X1222982*
X1223664Y1082013*
X1223664D02*
X1224118Y1081388D01*
X1224118D02*
X1224345Y1080450D01*
X1224118Y1079825*
X1223891Y1078888*
X1223891D02*
X1223436Y1078263D01*
X1223436D02*
X1222755Y1077950D01*
X1222073*
X1221391Y1078263*
X1221391D02*
X1221164Y1078575D01*
X1220936Y1079200*
X1226391Y1082325D02*
Y1077950D01*
Y1081075D02*
X1227073Y1082013D01*
X1227073D02*
X1227527Y1082325D01*
X1228209*
X1228664Y1082013*
X1228664D02*
X1228891Y1081075D01*
Y1077950*
Y1081075D02*
X1229573Y1082013D01*
X1229573D02*
X1230027Y1082325D01*
X1230709*
X1231164Y1082013*
X1231164D02*
X1231391Y1081075D01*
Y1077950*
X1233436Y1082325D02*
Y1077950D01*
Y1081075D02*
X1234118Y1082013D01*
X1234118D02*
X1234573Y1082325D01*
X1235255*
X1235709Y1082013*
X1235709D02*
X1235936Y1081075D01*
Y1077950*
Y1081075D02*
X1236618Y1082013D01*
X1236618D02*
X1237073Y1082325D01*
X1237755*
X1238209Y1082013*
X1238209D02*
X1238436Y1081075D01*
Y1077950*
X1096700Y1095300D02*
X1111700D01*
X1096700D02*
X1106700Y1097800D01*
Y1092800*
X1096700Y1095300*
X1045500D02*
X1030500D01*
X1045500D02*
X1035500Y1092800D01*
Y1097800*
X1045500Y1095300*
X1096700Y1017500D02*
Y1100300D01*
X1045500Y1017700D02*
Y1100300D01*
X998409Y1096863D02*
X998864Y1097175D01*
X999545Y1098113*
X999545D02*
Y1091550D01*
X1002045Y1098113D02*
X1004545D01*
X1004545D02*
X1003182Y1095613D01*
X1003182D02*
X1003864D01*
X1003864D02*
X1004318Y1095300D01*
X1004545Y1094988*
X1004545D02*
X1004773Y1094050D01*
Y1093425*
X1004545Y1092488*
X1004545D02*
X1004091Y1091863D01*
X1004091D02*
X1003409Y1091550D01*
X1002727*
X1002045Y1091863*
X1002045D02*
X1001818Y1092175D01*
X1001591Y1092800*
X1007045Y1092175D02*
X1006818Y1091863D01*
X1006818D02*
X1007045Y1091550D01*
X1007273Y1091863*
X1007273D02*
X1007045Y1092175D01*
X1010682Y1098113D02*
X1010000Y1097800D01*
X1009545Y1096863*
X1009545D02*
X1009318Y1095300D01*
Y1094363*
X1009318D02*
X1009545Y1092800D01*
X1010000Y1091863*
X1010000D02*
X1010682Y1091550D01*
X1011136*
X1011818Y1091863*
X1011818D02*
X1012273Y1092800D01*
X1012500Y1094363*
X1012500D02*
Y1095300D01*
X1012273Y1096863*
X1012273D02*
X1011818Y1097800D01*
X1011136Y1098113*
X1011136D02*
X1010682D01*
X1014545Y1095925D02*
Y1091550D01*
Y1094675D02*
X1015227Y1095613D01*
X1015227D02*
X1015682Y1095925D01*
X1016364*
X1016818Y1095613*
X1016818D02*
X1017045Y1094675D01*
Y1091550*
Y1094675D02*
X1017727Y1095613D01*
X1017727D02*
X1018182Y1095925D01*
X1018864*
X1019318Y1095613*
X1019318D02*
X1019545Y1094675D01*
Y1091550*
X1021591Y1095925D02*
Y1091550D01*
Y1094675D02*
X1022273Y1095613D01*
X1022273D02*
X1022727Y1095925D01*
X1023409*
X1023864Y1095613*
X1023864D02*
X1024091Y1094675D01*
Y1091550*
Y1094675D02*
X1024773Y1095613D01*
X1024773D02*
X1025227Y1095925D01*
X1025909*
X1026364Y1095613*
X1026364D02*
X1026591Y1094675D01*
Y1091550*
X1012600Y914900D02*
Y957100D01*
Y914900D02*
X1010100Y924900D01*
X1015100*
X1012600Y914900*
Y1012800D02*
Y970600D01*
Y1012800D02*
X1015100Y1002800D01*
X1010100*
X1012600Y1012800*
X1040600Y914900D02*
X1007600D01*
X1040600Y1012800D02*
X1007600D01*
X997259Y965100D02*
Y965413D01*
X997259D02*
X997486Y966038D01*
X997486D02*
X997714Y966350D01*
X998168Y966663*
X998168D02*
X999077D01*
X999077D02*
X999532Y966350D01*
X999759Y966038*
X999759D02*
X999986Y965413D01*
X999986D02*
Y964788D01*
X999986D02*
X999759Y964163D01*
X999759D02*
X999305Y963225D01*
X997032Y960100*
X1000214*
X1004532Y966663D02*
X1002259Y962288D01*
X1002259D02*
X1005668D01*
X1004532Y966663D02*
Y960100D01*
X1007941Y960725D02*
X1007714Y960413D01*
X1007714D02*
X1007941Y960100D01*
X1008168Y960413*
X1008168D02*
X1007941Y960725D01*
X1013168Y964475D02*
X1012941Y963538D01*
X1012941D02*
X1012486Y962913D01*
X1012486D02*
X1011805Y962600D01*
X1011577*
X1010895Y962913*
X1010895D02*
X1010441Y963538D01*
X1010441D02*
X1010214Y964475D01*
Y964788*
X1010214D02*
X1010441Y965725D01*
X1010895Y966350*
X1011577Y966663*
X1011577D02*
X1011805D01*
X1011805D02*
X1012486Y966350D01*
X1012941Y965725*
X1013168Y964475*
Y962913*
X1013168D02*
X1012941Y961350D01*
X1012486Y960413*
X1012486D02*
X1011805Y960100D01*
X1011350*
X1010668Y960413*
X1010668D02*
X1010441Y961038D01*
X1015214Y964475D02*
Y960100D01*
Y963225D02*
X1015895Y964163D01*
X1015895D02*
X1016350Y964475D01*
X1017032*
X1017486Y964163*
X1017486D02*
X1017714Y963225D01*
Y960100*
Y963225D02*
X1018395Y964163D01*
X1018395D02*
X1018850Y964475D01*
X1019532*
X1019986Y964163*
X1019986D02*
X1020214Y963225D01*
Y960100*
X1022259Y964475D02*
Y960100D01*
Y963225D02*
X1022941Y964163D01*
X1022941D02*
X1023395Y964475D01*
X1024077*
X1024532Y964163*
X1024532D02*
X1024759Y963225D01*
Y960100*
Y963225D02*
X1025441Y964163D01*
X1025441D02*
X1025895Y964475D01*
X1026577*
X1027032Y964163*
X1027032D02*
X1027259Y963225D01*
Y960100*
X973000Y880000D02*
Y951900D01*
Y880000D02*
X970500Y890000D01*
X975500*
X973000Y880000*
Y1037300D02*
Y965400D01*
Y1037300D02*
X975500Y1027300D01*
X970500*
X973000Y1037300*
X1098700Y880000D02*
X968000D01*
X1098600Y1037300D02*
X968000D01*
X959591Y961463D02*
X957318Y957088D01*
X957318D02*
X960727D01*
X959591Y961463D02*
Y954900D01*
X964136Y961463D02*
X963455Y961150D01*
X963000Y960213*
X963000D02*
X962773Y958650D01*
Y957713*
X962773D02*
X963000Y956150D01*
X963455Y955213*
X963455D02*
X964136Y954900D01*
X964591*
X965273Y955213*
X965273D02*
X965727Y956150D01*
X965955Y957713*
X965955D02*
Y958650D01*
X965727Y960213*
X965727D02*
X965273Y961150D01*
X964591Y961463*
X964591D02*
X964136D01*
X968227Y955525D02*
X968000Y955213D01*
X968000D02*
X968227Y954900D01*
X968455Y955213*
X968455D02*
X968227Y955525D01*
X971864Y961463D02*
X971182Y961150D01*
X970727Y960213*
X970727D02*
X970500Y958650D01*
Y957713*
X970500D02*
X970727Y956150D01*
X971182Y955213*
X971182D02*
X971864Y954900D01*
X972318*
X973000Y955213*
X973000D02*
X973455Y956150D01*
X973682Y957713*
X973682D02*
Y958650D01*
X973455Y960213*
X973455D02*
X973000Y961150D01*
X972318Y961463*
X972318D02*
X971864D01*
X975727Y959275D02*
Y954900D01*
Y958025D02*
X976409Y958963D01*
X976409D02*
X976864Y959275D01*
X977545*
X978000Y958963*
X978000D02*
X978227Y958025D01*
Y954900*
Y958025D02*
X978909Y958963D01*
X978909D02*
X979364Y959275D01*
X980045*
X980500Y958963*
X980500D02*
X980727Y958025D01*
Y954900*
X982773Y959275D02*
Y954900D01*
Y958025D02*
X983455Y958963D01*
X983455D02*
X983909Y959275D01*
X984591*
X985045Y958963*
X985045D02*
X985273Y958025D01*
Y954900*
Y958025D02*
X985955Y958963D01*
X985955D02*
X986409Y959275D01*
X987091*
X987545Y958963*
X987545D02*
X987773Y958025D01*
Y954900*
G54D49*
X1111000Y938500D02*
Y908500D01*
X1135000*
Y938500*
X1111000*
X1217600Y918700D02*
X1244100D01*
Y901300*
X1217600*
Y918700*
G54D56*
X1222654Y990495D02*
Y991085D01*
X1235252Y990495D02*
Y991085D01*
X1230036Y985869D02*
X1227870D01*
X1230036Y995711D02*
X1227870D01*
G54D57*
X1244604Y972315D02*
Y956567D01*
X1228856*
Y972315*
X1244604*
X1236730Y966410D02*
Y964441D01*
X1238698*
X1234761D02*
X1236730D01*
Y962473*
X1110762Y967576D02*
Y991198D01*
X1130447*
Y967576*
X1110762*
X1118636Y979387D02*
X1120605D01*
Y981356*
Y977419D02*
Y979387D01*
X1122573*
G54D59*
X1244210Y971922D02*
Y970347D01*
X1242635Y971922*
X1244210*
X1243422Y974677D02*
G03X1243422I-393J0D01*
G54D60*
G01X1121814Y930536D02*
X1119058D01*
Y936835*
X1121814*
Y930536*
X1139312Y936552D02*
G03X1136556I-1378J-1378D01*
G01Y930647*
G03X1139312I1378J1590*
G01Y936552*
X1140162Y1034909D02*
X1170870D01*
Y1014437*
X1140162*
Y1034909*
X1127664Y917574D02*
G03X1124908I-1378J-1378D01*
G01Y911668*
G03X1127664I1378J1591*
G01Y917574*
X1111775Y936783D02*
X1114531D01*
Y930483*
X1111775*
Y936783*
X1135592Y978749D02*
X1138348D01*
Y972450*
X1135592*
Y978749*
X1133618Y1002667D02*
G03X1130862I-1378J-1378D01*
G01Y996762*
G03X1133618I1378J1590*
G01Y1002667*
X1125294Y1006741D02*
X1129625D01*
Y995323*
X1125294*
Y1006741*
X1123926Y1002582D02*
G03X1121170I-1378J-1378D01*
G01Y996676*
G03X1123926I1378J1591*
G01Y1002582*
X1119823Y1005928D02*
G03X1115493I-2165J-2033D01*
G01Y996086*
G03X1119823I2165J1916*
G01Y1005928*
X1216524Y957057D02*
Y959813D01*
X1222823*
Y957057*
X1216524*
X1216700Y963670D02*
G03Y960915I1378J-1378D01*
G01X1222605*
G03Y963670I-1591J1377*
G01X1216700*
X1288824Y1005120D02*
Y1007876D01*
X1295123*
Y1005120*
X1288824*
X1134378Y972450D02*
X1131622D01*
Y978750*
X1134378*
Y972450*
X1254250Y944151D02*
G03Y946907I-1378J1378D01*
G01X1248345*
G03Y944151I1590J-1378*
G01X1254250*
X1254144Y972854D02*
G03Y975610I-1378J1378D01*
G01X1248238*
G03Y972854I1591J-1378*
G01X1254144*
X1263016Y975467D02*
Y972711D01*
X1256716*
Y975467*
X1263016*
X1266886Y966409D02*
G03Y963653I1378J-1378D01*
G01X1272791*
G03Y966409I-1591J1378*
G01X1266886*
X1215330Y925095D02*
Y940402D01*
X1223660*
Y925095*
X1215330*
X1222553Y921388D02*
G03Y924144I-1378J1378D01*
G01X1216648*
G03Y921388I1590J-1378*
G01X1222553*
X1222753Y941373D02*
G03Y944129I-1378J1378D01*
G01X1216847*
G03Y941373I1591J-1378*
G01X1222753*
X1137545Y1002677D02*
G03X1134789I-1378J-1378D01*
G01Y996772*
G03X1137545I1378J1591*
G01Y1002677*
X1142791Y995747D02*
X1143018Y995904D01*
X1143018D02*
X1143359Y996372D01*
Y993091*
X1147810Y1001752D02*
X1147967Y1001525D01*
X1147967D02*
X1148435Y1001184D01*
X1145154*
X1148435Y999479D02*
X1148279Y999820D01*
X1147810Y1000047*
X1147029Y1000161*
X1146560*
X1145779Y1000047*
X1145310Y999820*
X1145154Y999479*
Y999252*
X1145310Y998911*
X1145779Y998684*
X1146560Y998570*
X1147029*
X1147810Y998684*
X1148279Y998911*
X1148435Y999252*
Y999479*
Y996866D02*
X1148279Y997207D01*
X1147810Y997434*
X1147029Y997547*
X1146560*
X1145779Y997434*
X1145310Y997207*
X1145154Y996866*
Y996638*
X1145310Y996297*
X1145779Y996070*
X1146560Y995957*
X1147029*
X1147810Y996070*
X1148279Y996297*
X1148435Y996638*
Y996866*
X1201978Y998980D02*
X1198697Y1000116D01*
X1201978Y1000571D02*
Y998980D01*
X1201510Y996594D02*
X1201822Y996707D01*
X1201978Y997048*
Y997276*
X1201822Y997616*
X1201353Y997844*
X1200572Y997957*
X1199791*
X1199166Y997844*
X1198853Y997616*
X1198697Y997276*
Y997162*
X1198853Y996821*
X1199166Y996594*
X1199635Y996480*
X1199635D02*
X1199791D01*
X1200260Y996594*
X1200260D02*
X1200572Y996821D01*
X1200728Y997162*
Y997276*
X1200572Y997616*
X1200260Y997844*
X1200260D02*
X1199791Y997957D01*
X1204586Y992565D02*
X1205722Y995846D01*
X1206177Y992565D02*
X1204586D01*
X1202086D02*
X1203222D01*
X1203336Y993971*
X1203222Y993815*
X1202882Y993658*
X1202882D02*
X1202541D01*
X1202541D02*
X1202200Y993815D01*
X1201972Y994127*
X1201859Y994596*
X1201972Y994908*
X1201972D02*
X1202086Y995377D01*
X1202313Y995690*
X1202654Y995846*
X1202995*
X1203336Y995690*
X1203450Y995533*
X1203450D02*
X1203563Y995221D01*
X1204700Y939416D02*
X1205836D01*
X1205950Y940822*
X1205836Y940666*
X1205495Y940509*
X1205495D02*
X1205154D01*
X1205154D02*
X1204813Y940666D01*
X1204586Y940978*
X1204472Y941447*
X1204586Y941759*
X1204586D02*
X1204700Y942228D01*
X1204927Y942541*
X1205268Y942697*
X1205609*
X1205950Y942541*
X1206063Y942384*
X1206063D02*
X1206177Y942072D01*
X1203450Y940041D02*
X1203222Y939884D01*
X1203222D02*
X1202882Y939416D01*
Y942697*
X1198959Y935906D02*
Y934770D01*
X1200365Y934656*
X1200209Y934770*
X1200052Y935111*
X1200052D02*
Y935452D01*
X1200052D02*
X1200209Y935793D01*
X1200521Y936020*
X1200990Y936134*
X1201302Y936020*
X1201302D02*
X1201771Y935906D01*
X1202084Y935679*
X1202240Y935338*
Y934997*
X1202084Y934656*
X1201927Y934543*
X1201927D02*
X1201615Y934429D01*
X1198959Y937838D02*
X1199115Y937497D01*
X1199584Y937270*
X1200365Y937156*
X1200834*
X1201615Y937270*
X1202084Y937497*
X1202240Y937838*
Y938065*
X1202084Y938406*
X1201615Y938634*
X1200834Y938747*
X1200365*
X1199584Y938634*
X1199115Y938406*
X1198959Y938065*
Y937838*
X1145803Y934543D02*
X1145647D01*
X1145334Y934656*
X1145178Y934770*
X1145022Y934997*
Y935452*
X1145178Y935679*
X1145334Y935793*
X1145647Y935906*
X1145959*
X1146272Y935793*
X1146740Y935565*
X1146740D02*
X1148303Y934429D01*
Y936020*
X1145490Y938406D02*
X1145178Y938293D01*
X1145022Y937952*
Y937724*
X1145178Y937384*
X1145647Y937156*
X1146428Y937043*
X1147209*
X1147834Y937156*
X1148147Y937384*
X1148303Y937724*
Y937838*
X1148147Y938179*
X1147834Y938406*
X1147365Y938520*
X1147365D02*
X1147209D01*
X1146740Y938406*
X1146740D02*
X1146428Y938179D01*
X1146272Y937838*
Y937724*
X1146428Y937384*
X1146740Y937156*
X1146740D02*
X1147209Y937043D01*
X1140149Y941654D02*
Y941810D01*
X1140262Y942123*
X1140376Y942279*
X1140603Y942435*
X1141058*
X1141285Y942279*
X1141399Y942123*
X1141512Y941810*
Y941498*
X1141399Y941185*
X1141171Y940717*
X1141171D02*
X1140035Y939154D01*
X1141626*
X1144126Y942435D02*
X1142990D01*
X1142876Y941029*
X1142990Y941185*
X1143330Y941342*
X1143330D02*
X1143671D01*
X1143671D02*
X1144012Y941185D01*
X1144240Y940873*
X1144353Y940404*
X1144240Y940092*
X1144240D02*
X1144126Y939623D01*
X1143899Y939310*
X1143558Y939154*
X1143217*
X1142876Y939310*
X1142762Y939467*
X1142762D02*
X1142649Y939779D01*
X1203620Y999752D02*
G03X1206376I1378J1378D01*
G01Y1005657*
G03X1203620I-1378J-1591*
G01Y999752*
X1207509Y999732D02*
G03X1210265I1378J1378D01*
G01Y1005638*
G03X1207509I-1378J-1591*
G01Y999732*
X1300155Y931019D02*
G03Y933775I-1378J1378D01*
G01X1294249*
G03Y931019I1591J-1378*
G01X1300155*
X1294211Y937727D02*
G03Y934971I1378J-1378D01*
G01X1300117*
G03Y937727I-1591J1378*
G01X1294211*
X1288723Y1017921D02*
X1298065D01*
Y1013393*
X1288723*
Y1017921*
X1294401Y1014093D02*
X1292798Y1015696D01*
X1294410Y1017307*
Y1014093*
X1294401*
X1292419Y1014024D02*
Y1017318D01*
X1292916Y1015704D02*
X1291805D01*
X1294311Y1015713D02*
X1294922D01*
X1295183Y1011759D02*
Y1009003D01*
X1288884*
Y1011759*
X1295183*
X1256513Y927851D02*
Y932182D01*
X1267930*
Y927851*
X1256513*
X1256979Y936674D02*
G03Y933918I1378J-1378D01*
G01X1262885*
G03Y936674I-1591J1378*
G01X1256979*
Y941014D02*
G03Y938258I1378J-1378D01*
G01X1262885*
G03Y941014I-1591J1378*
G01X1256979*
X1256780Y944130D02*
Y946886D01*
X1263080*
Y944130*
X1256780*
X1219746Y996189D02*
G03X1216990I-1378J-1378D01*
G01Y990283*
G03X1219746I1378J1591*
G01Y996189*
X1238373Y990320D02*
G03X1241129I1378J1378D01*
G01Y996226*
G03X1238373I-1378J-1591*
G01Y990320*
X1313222Y915405D02*
G03X1310467I-1378J-1378D01*
G01Y909499*
G03X1313222I1377J1591*
G01Y915405*
X1316320Y908809D02*
Y924557D01*
X1342320*
Y908809*
X1316320*
X1200622Y923550D02*
X1203378D01*
Y917250*
X1200622*
Y923550*
X1207178Y923353D02*
G03X1204422I-1378J-1378D01*
G01Y917447*
G03X1207178I1378J1591*
G01Y923353*
X1143144Y936498D02*
G03X1140388I-1378J-1378D01*
G01Y930593*
G03X1143144I1378J1590*
G01X1143144D02*
Y936498D01*
X1144624Y893845D02*
X1148955D01*
Y882428*
X1144624*
Y893845*
X1256784Y949964D02*
Y952720D01*
X1263083*
Y949964*
X1256784*
X1267016Y946713D02*
G03Y943957I1378J-1378D01*
G01X1272921*
G03Y946713I-1590J1378*
G01X1267016*
X1267019Y952676D02*
G03Y949921I1378J-1378D01*
G01X1272925*
G03Y952676I-1591J1377*
G01X1267019*
X1207142Y931039D02*
G03X1204387I-1378J-1378D01*
G01Y925134*
G03X1207142I1377J1591*
G01Y931039*
X1217137Y980098D02*
G03Y977342I1378J-1378D01*
G01X1223043*
G03Y980098I-1591J1378*
G01X1217137*
X1217205Y976226D02*
G03Y973470I1378J-1378D01*
G01X1223111*
G03Y976226I-1591J1378*
G01X1217205*
X1203378Y930953D02*
G03X1200622I-1378J-1378D01*
G01Y925047*
G03X1203378I1378J1591*
G01Y930953*
X1261892Y992939D02*
Y997270D01*
X1273309*
Y992939*
X1261892*
X1266925Y960747D02*
G03Y957991I1378J-1378D01*
G01X1272830*
G03Y960747I-1591J1378*
G01X1266925*
X1256937Y970862D02*
G03Y968106I1378J-1378D01*
G01X1262842*
G03Y970862I-1590J1378*
G01X1256937*
X1272674Y988576D02*
G03Y991332I-1378J1378D01*
G01X1266768*
G03Y988576I1591J-1378*
G01X1272674*
X1272591Y984497D02*
G03Y987253I-1378J1378D01*
G01X1266686*
G03Y984497I1590J-1378*
G01X1272591*
X1125454Y943501D02*
G03Y940745I1378J-1378D01*
G01X1131359*
G03Y943501I-1591J1378*
G01X1125454*
X1131359Y960922D02*
G03Y963677I-1378J1378D01*
G01X1131359D02*
X1125454D01*
G03Y960922I1590J-1377*
G01X1131359*
X1132473Y959848D02*
Y944541D01*
X1124143*
Y959848*
X1132473*
X1194878Y923353D02*
G03X1192122I-1378J-1378D01*
G01Y917447*
G03X1194878I1378J1591*
G01Y923353*
X1175293Y924079D02*
G03Y926835I-1378J1378D01*
G01X1169387*
G03Y924079I1591J-1378*
G01X1175293*
X1168665Y918186D02*
Y922516D01*
X1180082*
Y918186*
X1168665*
X1179189Y912749D02*
G03Y917080I-2033J2165D01*
G01X1169347*
G03Y912749I1915J-2166*
G01X1179189*
X1256919Y958085D02*
Y960841D01*
X1263219*
Y958085*
X1256919*
X1310516Y924370D02*
X1313271D01*
Y918070*
X1310516*
Y924370*
X1139500Y906500D02*
Y919500D01*
X1164500*
Y906500*
X1139500*
X1363492Y1003693D02*
Y940307D01*
X1277508*
Y1003693*
X1363492*
X1284500Y1019500D02*
X1309500D01*
Y1034500*
X1284500*
Y1019500*
X1133445Y921813D02*
G03X1129115I-2165J-2034D01*
G01Y911970*
G03X1133445I2165J1916*
G01X1133445D02*
Y921813D01*
X1256771Y963838D02*
Y966594D01*
X1263071*
Y963838*
X1256771*
X1168879Y905865D02*
G03Y901535I2033J-2165D01*
G01X1178721*
G03Y905865I-1915J2165*
G01X1168879*
X1118145Y930511D02*
X1115389D01*
Y936810*
X1118145*
Y930511*
X1122617Y936860D02*
X1125373D01*
Y930561*
X1122617*
Y936860*
X1126173Y936869D02*
X1128929D01*
Y930570*
X1126173*
Y936869*
X1132715Y930567D02*
X1129959D01*
Y936866*
X1132715*
Y930567*
X1119835Y920370D02*
Y911028D01*
X1115307*
Y920370*
X1119835*
X1116007Y914692D02*
X1117610Y916295D01*
X1119221Y914683*
X1116007*
Y914692*
X1115938Y916674D02*
X1119232D01*
X1117618Y916177D02*
Y917288D01*
X1117627Y914782D02*
Y914171D01*
X1123929Y911496D02*
X1121173D01*
Y917795*
X1123929*
Y911496*
X1272891Y983533D02*
Y980777D01*
X1266592*
Y983533*
X1272891*
X1216626Y947800D02*
Y950556D01*
X1222925*
Y947800*
X1216626*
X1272915Y979434D02*
Y976678D01*
X1266616*
Y979434*
X1272915*
X1272863Y975414D02*
Y972658D01*
X1266563*
Y975414*
X1272863*
X1232260Y1002162D02*
Y999406D01*
X1225961*
Y1002162*
X1232260*
X1092578Y1001253D02*
G03X1089822I-1378J-1378D01*
G01Y995347*
G03X1092578I1378J1591*
G01Y1001253*
X1137100Y926611D02*
X1136819Y926498D01*
X1136538Y926270*
X1136538D02*
X1136397Y926043D01*
Y925589*
X1136538Y925361*
X1136538D02*
X1136819Y925134D01*
X1137100Y925020*
X1137522Y924907*
X1138225*
X1138647Y925020*
X1138928Y925134*
X1139209Y925361*
X1139350Y925589*
Y926043*
X1139209Y926270*
X1138928Y926498*
X1138647Y926611*
X1136397Y928770D02*
X1138366Y927634D01*
Y929339*
X1136397Y928770D02*
X1139350D01*
X1179582Y1022739D02*
X1179468Y1023021D01*
X1179241Y1023302*
X1179014Y1023442*
X1178559*
X1178332Y1023302*
X1178105Y1023021*
X1177991Y1022739*
X1177877Y1022317*
Y1021614*
X1177991Y1021192*
X1178105Y1020911*
X1178332Y1020630*
X1178559Y1020489*
X1179014*
X1179241Y1020630*
X1179468Y1020911*
X1179582Y1021192*
X1181286Y1023442D02*
X1181059Y1023302D01*
X1180832Y1023021*
X1180718Y1022739*
X1180605Y1022317*
Y1021614*
X1180718Y1021192*
X1180832Y1020911*
X1181059Y1020630*
X1181286Y1020489*
X1181741*
X1181968Y1020630*
X1182196Y1020911*
X1182309Y1021192*
X1182423Y1021614*
Y1022317*
X1182309Y1022739*
X1182196Y1023021*
X1181968Y1023302*
X1181741Y1023442*
X1181286*
X1183446D02*
Y1020489D01*
Y1023442D02*
X1185036Y1020489D01*
Y1023442D02*
Y1020489D01*
X1186059Y1022880D02*
X1186286Y1023021D01*
X1186627Y1023442*
Y1020489*
X1111014Y1036087D02*
Y1033978D01*
X1111127Y1033556*
X1111355Y1033275*
X1111695Y1033134*
X1111923*
X1112264Y1033275*
X1112491Y1033556*
X1112605Y1033978*
Y1036087*
X1114764D02*
X1113627Y1034119D01*
X1115332*
X1114764Y1036087D02*
Y1033134D01*
X1290598Y900094D02*
Y896813D01*
Y900094D02*
X1291508Y896813D01*
X1292417Y900094D02*
X1291508Y896813D01*
X1292417Y900094D02*
Y896813D01*
X1293439Y899469D02*
X1293667Y899625D01*
X1294008Y900094*
Y896813*
X1088465Y928631D02*
X1091747D01*
X1092403Y928790*
X1092840Y929109*
X1093059Y929586*
Y929904*
X1092840Y930381*
X1092403Y930699*
X1091747Y930859*
X1088465*
Y934359D02*
Y932768D01*
X1090434Y932609*
X1090215Y932768*
X1089997Y933245*
Y933722*
X1090215Y934199*
X1090653Y934518*
X1091309Y934677*
X1091747Y934518*
X1092403Y934359*
X1092840Y934040*
X1093059Y933563*
Y933086*
X1092840Y932609*
X1092622Y932449*
X1092184Y932290*
X1086537Y989042D02*
Y985761D01*
X1086697Y985104*
X1087015Y984667*
X1087492Y984448*
X1087810*
X1088287Y984667*
X1088606Y985104*
X1088765Y985761*
Y989042*
X1092106Y988386D02*
X1091947Y988823D01*
X1091469Y989042*
X1091151*
X1090674Y988823*
X1090356Y988167*
X1090197Y987073*
Y985979*
X1090356Y985104*
X1090674Y984667*
X1091151Y984448*
X1091310*
X1091787Y984667*
X1092106Y985104*
X1092265Y985761*
Y985979*
X1092106Y986636*
X1091787Y987073*
X1091310Y987292*
X1091151*
X1090674Y987073*
X1090356Y986636*
X1090197Y985979*
X1136262Y958070D02*
X1139215D01*
X1136262D02*
Y959093D01*
X1136402Y959434*
X1136543Y959548*
X1136824Y959661*
X1137106*
X1137387Y959548*
X1137527Y959434*
X1137668Y959093*
Y958070*
Y958866D02*
X1139215Y959661D01*
X1136965Y960798D02*
X1136824D01*
X1136543Y960911*
X1136402Y961025*
X1136262Y961252*
Y961707*
X1136402Y961934*
X1136543Y962048*
X1136824Y962161*
X1137106*
X1137387Y962048*
X1137809Y961820*
X1139215Y960684*
Y962275*
X1150323Y1006420D02*
X1150042Y1006307D01*
X1149761Y1006080*
X1149620Y1005852*
Y1005398*
X1149761Y1005170*
X1150042Y1004943*
X1150323Y1004830*
X1150745Y1004716*
X1151448*
X1151870Y1004830*
X1152152Y1004943*
X1152433Y1005170*
X1152573Y1005398*
Y1005852*
X1152433Y1006080*
X1152152Y1006307*
X1151870Y1006420*
X1150323Y1007557D02*
X1150183D01*
X1149902Y1007670*
X1149761Y1007784*
X1149620Y1008011*
Y1008466*
X1149761Y1008693*
X1149902Y1008807*
X1150183Y1008920*
X1150464*
X1150745Y1008807*
X1151167Y1008580*
X1152573Y1007443*
Y1009034*
X1145105Y1005182D02*
X1148058D01*
X1145105D02*
Y1006659D01*
X1146511Y1005182D02*
Y1006091D01*
X1145105Y1007682D02*
X1148058D01*
X1145105D02*
Y1008705D01*
X1145245Y1009045*
X1145386Y1009159*
X1145667Y1009273*
X1145948*
X1146230Y1009159*
X1146370Y1009045*
X1146511Y1008705*
Y1007682D02*
Y1008705D01*
X1146652Y1009045*
X1146792Y1009159*
X1147073Y1009273*
X1147495*
X1147777Y1009159*
X1147917Y1009045*
X1148058Y1008705*
Y1007682*
X1145808Y1010409D02*
X1145667D01*
X1145386Y1010523*
X1145245Y1010636*
X1145105Y1010864*
Y1011318*
X1145245Y1011545*
X1145386Y1011659*
X1145667Y1011773*
X1145948*
X1146230Y1011659*
X1146652Y1011432*
X1148058Y1010295*
Y1011886*
X1141323Y1006882D02*
X1141042Y1006768D01*
X1140761Y1006541*
X1140620Y1006314*
Y1005859*
X1140761Y1005632*
X1141042Y1005405*
X1141323Y1005291*
X1141745Y1005177*
X1142448*
X1142870Y1005291*
X1143152Y1005405*
X1143433Y1005632*
X1143573Y1005859*
Y1006314*
X1143433Y1006541*
X1143152Y1006768*
X1142870Y1006882*
X1141183Y1007905D02*
X1141042Y1008132D01*
X1140620Y1008473*
X1143573*
X1141605Y1010973D02*
X1142027Y1010859D01*
X1142308Y1010632*
X1142448Y1010291*
Y1010177*
X1142308Y1009836*
X1142027Y1009609*
X1141605Y1009495*
X1141464*
X1141042Y1009609*
X1140761Y1009836*
X1140620Y1010177*
Y1010291*
X1140761Y1010632*
X1141042Y1010859*
X1141605Y1010973*
X1142308*
X1143011Y1010859*
X1143433Y1010632*
X1143573Y1010291*
Y1010064*
X1143433Y1009723*
X1143152Y1009609*
X1136908Y1006500D02*
X1136627Y1006386D01*
X1136345Y1006159*
X1136205Y1005932*
Y1005477*
X1136345Y1005250*
X1136627Y1005023*
X1136908Y1004909*
X1137330Y1004795*
X1138033*
X1138455Y1004909*
X1138736Y1005023*
X1139017Y1005250*
X1139158Y1005477*
Y1005932*
X1139017Y1006159*
X1138736Y1006386*
X1138455Y1006500*
X1136908Y1007636D02*
X1136767D01*
X1136486Y1007750*
X1136345Y1007864*
X1136205Y1008091*
Y1008545*
X1136345Y1008773*
X1136486Y1008886*
X1136767Y1009000*
X1137048*
X1137330Y1008886*
X1137752Y1008659*
X1139158Y1007523*
Y1009114*
X1136205Y1010818D02*
X1136345Y1010477D01*
X1136767Y1010250*
X1137470Y1010136*
X1137892*
X1138595Y1010250*
X1139017Y1010477*
X1139158Y1010818*
Y1011045*
X1139017Y1011386*
X1138595Y1011614*
X1137892Y1011727*
X1137470*
X1136767Y1011614*
X1136345Y1011386*
X1136205Y1011045*
Y1010818*
X1209382Y959819D02*
Y956866D01*
Y959819D02*
X1210405D01*
X1210745Y959678*
X1210859Y959537*
X1210859D02*
X1210973Y959256D01*
Y958975*
X1210859Y958694*
X1210745Y958553*
X1210405Y958412*
X1210405D02*
X1209382D01*
X1210177D02*
X1210973Y956866D01*
X1211995Y959256D02*
X1212223Y959397D01*
X1212564Y959819*
Y956866*
X1215064Y959819D02*
X1213927D01*
X1213814Y958553*
X1213927Y958694*
X1214268Y958834*
X1214609*
X1214950Y958694*
X1215177Y958412*
X1215177D02*
X1215291Y957991D01*
X1215177Y957709*
X1215064Y957287*
X1215064D02*
X1214836Y957006D01*
X1214495Y956866*
X1214155*
X1213814Y957006*
X1213700Y957147*
X1213586Y957428*
X1210161Y963184D02*
X1210048Y963466D01*
X1209820Y963747*
X1209593Y963887*
X1209139*
X1208911Y963747*
X1208684Y963466*
X1208570Y963184*
X1208457Y962762*
Y962059*
X1208570Y961637*
X1208684Y961356*
X1208911Y961075*
X1209139Y960934*
X1209593*
X1209820Y961075*
X1210048Y961356*
X1210161Y961637*
X1211411Y963887D02*
X1212661D01*
X1211980Y962762*
X1212320*
X1212548Y962622*
X1212661Y962481*
X1212775Y962059*
Y961778*
X1212661Y961356*
X1212434Y961075*
X1212093Y960934*
X1211752*
X1211411Y961075*
X1211298Y961216*
X1211184Y961497*
X1214480Y963887D02*
X1214139Y963747D01*
X1213911Y963325*
X1213798Y962622*
Y962200*
X1213911Y961497*
X1214139Y961075*
X1214480Y960934*
X1214707*
X1215048Y961075*
X1215275Y961497*
X1215389Y962200*
Y962622*
X1215275Y963325*
X1215048Y963747*
X1214707Y963887*
X1214480*
X1292859Y906388D02*
Y903434D01*
X1292064Y906388D02*
X1293655D01*
X1294677D02*
Y903434D01*
Y906388D02*
X1295700D01*
X1295700D02*
X1296041Y906247D01*
X1296155Y906106*
X1296268Y905825*
Y905403*
X1296155Y905122*
X1296041Y904981*
X1295700Y904841*
X1294677*
X1297405Y905684D02*
Y905825D01*
X1297518Y906106*
X1297632Y906247*
X1297859Y906388*
X1297859D02*
X1298314D01*
X1298314D02*
X1298541Y906247D01*
X1298655Y906106*
X1298768Y905825*
Y905544*
X1298655Y905263*
X1298655D02*
X1298427Y904841D01*
X1297291Y903434*
X1298882*
X1308002Y906288D02*
Y903334D01*
X1307207Y906288D02*
X1308798D01*
X1309820D02*
Y903334D01*
Y906288D02*
X1310843D01*
X1310843D02*
X1311184Y906147D01*
X1311298Y906006*
X1311411Y905725*
Y905303*
X1311298Y905022*
X1311184Y904881*
X1310843Y904741*
X1309820*
X1313570Y906288D02*
X1312434Y904319D01*
X1314139*
X1313570Y906288D02*
Y903334D01*
X1134314Y884385D02*
Y881432D01*
X1133518Y884385D02*
X1135109D01*
X1136132D02*
Y881432D01*
Y884385D02*
X1137155D01*
X1137155D02*
X1137495Y884245D01*
X1137609Y884104*
X1137723Y883823*
Y883401*
X1137609Y883120*
X1137495Y882979*
X1137155Y882838*
X1137155D02*
X1136132D01*
X1138745Y883823D02*
X1138973Y883963D01*
X1139314Y884385*
Y881432*
X1282091Y1007845D02*
Y1004892D01*
Y1007845D02*
X1283113D01*
X1283454Y1007704*
X1283568Y1007564*
X1283682Y1007282*
Y1007001*
X1283568Y1006720*
X1283454Y1006579*
X1283113Y1006439*
X1282091*
X1282886D02*
X1283682Y1004892D01*
X1286295Y1007845D02*
X1285159Y1004892D01*
X1284704Y1007845D02*
X1286295D01*
X1132359Y967275D02*
Y963994D01*
X1131564Y967275D02*
X1133155D01*
X1134177D02*
Y963994D01*
Y967275D02*
X1135200D01*
X1135541Y967119*
X1135655Y966963*
X1135655D02*
X1135768Y966650D01*
Y966181*
X1135655Y965869*
X1135541Y965713*
X1135541D02*
X1135200Y965556D01*
X1134177*
X1137359Y967275D02*
X1137018Y967119D01*
X1136905Y966806*
Y966494*
X1137018Y966181*
X1137245Y966025*
X1137700Y965869*
X1138041Y965713*
X1138041D02*
X1138268Y965400D01*
X1138382Y965088*
X1138382D02*
Y964619D01*
X1138268Y964306*
X1138155Y964150*
X1137814Y963994*
X1137359*
X1137018Y964150*
X1136905Y964306*
X1136791Y964619*
Y965088*
X1136791D02*
X1136905Y965400D01*
X1137132Y965713*
X1137132D02*
X1137473Y965869D01*
X1137927Y966025*
X1138155Y966181*
X1138268Y966494*
Y966806*
X1138155Y967119*
X1137814Y967275*
X1137359*
X1132416Y971775D02*
Y968494D01*
X1131620Y971775D02*
X1133211D01*
X1134234D02*
Y968494D01*
Y971775D02*
X1135257D01*
X1135598Y971619*
X1135711Y971463*
X1135711D02*
X1135825Y971150D01*
Y970681*
X1135711Y970369*
X1135598Y970213*
X1135598D02*
X1135257Y970056D01*
X1134234*
X1138325Y970681D02*
X1138211Y970213D01*
X1138211D02*
X1137984Y969900D01*
X1137643Y969744*
X1137530*
X1137189Y969900*
X1136961Y970213*
X1136961D02*
X1136848Y970681D01*
Y970838*
X1136848D02*
X1136961Y971306D01*
X1137189Y971619*
X1137530Y971775*
X1137643*
X1137984Y971619*
X1138211Y971306*
X1138325Y970681*
Y969900*
X1138211Y969119*
X1137984Y968650*
X1137643Y968494*
X1137416*
X1137075Y968650*
X1136961Y968963*
X1132812Y958182D02*
X1135766D01*
X1132812D02*
Y959205D01*
X1132812D02*
X1132953Y959545D01*
X1133094Y959659*
X1133375Y959773*
X1133656*
X1133937Y959659*
X1133937D02*
X1134078Y959545D01*
X1134219Y959205*
Y958182*
Y958977D02*
X1135766Y959773D01*
X1133375Y960795D02*
X1133234Y961023D01*
X1132812Y961364*
X1132812D02*
X1135766D01*
X1225641Y946384D02*
X1225527Y946666D01*
X1225300Y946947*
X1225073Y947087*
X1225073D02*
X1224618D01*
X1224618D02*
X1224391Y946947D01*
X1224164Y946666*
X1224050Y946384*
X1223936Y945962*
X1223936D02*
Y945259D01*
X1224050Y944837*
X1224050D02*
X1224164Y944556D01*
X1224391Y944275*
X1224618Y944134*
X1225073*
X1225300Y944275*
X1225527Y944556*
X1225641Y944837*
X1226777Y946384D02*
Y946525D01*
X1226891Y946806*
X1227005Y946947*
X1227232Y947087*
X1227232D02*
X1227686D01*
X1227686D02*
X1227914Y946947D01*
X1228027Y946806*
X1228141Y946525*
Y946244*
X1228027Y945962*
X1228027D02*
X1227800Y945541D01*
X1226664Y944134*
X1228255*
X1229391Y946384D02*
Y946525D01*
X1229505Y946806*
X1229618Y946947*
X1229845Y947087*
X1229845D02*
X1230300D01*
X1230300D02*
X1230527Y946947D01*
X1230641Y946806*
X1230755Y946525*
Y946244*
X1230641Y945962*
X1230641D02*
X1230414Y945541D01*
X1229277Y944134*
X1230868*
X1249595Y979125D02*
X1249481Y979406D01*
X1249254Y979687*
X1249027Y979828*
X1248572*
X1248345Y979687*
X1248118Y979406*
X1248004Y979125*
X1247890Y978703*
Y978000*
X1248004Y977578*
X1248118Y977297*
X1248345Y977015*
X1248572Y976875*
X1249027*
X1249254Y977015*
X1249481Y977297*
X1249595Y977578*
X1250731Y979125D02*
Y979265D01*
X1250845Y979547*
X1250959Y979687*
X1251186Y979828*
X1251640*
X1251868Y979687*
X1251981Y979547*
X1252095Y979265*
Y978984*
X1251981Y978703*
X1251754Y978281*
X1250618Y976875*
X1252209*
X1253459Y979828D02*
X1254709D01*
X1254027Y978703*
X1254368*
X1254595Y978562*
X1254709Y978422*
X1254822Y978000*
Y977719*
X1254709Y977297*
X1254481Y977015*
X1254140Y976875*
X1253799*
X1253459Y977015*
X1253345Y977156*
X1253231Y977437*
X1256907Y979987D02*
Y977034D01*
Y979987D02*
X1257930D01*
X1257930D02*
X1258270Y979847D01*
X1258384Y979706*
X1258498Y979425*
Y979144*
X1258384Y978862*
X1258384D02*
X1258270Y978722D01*
X1257930Y978581*
X1256907*
X1257702D02*
X1258498Y977034D01*
X1259634Y979284D02*
Y979425D01*
X1259748Y979706*
X1259861Y979847*
X1260089Y979987*
X1260089D02*
X1260543D01*
X1260543D02*
X1260770Y979847D01*
X1260884Y979706*
X1260998Y979425*
Y979144*
X1260884Y978862*
X1260884D02*
X1260657Y978441D01*
X1259520Y977034*
X1261111*
X1263270Y979987D02*
X1262134Y978019D01*
X1263839*
X1263270Y979987D02*
Y977034D01*
X1268161Y969984D02*
X1268048Y970266D01*
X1267820Y970547*
X1267593Y970687*
X1267593D02*
X1267139D01*
X1267139D02*
X1266911Y970547D01*
X1266684Y970266*
X1266570Y969984*
X1266457Y969562*
X1266457D02*
Y968859D01*
X1266570Y968437*
X1266570D02*
X1266684Y968156D01*
X1266911Y967875*
X1267139Y967734*
X1267593*
X1267820Y967875*
X1268048Y968156*
X1268161Y968437*
X1269411Y970687D02*
X1270661D01*
X1270661D02*
X1269980Y969562D01*
X1269980D02*
X1270320D01*
X1270320D02*
X1270548Y969422D01*
X1270661Y969281*
X1270775Y968859*
Y968578*
X1270661Y968156*
X1270434Y967875*
X1270093Y967734*
X1269752*
X1269411Y967875*
X1269298Y968016*
X1269184Y968297*
X1272025Y970687D02*
X1273275D01*
X1273275D02*
X1272593Y969562D01*
X1272593D02*
X1272934D01*
X1272934D02*
X1273161Y969422D01*
X1273275Y969281*
X1273389Y968859*
Y968578*
X1273275Y968156*
X1273048Y967875*
X1272707Y967734*
X1272366*
X1272025Y967875*
X1271911Y968016*
X1271798Y968297*
X1226816Y929391D02*
X1226534Y929277D01*
X1226253Y929050*
X1226112Y928823*
X1226112D02*
Y928368D01*
X1226112D02*
X1226253Y928141D01*
X1226534Y927914*
X1226816Y927800*
X1227237Y927686*
X1227237D02*
X1227941D01*
X1228362Y927800*
X1228362D02*
X1228644Y927914D01*
X1228925Y928141*
X1229066Y928368*
Y928823*
X1228925Y929050*
X1228644Y929277*
X1228362Y929391*
X1226112Y930414D02*
X1229066D01*
X1226112D02*
Y931436D01*
X1226112D02*
X1226253Y931777D01*
X1226394Y931891*
X1226675Y932005*
X1226956*
X1227237Y931891*
X1227237D02*
X1227378Y931777D01*
X1227519Y931436*
Y930414*
Y931209D02*
X1229066Y932005D01*
X1226112Y933027D02*
X1227519Y933936D01*
X1229066*
X1226112Y934845D02*
X1227519Y933936D01*
X1226816Y935982D02*
X1226675D01*
X1226394Y936095*
X1226253Y936209*
X1226112Y936436*
X1226112D02*
Y936891D01*
X1226112D02*
X1226253Y937118D01*
X1226394Y937232*
X1226675Y937345*
X1226956*
X1227237Y937232*
X1227237D02*
X1227659Y937005D01*
X1229066Y935868*
Y937459*
X1226673Y923784D02*
X1226559Y924066D01*
X1226332Y924347*
X1226105Y924487*
X1226105D02*
X1225650D01*
X1225650D02*
X1225423Y924347D01*
X1225195Y924066*
X1225082Y923784*
X1224968Y923362*
X1224968D02*
Y922659D01*
X1225082Y922237*
X1225082D02*
X1225195Y921956D01*
X1225423Y921675*
X1225650Y921534*
X1226105*
X1226332Y921675*
X1226559Y921956*
X1226673Y922237*
X1227695Y923925D02*
X1227923Y924066D01*
X1228264Y924487*
X1228264D02*
Y921534D01*
X1229514Y924487D02*
X1230764D01*
X1230764D02*
X1230082Y923362D01*
X1230082D02*
X1230423D01*
X1230423D02*
X1230650Y923222D01*
X1230764Y923081*
X1230877Y922659*
Y922378*
X1230764Y921956*
X1230536Y921675*
X1230195Y921534*
X1229855*
X1229514Y921675*
X1229400Y921816*
X1229286Y922097*
X1226273Y941884D02*
X1226159Y942166D01*
X1225932Y942447*
X1225705Y942587*
X1225705D02*
X1225250D01*
X1225250D02*
X1225023Y942447D01*
X1224795Y942166*
X1224682Y941884*
X1224568Y941462*
X1224568D02*
Y940759D01*
X1224682Y940337*
X1224682D02*
X1224795Y940056D01*
X1225023Y939775*
X1225250Y939634*
X1225705*
X1225932Y939775*
X1226159Y940056*
X1226273Y940337*
X1227295Y942025D02*
X1227523Y942166D01*
X1227864Y942587*
X1227864D02*
Y939634D01*
X1229000Y941884D02*
Y942025D01*
X1229114Y942306*
X1229227Y942447*
X1229455Y942587*
X1229455D02*
X1229909D01*
X1229909D02*
X1230136Y942447D01*
X1230250Y942306*
X1230364Y942025*
Y941744*
X1230250Y941462*
X1230250D02*
X1230023Y941041D01*
X1228886Y939634*
X1230477*
X1155123Y1006214D02*
X1154842Y1006100D01*
X1154561Y1005873*
X1154420Y1005645*
Y1005191*
X1154561Y1004964*
X1154842Y1004736*
X1155123Y1004623*
X1155545Y1004509*
X1156248*
X1156670Y1004623*
X1156952Y1004736*
X1157233Y1004964*
X1157373Y1005191*
Y1005645*
X1157233Y1005873*
X1156952Y1006100*
X1156670Y1006214*
X1154420Y1007464D02*
Y1008714D01*
X1155545Y1008032*
Y1008373*
X1155686Y1008600*
X1155827Y1008714*
X1156248Y1008827*
X1156530*
X1156952Y1008714*
X1157233Y1008486*
X1157373Y1008145*
Y1007805*
X1157233Y1007464*
X1157092Y1007350*
X1156811Y1007236*
X1154420Y1010418D02*
X1154561Y1010077D01*
X1154842Y1009964*
X1155123*
X1155405Y1010077*
X1155545Y1010305*
X1155686Y1010759*
X1155827Y1011100*
X1156108Y1011327*
X1156389Y1011441*
X1156811*
X1157092Y1011327*
X1157233Y1011214*
X1157373Y1010873*
Y1010418*
X1157233Y1010077*
X1157092Y1009964*
X1156811Y1009850*
X1156389*
X1156108Y1009964*
X1155827Y1010191*
X1155686Y1010532*
X1155545Y1010986*
X1155405Y1011214*
X1155123Y1011327*
X1154842*
X1154561Y1011214*
X1154420Y1010873*
Y1010418*
X1188268Y1007420D02*
Y1005310D01*
X1188382Y1004888*
X1188609Y1004607*
X1188950Y1004466*
X1189177*
X1189518Y1004607*
X1189746Y1004888*
X1189859Y1005310*
Y1007420*
X1190882Y1006857D02*
X1191109Y1006998D01*
X1191450Y1007420*
Y1004466*
X1204208Y1009272D02*
X1203927Y1009158D01*
X1203645Y1008931*
X1203505Y1008704*
Y1008249*
X1203645Y1008022*
X1203927Y1007794*
X1204208Y1007681*
X1204630Y1007567*
X1205333*
X1205755Y1007681*
X1206036Y1007794*
X1206317Y1008022*
X1206458Y1008249*
Y1008704*
X1206317Y1008931*
X1206036Y1009158*
X1205755Y1009272*
X1204067Y1010294D02*
X1203927Y1010522D01*
X1203505Y1010863*
X1206458*
X1208216Y1008868D02*
X1207934Y1008755D01*
X1207653Y1008527*
X1207513Y1008300*
X1207513D02*
Y1007845D01*
X1207513D02*
X1207653Y1007618D01*
X1207934Y1007391*
X1208216Y1007277*
X1208638Y1007164*
X1208638D02*
X1209341D01*
X1209763Y1007277*
X1209763D02*
X1210044Y1007391D01*
X1210325Y1007618*
X1210466Y1007845*
Y1008300*
X1210325Y1008527*
X1210044Y1008755*
X1209763Y1008868*
X1207513Y1010118D02*
Y1011368D01*
X1207513D02*
X1208638Y1010686D01*
X1208638D02*
Y1011027D01*
X1208638D02*
X1208778Y1011255D01*
X1208919Y1011368*
X1209341Y1011482*
X1209622*
X1210044Y1011368*
X1210325Y1011141*
X1210466Y1010800*
Y1010459*
X1210325Y1010118*
X1210184Y1010005*
X1209903Y1009891*
X1287218Y933184D02*
X1287105Y933466D01*
X1286877Y933747*
X1286650Y933887*
X1286650D02*
X1286195D01*
X1286195D02*
X1285968Y933747D01*
X1285741Y933466*
X1285627Y933184*
X1285514Y932762*
X1285514D02*
Y932059D01*
X1285627Y931637*
X1285627D02*
X1285741Y931356D01*
X1285968Y931075*
X1286195Y930934*
X1286650*
X1286877Y931075*
X1287105Y931356*
X1287218Y931637*
X1288355Y933184D02*
Y933325D01*
X1288468Y933606*
X1288582Y933747*
X1288809Y933887*
X1288809D02*
X1289264D01*
X1289264D02*
X1289491Y933747D01*
X1289605Y933606*
X1289718Y933325*
Y933044*
X1289605Y932762*
X1289605D02*
X1289377Y932341D01*
X1288241Y930934*
X1289832*
X1292332Y932903D02*
X1292218Y932481D01*
X1291991Y932200*
X1291650Y932059*
X1291536*
X1291195Y932200*
X1290968Y932481*
X1290855Y932903*
Y933044*
X1290968Y933466*
X1291195Y933747*
X1291536Y933887*
X1291536D02*
X1291650D01*
X1291650D02*
X1291991Y933747D01*
X1292218Y933466*
X1292332Y932903*
Y932200*
X1292218Y931497*
X1291991Y931075*
X1291650Y930934*
X1291423*
X1291082Y931075*
X1290968Y931356*
X1286997Y937135D02*
X1286883Y937416D01*
X1286656Y937697*
X1286429Y937838*
X1285974*
X1285747Y937697*
X1285520Y937416*
X1285406Y937135*
X1285292Y936713*
Y936010*
X1285406Y935588*
X1285520Y935307*
X1285747Y935026*
X1285974Y934885*
X1286429*
X1286656Y935026*
X1286883Y935307*
X1286997Y935588*
X1288133Y937135D02*
Y937276D01*
X1288247Y937557*
X1288361Y937697*
X1288588Y937838*
X1289042*
X1289270Y937697*
X1289383Y937557*
X1289497Y937276*
Y936994*
X1289383Y936713*
X1289156Y936291*
X1288020Y934885*
X1289611*
X1291202Y937838D02*
X1290861Y937697D01*
X1290747Y937416*
Y937135*
X1290861Y936854*
X1291088Y936713*
X1291542Y936572*
X1291883Y936432*
X1292111Y936151*
X1292224Y935869*
Y935447*
X1292111Y935166*
X1291997Y935026*
X1291656Y934885*
X1291202*
X1290861Y935026*
X1290747Y935166*
X1290633Y935447*
Y935869*
X1290747Y936151*
X1290974Y936432*
X1291315Y936572*
X1291770Y936713*
X1291997Y936854*
X1292111Y937135*
Y937416*
X1291997Y937697*
X1291656Y937838*
X1291202*
X1304259Y1015388D02*
Y1012434D01*
X1303464Y1015388D02*
X1305055D01*
X1306077D02*
Y1012434D01*
Y1015388D02*
X1307100D01*
X1307100D02*
X1307441Y1015247D01*
X1307555Y1015106*
X1307668Y1014825*
Y1014403*
X1307555Y1014122*
X1307441Y1013981*
X1307100Y1013841*
X1306077*
X1308918Y1015388D02*
X1310168D01*
X1310168D02*
X1309486Y1014263D01*
X1309486D02*
X1309827D01*
X1309827D02*
X1310055Y1014122D01*
X1310168Y1013981*
X1310282Y1013559*
Y1013278*
X1310168Y1012856*
X1309941Y1012575*
X1309600Y1012434*
X1309259*
X1308918Y1012575*
X1308805Y1012716*
X1308691Y1012997*
X1282211Y1017141D02*
Y1014188D01*
Y1017141D02*
X1283006D01*
X1283347Y1017000*
X1283574Y1016719*
X1283688Y1016438*
X1283802Y1016016*
Y1015313*
X1283688Y1014891*
X1283574Y1014610*
X1283347Y1014329*
X1283006Y1014188*
X1282211*
X1284938Y1016438D02*
Y1016579D01*
X1285052Y1016860*
X1285165Y1017000*
X1285393Y1017141*
X1285847*
X1286074Y1017000*
X1286188Y1016860*
X1286302Y1016579*
Y1016297*
X1286188Y1016016*
X1285961Y1015594*
X1284824Y1014188*
X1286415*
X1282142Y1012105D02*
Y1009151D01*
Y1012105D02*
X1283164D01*
X1283505Y1011964*
X1283619Y1011823*
X1283732Y1011542*
Y1011261*
X1283619Y1010980*
X1283505Y1010839*
X1283164Y1010698*
X1282142*
X1282937D02*
X1283732Y1009151D01*
X1286232Y1012105D02*
X1285096D01*
X1284982Y1010839*
X1285096Y1010980*
X1285437Y1011120*
X1285778*
X1286119Y1010980*
X1286346Y1010698*
X1286460Y1010276*
X1286346Y1009995*
X1286232Y1009573*
X1286005Y1009292*
X1285664Y1009151*
X1285323*
X1284982Y1009292*
X1284869Y1009433*
X1284755Y1009714*
X1247820Y931388D02*
Y928434D01*
Y931388D02*
X1249298D01*
X1247820Y929981D02*
X1248730D01*
X1250320Y931388D02*
Y928434D01*
Y931388D02*
X1251343D01*
X1251343D02*
X1251684Y931247D01*
X1251798Y931106*
X1251911Y930825*
Y930544*
X1251798Y930263*
X1251798D02*
X1251684Y930122D01*
X1251343Y929981*
X1250320D02*
X1251343D01*
X1251684Y929841*
X1251798Y929700*
X1251911Y929419*
Y928997*
X1251798Y928716*
X1251684Y928575*
X1251343Y928434*
X1250320*
X1253161Y931388D02*
X1254411D01*
X1254411D02*
X1253730Y930263D01*
X1253730D02*
X1254070D01*
X1254070D02*
X1254298Y930122D01*
X1254411Y929981*
X1254525Y929559*
Y929278*
X1254411Y928856*
X1254184Y928575*
X1253843Y928434*
X1253502*
X1253161Y928575*
X1253048Y928716*
X1252934Y928997*
X1249235Y935643D02*
X1249121Y935924D01*
X1248894Y936205*
X1248666Y936346*
X1248212*
X1247985Y936205*
X1247757Y935924*
X1247644Y935643*
X1247530Y935221*
Y934518*
X1247644Y934096*
X1247757Y933815*
X1247985Y933533*
X1248212Y933393*
X1248666*
X1248894Y933533*
X1249121Y933815*
X1249235Y934096*
X1250371Y935643D02*
Y935783D01*
X1250485Y936065*
X1250598Y936205*
X1250825Y936346*
X1251280*
X1251507Y936205*
X1251621Y936065*
X1251735Y935783*
Y935502*
X1251621Y935221*
X1251394Y934799*
X1250257Y933393*
X1251848*
X1252871Y935783D02*
X1253098Y935924D01*
X1253439Y936346*
Y933393*
X1249020Y940369D02*
X1248907Y940651D01*
X1248680Y940932*
X1248452Y941073*
X1247998*
X1247770Y940932*
X1247543Y940651*
X1247430Y940369*
X1247316Y939948*
Y939244*
X1247430Y938823*
X1247543Y938541*
X1247770Y938260*
X1247998Y938119*
X1248452*
X1248680Y938260*
X1248907Y938541*
X1249020Y938823*
X1250157Y940369D02*
Y940510D01*
X1250270Y940791*
X1250384Y940932*
X1250611Y941073*
X1251066*
X1251293Y940932*
X1251407Y940791*
X1251520Y940510*
Y940229*
X1251407Y939948*
X1251180Y939526*
X1250043Y938119*
X1251634*
X1254020Y940651D02*
X1253907Y940932D01*
X1253566Y941073*
X1253339*
X1252998Y940932*
X1252770Y940510*
X1252657Y939807*
Y939104*
X1252770Y938541*
X1252998Y938260*
X1253339Y938119*
X1253452*
X1253793Y938260*
X1254020Y938541*
X1254134Y938963*
Y939104*
X1254020Y939526*
X1253793Y939807*
X1253452Y939948*
X1253339*
X1252998Y939807*
X1252770Y939526*
X1252657Y939104*
X1232455Y947088D02*
Y944134D01*
Y947088D02*
X1233477D01*
X1233477D02*
X1233818Y946947D01*
X1233932Y946806*
X1234045Y946525*
Y946244*
X1233932Y945963*
X1233932D02*
X1233818Y945822D01*
X1233477Y945681*
X1232455*
X1233250D02*
X1234045Y944134D01*
X1235068Y946525D02*
X1235295Y946666D01*
X1235636Y947088*
X1235636D02*
Y944134D01*
X1238250Y947088D02*
X1237114Y944134D01*
X1236659Y947088D02*
X1238250D01*
X1231857Y978223D02*
Y975270D01*
X1233220*
X1235152Y978223D02*
X1234243Y975270D01*
X1235152Y978223D02*
X1236061Y975270D01*
X1234584Y976255D02*
X1235720D01*
X1237084Y978223D02*
Y975270D01*
Y978223D02*
X1238675Y975270D01*
Y978223D02*
Y975270D01*
X1239697Y977661D02*
X1239925Y977801D01*
X1240266Y978223*
Y975270*
X1213108Y991897D02*
X1212827Y991783D01*
X1212545Y991556*
X1212405Y991329*
Y990874*
X1212545Y990647*
X1212827Y990419*
X1213108Y990306*
X1213530Y990192*
X1214233*
X1214655Y990306*
X1214936Y990419*
X1215217Y990647*
X1215358Y990874*
Y991329*
X1215217Y991556*
X1214936Y991783*
X1214655Y991897*
X1212405Y993147D02*
Y994397D01*
X1213530Y993715*
Y994056*
X1213670Y994283*
X1213811Y994397*
X1214233Y994510*
X1214514*
X1214936Y994397*
X1215217Y994169*
X1215358Y993829*
Y993488*
X1215217Y993147*
X1215077Y993033*
X1214795Y992919*
X1212405Y997010D02*
Y995874D01*
X1213670Y995760*
X1213530Y995874*
X1213389Y996215*
Y996556*
X1213530Y996897*
X1213811Y997124*
X1214233Y997238*
X1214514Y997124*
X1214936Y997010*
X1215217Y996783*
X1215358Y996442*
Y996101*
X1215217Y995760*
X1215077Y995647*
X1214795Y995533*
X1242808Y991310D02*
X1242527Y991197D01*
X1242245Y990969*
X1242105Y990742*
Y990288*
X1242245Y990060*
X1242527Y989833*
X1242808Y989719*
X1243230Y989606*
X1243933*
X1244355Y989719*
X1244636Y989833*
X1244917Y990060*
X1245058Y990288*
Y990742*
X1244917Y990969*
X1244636Y991197*
X1244355Y991310*
X1242105Y992560D02*
Y993810D01*
X1243230Y993129*
Y993469*
X1243370Y993697*
X1243511Y993810*
X1243933Y993924*
X1244214*
X1244636Y993810*
X1244917Y993583*
X1245058Y993242*
Y992901*
X1244917Y992560*
X1244777Y992447*
X1244495Y992333*
X1242527Y996310D02*
X1242245Y996197D01*
X1242105Y995856*
Y995629*
X1242245Y995288*
X1242667Y995060*
X1243370Y994947*
X1244073*
X1244636Y995060*
X1244917Y995288*
X1245058Y995629*
Y995742*
X1244917Y996083*
X1244636Y996310*
X1244214Y996424*
X1244073*
X1243652Y996310*
X1243370Y996083*
X1243230Y995742*
Y995629*
X1243370Y995288*
X1243652Y995060*
X1244073Y994947*
X1218618Y1002788D02*
X1219527Y1001381D01*
Y999834*
X1220436Y1002788D02*
X1219527Y1001381D01*
X1221459Y1002225D02*
X1221686Y1002366D01*
X1222027Y1002788*
X1222027D02*
Y999834D01*
X1320089Y937904D02*
Y934951D01*
X1319294Y937904D02*
X1320885D01*
X1321907D02*
Y934951D01*
Y937904D02*
X1322930D01*
X1323271Y937763*
X1323385Y937623*
X1323498Y937342*
Y936920*
X1323385Y936638*
X1323271Y936498*
X1322930Y936357*
X1321907*
X1325998Y937904D02*
X1324862D01*
X1324748Y936638*
X1324862Y936779*
X1325203Y936920*
X1325544*
X1325885Y936779*
X1326112Y936498*
X1326226Y936076*
X1326112Y935795*
X1325998Y935373*
X1325771Y935092*
X1325430Y934951*
X1325089*
X1324748Y935092*
X1324635Y935232*
X1324521Y935513*
X1306708Y911465D02*
X1306427Y911351D01*
X1306145Y911124*
X1306005Y910897*
Y910442*
X1306145Y910215*
X1306427Y909988*
X1306708Y909874*
X1307130Y909760*
X1307833*
X1308255Y909874*
X1308536Y909988*
X1308817Y910215*
X1308958Y910442*
Y910897*
X1308817Y911124*
X1308536Y911351*
X1308255Y911465*
X1306567Y912488D02*
X1306427Y912715D01*
X1306005Y913056*
X1308958*
X1306005Y914647D02*
X1306145Y914306D01*
X1306427Y914192*
X1306708*
X1306989Y914306*
X1307130Y914533*
X1307270Y914988*
X1307411Y915329*
X1307692Y915556*
X1307973Y915669*
X1308395*
X1308677Y915556*
X1308817Y915442*
X1308958Y915101*
Y914647*
X1308817Y914306*
X1308677Y914192*
X1308395Y914079*
X1307973*
X1307692Y914192*
X1307411Y914419*
X1307270Y914760*
X1307130Y915215*
X1306989Y915442*
X1306708Y915556*
X1306427*
X1306145Y915442*
X1306005Y915101*
Y914647*
X1312045Y929288D02*
Y927038D01*
X1312045D02*
X1311932Y926616D01*
X1311818Y926475*
X1311591Y926334*
X1311364*
X1311136Y926475*
X1311023Y926616*
X1310909Y927038*
X1310909D02*
Y927319D01*
X1313068Y928725D02*
X1313295Y928866D01*
X1313636Y929288*
X1313636D02*
Y926334D01*
X1196613Y918614D02*
X1199566D01*
X1196613D02*
Y919636D01*
X1196613D02*
X1196753Y919977D01*
X1196894Y920091*
X1197175Y920205*
X1197456*
X1197738Y920091*
X1197738D02*
X1197878Y919977D01*
X1198019Y919636*
Y918614*
Y919409D02*
X1199566Y920205D01*
X1196613Y922364D02*
X1198581Y921227D01*
Y922932*
X1196613Y922364D02*
X1199566D01*
X1208916Y919073D02*
X1208634Y918959D01*
X1208353Y918732*
X1208213Y918505*
X1208213D02*
Y918050D01*
X1208213D02*
X1208353Y917823D01*
X1208634Y917595*
X1208916Y917482*
X1209338Y917368*
X1209338D02*
X1210041D01*
X1210463Y917482*
X1210463D02*
X1210744Y917595D01*
X1211025Y917823*
X1211166Y918050*
Y918505*
X1211025Y918732*
X1210744Y918959*
X1210463Y919073*
X1208775Y920095D02*
X1208634Y920323D01*
X1208213Y920664*
X1208213D02*
X1211166D01*
X1208213Y923277D02*
X1211166Y922141D01*
X1208213Y921686D02*
Y923277D01*
X1141300Y926411D02*
X1141019Y926298D01*
X1140737Y926070*
X1140737D02*
X1140597Y925843D01*
Y925389*
X1140737Y925161*
X1140737D02*
X1141019Y924934D01*
X1141300Y924820*
X1141722Y924707*
X1142425*
X1142847Y924820*
X1143128Y924934*
X1143409Y925161*
X1143550Y925389*
Y925843*
X1143409Y926070*
X1143128Y926298*
X1142847Y926411*
X1140597Y928911D02*
Y927775D01*
X1141862Y927661*
X1141862D02*
X1141722Y927775D01*
X1141581Y928116*
Y928457*
X1141722Y928798*
X1142003Y929025*
X1142425Y929139*
X1142706Y929025*
X1143128Y928911*
X1143409Y928684*
X1143550Y928343*
Y928002*
X1143409Y927661*
X1143269Y927548*
X1142987Y927434*
X1139917Y887534D02*
X1142870D01*
X1139917D02*
Y888557D01*
X1140058Y888898*
X1140199Y889012*
X1140480Y889125*
X1140761*
X1141042Y889012*
X1141183Y888898*
X1141324Y888557*
Y887534*
Y888330D02*
X1142870Y889125D01*
X1139917Y890375D02*
Y891625D01*
X1141042Y890943*
Y891284*
X1141183Y891512*
X1141324Y891625*
X1141745Y891739*
X1142027*
X1142449Y891625*
X1142730Y891398*
X1142870Y891057*
Y890716*
X1142730Y890375*
X1142589Y890262*
X1142308Y890148*
X1232632Y951388D02*
Y948434D01*
Y951388D02*
X1233655D01*
X1233655D02*
X1233995Y951247D01*
X1234109Y951106*
X1234223Y950825*
Y950544*
X1234109Y950263*
X1234109D02*
X1233995Y950122D01*
X1233655Y949981*
X1232632*
X1233427D02*
X1234223Y948434D01*
X1235245Y950825D02*
X1235473Y950966D01*
X1235814Y951388*
X1235814D02*
Y948434D01*
X1238200Y950966D02*
X1238086Y951247D01*
X1237745Y951388*
X1237745D02*
X1237518D01*
X1237518D02*
X1237177Y951247D01*
X1236950Y950825*
X1236836Y950122*
Y949419*
X1236950Y948856*
X1237177Y948575*
X1237518Y948434*
X1237632*
X1237973Y948575*
X1238200Y948856*
X1238314Y949278*
Y949419*
X1238200Y949841*
X1237973Y950122*
X1237632Y950263*
X1237632D02*
X1237518D01*
X1237518D02*
X1237177Y950122D01*
X1236950Y949841*
X1236836Y949419*
X1240761Y946284D02*
X1240648Y946566D01*
X1240420Y946847*
X1240193Y946987*
X1239739*
X1239511Y946847*
X1239284Y946566*
X1239170Y946284*
X1239057Y945862*
Y945159*
X1239170Y944737*
X1239284Y944456*
X1239511Y944175*
X1239739Y944034*
X1240193*
X1240420Y944175*
X1240648Y944456*
X1240761Y944737*
X1242011Y946987D02*
X1243261D01*
X1242580Y945862*
X1242920*
X1243148Y945722*
X1243261Y945581*
X1243375Y945159*
Y944878*
X1243261Y944456*
X1243034Y944175*
X1242693Y944034*
X1242352*
X1242011Y944175*
X1241898Y944316*
X1241784Y944597*
X1244511Y946284D02*
Y946425D01*
X1244625Y946706*
X1244739Y946847*
X1244966Y946987*
X1245420*
X1245648Y946847*
X1245761Y946706*
X1245875Y946425*
Y946144*
X1245761Y945862*
X1245534Y945441*
X1244398Y944034*
X1245989*
X1241173Y950584D02*
X1241059Y950866D01*
X1240832Y951147*
X1240605Y951287*
X1240605D02*
X1240150D01*
X1240150D02*
X1239923Y951147D01*
X1239695Y950866*
X1239582Y950584*
X1239468Y950162*
X1239468D02*
Y949459D01*
X1239582Y949037*
X1239582D02*
X1239695Y948756D01*
X1239923Y948475*
X1240150Y948334*
X1240605*
X1240832Y948475*
X1241059Y948756*
X1241173Y949037*
X1242423Y951287D02*
X1243673D01*
X1243673D02*
X1242991Y950162D01*
X1242991D02*
X1243332D01*
X1243332D02*
X1243559Y950022D01*
X1243673Y949881*
X1243786Y949459*
Y949178*
X1243673Y948756*
X1243445Y948475*
X1243105Y948334*
X1242764*
X1242423Y948475*
X1242309Y948616*
X1242195Y948897*
X1244809Y950725D02*
X1245036Y950866D01*
X1245377Y951287*
X1245377D02*
Y948334D01*
X1209008Y927760D02*
X1208727Y927647D01*
X1208445Y927419*
X1208305Y927192*
Y926738*
X1208445Y926510*
X1208727Y926283*
X1209008Y926169*
X1209430Y926056*
X1210133*
X1210555Y926169*
X1210836Y926283*
X1211117Y926510*
X1211258Y926738*
Y927192*
X1211117Y927419*
X1210836Y927647*
X1210555Y927760*
X1208305Y930374D02*
X1211258Y929238D01*
X1208305Y928783D02*
Y930374D01*
X1338810Y938023D02*
Y935070D01*
X1338014Y938023D02*
X1339605D01*
X1340628D02*
Y935070D01*
Y938023D02*
X1341651D01*
X1341992Y937883*
X1342105Y937742*
X1342219Y937461*
Y937039*
X1342105Y936758*
X1341992Y936617*
X1341651Y936476*
X1340628*
X1344833Y938023D02*
X1343696Y935070D01*
X1343242Y938023D02*
X1344833D01*
X1329365Y937952D02*
Y934999D01*
X1328570Y937952D02*
X1330161D01*
X1331184D02*
Y934999D01*
Y937952D02*
X1332206D01*
X1332547Y937811*
X1332661Y937671*
X1332774Y937390*
Y936968*
X1332661Y936686*
X1332547Y936546*
X1332206Y936405*
X1331184*
X1335161Y937530D02*
X1335047Y937811D01*
X1334706Y937952*
X1334479*
X1334138Y937811*
X1333911Y937390*
X1333797Y936686*
Y935983*
X1333911Y935421*
X1334138Y935140*
X1334479Y934999*
X1334593*
X1334934Y935140*
X1335161Y935421*
X1335274Y935843*
Y935983*
X1335161Y936405*
X1334934Y936686*
X1334593Y936827*
X1334479*
X1334138Y936686*
X1333911Y936405*
X1333797Y935983*
X1210360Y980084D02*
X1210246Y980366D01*
X1210019Y980647*
X1209791Y980787*
X1209337*
X1209110Y980647*
X1208882Y980366*
X1208769Y980084*
X1208655Y979662*
Y978959*
X1208769Y978537*
X1208882Y978256*
X1209110Y977975*
X1209337Y977834*
X1209791*
X1210019Y977975*
X1210246Y978256*
X1210360Y978537*
X1211496Y980084D02*
Y980225D01*
X1211610Y980506*
X1211723Y980647*
X1211950Y980787*
X1212405*
X1212632Y980647*
X1212746Y980506*
X1212860Y980225*
Y979944*
X1212746Y979662*
X1212519Y979241*
X1211382Y977834*
X1212973*
X1215132Y980787D02*
X1213996Y978819D01*
X1215700*
X1215132Y980787D02*
Y977834D01*
X1209805Y975584D02*
X1209691Y975866D01*
X1209464Y976147*
X1209236Y976287*
X1208782*
X1208555Y976147*
X1208327Y975866*
X1208214Y975584*
X1208100Y975162*
Y974459*
X1208214Y974037*
X1208327Y973756*
X1208555Y973475*
X1208782Y973334*
X1209236*
X1209464Y973475*
X1209691Y973756*
X1209805Y974037*
X1210941Y975584D02*
Y975725D01*
X1211055Y976006*
X1211168Y976147*
X1211395Y976287*
X1211850*
X1212077Y976147*
X1212191Y976006*
X1212305Y975725*
Y975444*
X1212191Y975162*
X1211964Y974741*
X1210827Y973334*
X1212418*
X1214918Y976287D02*
X1213782D01*
X1213668Y975022*
X1213782Y975162*
X1214123Y975303*
X1214464*
X1214805Y975162*
X1215032Y974881*
X1215145Y974459*
X1215032Y974178*
X1214918Y973756*
X1214691Y973475*
X1214350Y973334*
X1214009*
X1213668Y973475*
X1213555Y973616*
X1213441Y973897*
X1197208Y927917D02*
X1196927Y927804D01*
X1196645Y927576*
X1196505Y927349*
Y926894*
X1196645Y926667*
X1196927Y926440*
X1197208Y926326*
X1197630Y926213*
X1198333*
X1198755Y926326*
X1199036Y926440*
X1199317Y926667*
X1199458Y926894*
Y927349*
X1199317Y927576*
X1199036Y927804*
X1198755Y927917*
X1196927Y930304D02*
X1196645Y930190D01*
X1196505Y929849*
Y929622*
X1196645Y929281*
X1197067Y929054*
X1197770Y928940*
X1198473*
X1199036Y929054*
X1199317Y929281*
X1199458Y929622*
Y929735*
X1199317Y930076*
X1199036Y930304*
X1198614Y930417*
X1198473*
X1198052Y930304*
X1197770Y930076*
X1197630Y929735*
Y929622*
X1197770Y929281*
X1198052Y929054*
X1198473Y928940*
X1251445Y1009060D02*
Y1006107D01*
X1252808*
X1253831Y1008497D02*
X1254058Y1008638D01*
X1254399Y1009060*
Y1006107*
X1268305Y955984D02*
X1268191Y956266D01*
X1267964Y956547*
X1267736Y956687*
X1267736D02*
X1267282D01*
X1267282D02*
X1267055Y956547D01*
X1266827Y956266*
X1266714Y955984*
X1266600Y955562*
X1266600D02*
Y954859D01*
X1266714Y954437*
X1266714D02*
X1266827Y954156D01*
X1267055Y953875*
X1267282Y953734*
X1267736*
X1267964Y953875*
X1268191Y954156*
X1268305Y954437*
X1269555Y956687D02*
X1270805D01*
X1270805D02*
X1270123Y955562D01*
X1270123D02*
X1270464D01*
X1270464D02*
X1270691Y955422D01*
X1270805Y955281*
X1270918Y954859*
Y954578*
X1270805Y954156*
X1270577Y953875*
X1270236Y953734*
X1269895*
X1269555Y953875*
X1269441Y954016*
X1269327Y954297*
X1273077Y956687D02*
X1271941Y954719D01*
X1273645*
X1273077Y956687D02*
Y953734D01*
X1250120Y970198D02*
X1250006Y970479D01*
X1249779Y970760*
X1249552Y970901*
X1249097*
X1248870Y970760*
X1248643Y970479*
X1248529Y970198*
X1248415Y969776*
Y969073*
X1248529Y968651*
X1248643Y968370*
X1248870Y968088*
X1249097Y967948*
X1249552*
X1249779Y968088*
X1250006Y968370*
X1250120Y968651*
X1251256Y970198D02*
Y970338D01*
X1251370Y970620*
X1251483Y970760*
X1251711Y970901*
X1252165*
X1252393Y970760*
X1252506Y970620*
X1252620Y970338*
Y970057*
X1252506Y969776*
X1252279Y969354*
X1251143Y967948*
X1252733*
X1255347Y970901D02*
X1254211Y967948D01*
X1253756Y970901D02*
X1255347D01*
X1253135Y1004096D02*
X1253022Y1004378D01*
X1252794Y1004659*
X1252567Y1004800*
X1252112*
X1252112D02*
X1251885Y1004659D01*
X1251658Y1004378*
X1251544Y1004096*
X1251431Y1003675*
Y1002971*
X1251544Y1002550*
X1251658Y1002268*
X1251885Y1001987*
X1252112Y1001846*
X1252112D02*
X1252567D01*
X1252794Y1001987*
X1253022Y1002268*
X1253135Y1002550*
X1254385Y1004800D02*
X1255635D01*
X1254953Y1003675*
X1255294*
X1255522Y1003534*
X1255635Y1003393*
X1255749Y1002971*
Y1002690*
X1255635Y1002268*
X1255408Y1001987*
X1255067Y1001846*
X1254726*
X1254385Y1001987*
X1254272Y1002128*
X1254158Y1002409*
X1258249Y1003815D02*
X1258135Y1003393D01*
X1257908Y1003112*
X1257567Y1002971*
X1257453*
X1257112Y1003112*
X1257112D02*
X1256885Y1003393D01*
X1256772Y1003815*
Y1003956*
X1256885Y1004378*
X1257112Y1004659*
X1257112D02*
X1257453Y1004800D01*
X1257567*
X1257908Y1004659*
X1258135Y1004378*
X1258249Y1003815*
Y1003112*
X1258135Y1002409*
X1257908Y1001987*
X1257567Y1001846*
X1257340*
X1256999Y1001987*
X1256885Y1002268*
X1253153Y999727D02*
X1253039Y1000008D01*
X1252812Y1000289*
X1252585Y1000430*
X1252130*
X1251903Y1000289*
X1251676Y1000008*
X1251562Y999727*
X1251448Y999305*
Y998602*
X1251562Y998180*
X1251676Y997898*
X1251903Y997617*
X1252130Y997477*
X1252585*
X1252812Y997617*
X1253039Y997898*
X1253153Y998180*
X1255312Y1000430D02*
X1254176Y998461D01*
X1255880*
X1255312Y1000430D02*
Y997477D01*
X1257585Y1000430D02*
X1257244Y1000289D01*
X1257016Y999867*
X1256903Y999164*
Y998742*
X1257016Y998039*
X1257244Y997617*
X1257585Y997477*
X1257812*
X1258153Y997617*
X1258380Y998039*
X1258494Y998742*
Y999164*
X1258380Y999867*
X1258153Y1000289*
X1257812Y1000430*
X1257585*
X1118673Y943184D02*
X1118559Y943466D01*
X1118332Y943747*
X1118105Y943887*
X1117650*
X1117423Y943747*
X1117195Y943466*
X1117082Y943184*
X1116968Y942762*
Y942059*
X1117082Y941637*
X1117195Y941356*
X1117423Y941075*
X1117650Y940934*
X1118105*
X1118332Y941075*
X1118559Y941356*
X1118673Y941637*
X1119695Y943325D02*
X1119923Y943466D01*
X1120264Y943887*
Y940934*
X1121968Y943887D02*
X1121627Y943747D01*
X1121400Y943325*
X1121286Y942622*
Y942200*
X1121400Y941497*
X1121627Y941075*
X1121968Y940934*
X1122195*
X1122536Y941075*
X1122764Y941497*
X1122877Y942200*
Y942622*
X1122764Y943325*
X1122536Y943747*
X1122195Y943887*
X1121968*
X1119184Y963184D02*
X1119070Y963466D01*
X1118843Y963747*
X1118616Y963887*
X1118616D02*
X1118161D01*
X1118161D02*
X1117934Y963747D01*
X1117707Y963466*
X1117593Y963184*
X1117480Y962762*
X1117480D02*
Y962059D01*
X1117593Y961637*
X1117593D02*
X1117707Y961356D01*
X1117934Y961075*
X1118161Y960934*
X1118616*
X1118843Y961075*
X1119070Y961356*
X1119184Y961637*
X1120207Y963325D02*
X1120434Y963466D01*
X1120775Y963887*
X1120775D02*
Y960934D01*
X1121798Y963325D02*
X1122025Y963466D01*
X1122366Y963887*
X1122366D02*
Y960934D01*
X1119448Y949239D02*
X1119166Y949125D01*
X1118885Y948898*
X1118745Y948671*
Y948216*
X1118885Y947989*
X1119166Y947762*
X1119448Y947648*
X1119870Y947534*
X1120573*
X1120995Y947648*
X1121276Y947762*
X1121557Y947989*
X1121698Y948216*
Y948671*
X1121557Y948898*
X1121276Y949125*
X1120995Y949239*
X1118745Y950262D02*
X1121698D01*
X1118745D02*
Y951284D01*
X1118885Y951625*
X1119026Y951739*
X1119307Y951853*
X1119588*
X1119870Y951739*
X1120010Y951625*
X1120151Y951284*
Y950262*
Y951057D02*
X1121698Y951853D01*
X1118745Y952875D02*
X1120151Y953784D01*
X1121698*
X1118745Y954693D02*
X1120151Y953784D01*
X1119307Y955716D02*
X1119166Y955943D01*
X1118745Y956284*
X1121698*
X1192708Y913717D02*
X1192427Y913604D01*
X1192145Y913376*
X1192005Y913149*
Y912694*
X1192145Y912467*
X1192427Y912240*
X1192708Y912126*
X1193130Y912013*
X1193833*
X1194255Y912126*
X1194536Y912240*
X1194817Y912467*
X1194958Y912694*
Y913149*
X1194817Y913376*
X1194536Y913604*
X1194255Y913717*
X1192989Y916217D02*
X1193411Y916104D01*
X1193692Y915876*
X1193833Y915535*
Y915422*
X1193692Y915081*
X1193411Y914854*
X1192989Y914740*
X1192848*
X1192427Y914854*
X1192145Y915081*
X1192005Y915422*
Y915535*
X1192145Y915876*
X1192427Y916104*
X1192989Y916217*
X1193692*
X1194395Y916104*
X1194817Y915876*
X1194958Y915535*
Y915308*
X1194817Y914967*
X1194536Y914854*
X1182868Y926092D02*
X1182755Y926373D01*
X1182527Y926655*
X1182300Y926795*
X1181845*
X1181618Y926655*
X1181391Y926373*
X1181277Y926092*
X1181164Y925670*
Y924967*
X1181277Y924545*
X1181391Y924264*
X1181618Y923983*
X1181845Y923842*
X1182300*
X1182527Y923983*
X1182755Y924264*
X1182868Y924545*
X1184459Y926795D02*
X1184118Y926655D01*
X1184005Y926373*
Y926092*
X1184118Y925811*
X1184345Y925670*
X1184800Y925530*
X1185141Y925389*
X1185368Y925108*
X1185482Y924827*
Y924405*
X1185368Y924123*
X1185255Y923983*
X1184914Y923842*
X1184459*
X1184118Y923983*
X1184005Y924123*
X1183891Y924405*
Y924827*
X1184005Y925108*
X1184232Y925389*
X1184573Y925530*
X1185027Y925670*
X1185255Y925811*
X1185368Y926092*
Y926373*
X1185255Y926655*
X1184914Y926795*
X1184459*
X1181450Y921803D02*
Y918850D01*
Y921803D02*
X1182927D01*
X1181450Y920397D02*
X1182359D01*
X1183950Y921803D02*
Y918850D01*
Y921803D02*
X1184973D01*
X1185314Y921663*
X1185314D02*
X1185427Y921522D01*
X1185541Y921241*
Y920959*
X1185427Y920678*
X1185314Y920538*
X1185314D02*
X1184973Y920397D01*
X1183950D02*
X1184973D01*
X1185314Y920256*
X1185427Y920116*
X1185541Y919834*
Y919413*
X1185541D02*
X1185427Y919131D01*
X1185314Y918991*
X1184973Y918850*
X1183950*
X1186564Y921241D02*
X1186791Y921381D01*
X1187132Y921803*
Y918850*
X1182905Y915500D02*
X1182791Y915813D01*
X1182791D02*
X1182564Y916125D01*
X1182336Y916281*
X1181882*
X1181655Y916125*
X1181427Y915813*
X1181427D02*
X1181314Y915500D01*
X1181200Y915031*
Y914250*
X1181314Y913781*
X1181427Y913469*
X1181655Y913156*
X1181882Y913000*
X1182336*
X1182564Y913156*
X1182791Y913469*
X1182905Y913781*
X1184155Y916281D02*
X1185405D01*
X1184723Y915031*
X1185064*
X1185291Y914875*
X1185405Y914719*
X1185518Y914250*
Y913938*
X1185518D02*
X1185405Y913469D01*
X1185177Y913156*
X1184836Y913000*
X1184495*
X1184155Y913156*
X1184041Y913313*
X1184041D02*
X1183927Y913625D01*
X1188132Y916281D02*
X1186995Y913000D01*
X1186541Y916281D02*
X1188132D01*
X1249132Y960988D02*
Y958034D01*
Y960988D02*
X1250155D01*
X1250155D02*
X1250495Y960847D01*
X1250609Y960706*
X1250723Y960425*
Y960144*
X1250609Y959863*
X1250609D02*
X1250495Y959722D01*
X1250155Y959581*
X1249132*
X1249927D02*
X1250723Y958034D01*
X1251745Y960425D02*
X1251973Y960566D01*
X1252314Y960988*
X1252314D02*
Y958034D01*
X1254814Y960003D02*
X1254700Y959581D01*
X1254473Y959300*
X1254132Y959159*
X1254018*
X1253677Y959300*
X1253450Y959581*
X1253336Y960003*
Y960144*
X1253450Y960566*
X1253677Y960847*
X1254018Y960988*
X1254018D02*
X1254132D01*
X1254132D02*
X1254473Y960847D01*
X1254700Y960566*
X1254814Y960003*
Y959300*
X1254700Y958597*
X1254473Y958175*
X1254132Y958034*
X1253905*
X1253564Y958175*
X1253450Y958456*
X1305817Y919234D02*
X1308770D01*
X1305817D02*
Y920257D01*
X1305958Y920598*
X1306099Y920712*
X1306380Y920825*
X1306661*
X1306942Y920712*
X1307083Y920598*
X1307224Y920257*
Y919234*
Y920030D02*
X1308770Y920825D01*
X1305817Y922416D02*
X1305958Y922075D01*
X1306239Y921962*
X1306520*
X1306802Y922075*
X1306942Y922303*
X1307083Y922757*
X1307224Y923098*
X1307505Y923325*
X1307786Y923439*
X1308208*
X1308489Y923325*
X1308630Y923212*
X1308770Y922871*
Y922416*
X1308630Y922075*
X1308489Y921962*
X1308208Y921848*
X1307786*
X1307505Y921962*
X1307224Y922189*
X1307083Y922530*
X1306942Y922984*
X1306802Y923212*
X1306520Y923325*
X1306239*
X1305958Y923212*
X1305817Y922871*
Y922416*
X1111912Y960370D02*
X1114022D01*
X1114444Y960484*
X1114725Y960711*
X1114866Y961052*
Y961280*
X1114725Y961620*
X1114444Y961848*
X1114022Y961961*
X1111912*
Y963211D02*
Y964461D01*
X1111912D02*
X1113037Y963780D01*
X1113037D02*
Y964120D01*
X1113037D02*
X1113178Y964348D01*
X1113319Y964461*
X1113741Y964575*
X1114022*
X1114444Y964461*
X1114725Y964234*
X1114866Y963893*
Y963552*
X1114725Y963211*
X1114584Y963098*
X1114303Y962984*
X1159870Y931588D02*
Y929478D01*
X1159984Y929056*
X1160211Y928775*
X1160552Y928634*
X1160780*
X1161120Y928775*
X1161348Y929056*
X1161461Y929478*
Y931588*
X1162598Y930884D02*
Y931025D01*
X1162711Y931306*
X1162825Y931447*
X1163052Y931588*
X1163052D02*
X1163507D01*
X1163507D02*
X1163734Y931447D01*
X1163848Y931306*
X1163961Y931025*
Y930744*
X1163848Y930463*
X1163848D02*
X1163620Y930041D01*
X1162484Y928634*
X1164075*
X1339721Y1005494D02*
X1343002D01*
X1339721D02*
Y1006516D01*
X1339877Y1006857*
X1340034Y1006971*
X1340346Y1007085*
X1340659*
X1340971Y1006971*
X1341127Y1006857*
X1341284Y1006516*
Y1005494*
Y1006289D02*
X1343002Y1007085D01*
X1339721Y1009244D02*
X1342221D01*
X1342690Y1009130*
X1342846Y1009016*
X1343002Y1008789*
Y1008562*
X1342846Y1008335*
X1342690Y1008221*
X1342221Y1008107*
X1341909*
X1340346Y1010266D02*
X1340190Y1010494D01*
X1339721Y1010835*
X1343002*
X1270850Y1021203D02*
Y1018250D01*
Y1021203D02*
X1271873D01*
X1272214Y1021063*
X1272214D02*
X1272327Y1020922D01*
X1272441Y1020641*
Y1020359*
X1272327Y1020078*
X1272214Y1019938*
X1272214D02*
X1271873Y1019797D01*
X1270850*
X1271645D02*
X1272441Y1018250D01*
X1273464Y1021203D02*
Y1018250D01*
Y1021203D02*
X1274941D01*
X1273464Y1019797D02*
X1274373D01*
X1273464Y1018250D02*
X1274941D01*
X1277555Y1020781D02*
X1277327Y1021063D01*
X1277327D02*
X1276986Y1021203D01*
X1276532*
X1276191Y1021063*
X1276191D02*
X1275964Y1020781D01*
Y1020500*
X1276077Y1020219*
X1276191Y1020078*
X1276418Y1019938*
X1276418D02*
X1277100Y1019656D01*
X1277327Y1019516*
X1277441Y1019375*
X1277555Y1019094*
Y1018672*
X1277327Y1018391*
X1276986Y1018250*
X1276532*
X1276191Y1018391*
X1275964Y1018672*
X1278577Y1021203D02*
Y1018250D01*
Y1021203D02*
X1280055D01*
X1278577Y1019797D02*
X1279486D01*
X1278577Y1018250D02*
X1280055D01*
X1281873Y1021203D02*
Y1018250D01*
X1281077Y1021203D02*
X1282668D01*
X1248975Y966688D02*
Y963734D01*
Y966688D02*
X1249998D01*
X1249998D02*
X1250339Y966547D01*
X1250452Y966406*
X1250566Y966125*
Y965844*
X1250452Y965563*
X1250452D02*
X1250339Y965422D01*
X1249998Y965281*
X1248975*
X1249770D02*
X1250566Y963734D01*
X1251589Y966125D02*
X1251816Y966266D01*
X1252157Y966688*
X1252157D02*
Y963734D01*
X1253748Y966688D02*
X1253407Y966547D01*
X1253293Y966266*
Y965984*
X1253407Y965703*
X1253634Y965563*
X1253634D02*
X1254089Y965422D01*
X1254430Y965281*
X1254657Y965000*
X1254770Y964719*
Y964297*
X1254657Y964016*
X1254543Y963875*
X1254202Y963734*
X1253748*
X1253407Y963875*
X1253293Y964016*
X1253180Y964297*
Y964719*
X1253293Y965000*
X1253520Y965281*
X1253861Y965422*
X1254316Y965563*
X1254316D02*
X1254543Y965703D01*
X1254657Y965984*
Y966266*
X1254543Y966547*
X1254202Y966688*
X1254202D02*
X1253748D01*
X1184555Y904300D02*
X1184441Y904581D01*
X1184214Y904863*
X1183986Y905003*
X1183532*
X1183305Y904863*
X1183077Y904581*
X1182964Y904300*
X1182850Y903878*
Y903175*
X1182964Y902753*
X1183077Y902472*
X1183305Y902191*
X1183532Y902050*
X1183986*
X1184214Y902191*
X1184441Y902472*
X1184555Y902753*
X1185577Y904441D02*
X1185805Y904581D01*
X1186145Y905003*
Y902050*
X1188305Y905003D02*
X1187168Y903034D01*
X1188873*
X1188305Y905003D02*
Y902050D01*
X1183050Y898703D02*
Y895750D01*
Y898703D02*
X1184527D01*
X1183050Y897297D02*
X1183959D01*
X1183050Y895750D02*
X1184527D01*
X1187141Y898281D02*
X1186914Y898563D01*
X1186914D02*
X1186573Y898703D01*
X1186118*
X1185777Y898563*
X1185777D02*
X1185550Y898281D01*
Y898000*
X1185664Y897719*
X1185777Y897578*
X1186005Y897438*
X1186005D02*
X1186686Y897156D01*
X1186914Y897016*
X1187027Y896875*
X1187141Y896594*
Y896172*
X1186914Y895891*
X1186573Y895750*
X1186118*
X1185777Y895891*
X1185550Y896172*
X1188164Y898703D02*
Y895750D01*
Y898703D02*
X1188959D01*
X1189300Y898563*
X1189300D02*
X1189527Y898281D01*
X1189641Y898000*
X1189755Y897578*
Y896875*
X1189641Y896453*
X1189527Y896172*
X1189300Y895891*
X1188959Y895750*
X1188164*
X1190777Y898141D02*
X1191005Y898281D01*
X1191345Y898703*
Y895750*
X1251294Y996208D02*
Y993255D01*
Y996208D02*
X1252317D01*
X1252658Y996068*
X1252772Y995927*
X1252885Y995646*
Y995365*
X1252772Y995083*
X1252658Y994943*
X1252317Y994802*
X1251294*
X1252090D02*
X1252885Y993255D01*
X1254022Y995505D02*
Y995646D01*
X1254135Y995927*
X1254249Y996068*
X1254476Y996208*
X1254931*
X1255158Y996068*
X1255272Y995927*
X1255385Y995646*
Y995365*
X1255272Y995083*
X1255044Y994661*
X1253908Y993255*
X1255499*
X1257204Y996208D02*
X1256863Y996068D01*
X1256635Y995646*
X1256522Y994943*
Y994521*
X1256635Y993818*
X1256863Y993396*
X1257204Y993255*
X1257431*
X1257772Y993396*
X1257999Y993818*
X1258113Y994521*
Y994943*
X1257999Y995646*
X1257772Y996068*
X1257431Y996208*
X1257204*
X1209275Y950788D02*
Y947834D01*
Y950788D02*
X1210298D01*
X1210298D02*
X1210639Y950647D01*
X1210752Y950506*
X1210866Y950225*
Y949944*
X1210752Y949663*
X1210752D02*
X1210639Y949522D01*
X1210298Y949381*
X1209275*
X1210070D02*
X1210866Y947834D01*
X1212002Y950084D02*
Y950225D01*
X1212116Y950506*
X1212230Y950647*
X1212457Y950788*
X1212457D02*
X1212911D01*
X1212911D02*
X1213139Y950647D01*
X1213252Y950506*
X1213366Y950225*
Y949944*
X1213252Y949663*
X1213252D02*
X1213025Y949241D01*
X1211889Y947834*
X1213480*
X1214502Y950225D02*
X1214730Y950366D01*
X1215070Y950788*
X1215070D02*
Y947834D01*
X1251547Y992307D02*
Y989353D01*
Y992307D02*
X1252569D01*
X1252910Y992166*
X1253024Y992025*
X1253138Y991744*
X1253138D02*
Y991463D01*
X1253138D02*
X1253024Y991182D01*
X1252910Y991041*
X1252569Y990900*
X1251547*
X1252342D02*
X1253138Y989353D01*
X1254274Y991603D02*
Y991744D01*
X1254388Y992025*
X1254388D02*
X1254501Y992166D01*
X1254728Y992307*
X1255183*
X1255410Y992166*
X1255524Y992025*
X1255638Y991744*
X1255638D02*
Y991463D01*
X1255638D02*
X1255524Y991182D01*
X1255297Y990760*
X1254160Y989353*
X1255751*
X1256888Y991603D02*
Y991744D01*
X1256888D02*
X1257001Y992025D01*
X1257115Y992166*
X1257342Y992307*
X1257797*
X1258024Y992166*
X1258138Y992025*
X1258138D02*
X1258251Y991744D01*
Y991463*
X1258138Y991182*
X1258138D02*
X1257910Y990760D01*
X1256774Y989353*
X1258365*
X1251429Y987915D02*
Y984962D01*
Y987915D02*
X1252451D01*
X1252792Y987774*
X1252906Y987634*
X1253019Y987353*
Y987071*
X1252906Y986790*
X1252792Y986649*
X1252451Y986509*
X1251429*
X1252224D02*
X1253019Y984962D01*
X1254156Y987212D02*
Y987353D01*
X1254269Y987634*
X1254383Y987774*
X1254610Y987915*
X1255065*
X1255292Y987774*
X1255406Y987634*
X1255519Y987353*
Y987071*
X1255406Y986790*
X1255179Y986368*
X1254042Y984962*
X1255633*
X1256883Y987915D02*
X1258133D01*
X1257451Y986790*
X1257792*
X1258019Y986649*
X1258133Y986509*
X1258247Y986087*
Y985806*
X1258133Y985384*
X1257906Y985103*
X1257565Y984962*
X1257224*
X1256883Y985103*
X1256769Y985243*
X1256656Y985524*
X1226007Y1006187D02*
Y1003234D01*
Y1006187D02*
X1227030D01*
X1227030D02*
X1227370Y1006047D01*
X1227484Y1005906*
X1227598Y1005625*
Y1005344*
X1227484Y1005062*
X1227484D02*
X1227370Y1004922D01*
X1227030Y1004781*
X1226007*
X1226802D02*
X1227598Y1003234D01*
X1228734Y1005484D02*
Y1005625D01*
X1228848Y1005906*
X1228961Y1006047*
X1229189Y1006187*
X1229189D02*
X1229643D01*
X1229643D02*
X1229870Y1006047D01*
X1229984Y1005906*
X1230098Y1005625*
Y1005344*
X1229984Y1005062*
X1229984D02*
X1229757Y1004641D01*
X1228620Y1003234*
X1230211*
X1232711Y1006187D02*
X1231575D01*
X1231575D02*
X1231461Y1004922D01*
X1231575Y1005062*
X1231575D02*
X1231916Y1005203D01*
X1232257*
X1232598Y1005062*
X1232598D02*
X1232825Y1004781D01*
X1232939Y1004359*
X1232825Y1004078*
X1232711Y1003656*
X1232484Y1003375*
X1232143Y1003234*
X1231802*
X1231461Y1003375*
X1231348Y1003516*
X1231234Y1003797*
X1090306Y1006166D02*
X1089994Y1006052D01*
X1089681Y1005825*
X1089525Y1005598*
Y1005143*
X1089681Y1004916*
X1089994Y1004689*
X1090306Y1004575*
X1090775Y1004461*
X1091556*
X1092025Y1004575*
X1092337Y1004689*
X1092650Y1004916*
X1092806Y1005143*
Y1005598*
X1092650Y1005825*
X1092337Y1006052*
X1092025Y1006166*
X1089525Y1008325D02*
X1091712Y1007189D01*
Y1008893*
X1089525Y1008325D02*
X1092806D01*
X1090150Y1009916D02*
X1089994Y1010143D01*
X1089525Y1010484*
X1092806*
X1249200Y1018181D02*
Y1014900D01*
Y1018181D02*
X1250109Y1014900D01*
X1251018Y1018181D02*
X1250109Y1014900D01*
X1251018Y1018181D02*
Y1014900D01*
X1252155Y1017400D02*
Y1017556D01*
X1252268Y1017869*
X1252382Y1018025*
X1252609Y1018181*
X1253064*
X1253291Y1018025*
X1253405Y1017869*
X1253518Y1017556*
Y1017244*
X1253405Y1016931*
X1253177Y1016463*
X1253177D02*
X1252041Y1014900D01*
X1253632*
X1048470Y926375D02*
Y924031D01*
X1048584Y923562*
X1048584D02*
X1048811Y923250D01*
X1049152Y923094*
X1049380*
X1049720Y923250*
X1049948Y923562*
X1049948D02*
X1050061Y924031D01*
Y926375*
X1052675D02*
X1051539Y923094D01*
X1051084Y926375D02*
X1052675D01*
X1221759Y905203D02*
X1220850Y902250D01*
X1221759Y905203D02*
X1222668Y902250D01*
X1221191Y903234D02*
X1222327D01*
X1223397Y904350D02*
X1226350D01*
X1223397D02*
Y905145D01*
X1223537Y905486*
X1223537D02*
X1223819Y905714D01*
X1224100Y905827*
X1224522Y905941*
X1225225*
X1225647Y905827*
X1225928Y905714*
X1226209Y905486*
X1226350Y905145*
Y904350*
X1223959Y906964D02*
X1223819Y907191D01*
X1223397Y907532*
X1226350*
X1227497Y904450D02*
X1230450D01*
X1227497D02*
Y905473D01*
X1227637Y905814*
X1227637D02*
X1227778Y905927D01*
X1228059Y906041*
X1228341*
X1228622Y905927*
X1228762Y905814*
X1228762D02*
X1228903Y905473D01*
Y904450*
Y905245D02*
X1230450Y906041D01*
X1227919Y908427D02*
X1227637Y908314D01*
X1227637D02*
X1227497Y907973D01*
Y907745*
X1227637Y907405*
X1227637D02*
X1228059Y907177D01*
X1228762Y907064*
X1228762D02*
X1229466D01*
X1230028Y907177*
X1230309Y907405*
X1230450Y907745*
Y907859*
X1230309Y908200*
X1230028Y908427*
X1229606Y908541*
X1229466*
X1229044Y908427*
X1228762Y908200*
X1228762D02*
X1228622Y907859D01*
Y907745*
X1228762Y907405*
X1228762D02*
X1229044Y907177D01*
X1229466Y907064*
X1232400Y905805D02*
X1232087Y905691D01*
X1232087D02*
X1231775Y905464D01*
X1231619Y905236*
Y904782*
X1231775Y904555*
X1232087Y904327*
X1232087D02*
X1232400Y904214D01*
X1232869Y904100*
X1233650*
X1234119Y904214*
X1234431Y904327*
X1234744Y904555*
X1234900Y904782*
Y905236*
X1234744Y905464*
X1234431Y905691*
X1234119Y905805*
X1232244Y906827D02*
X1232087Y907055D01*
X1232087D02*
X1231619Y907395D01*
X1234900*
X1232087Y909782D02*
X1231775Y909668D01*
X1231619Y909327*
Y909100*
X1231775Y908759*
X1232244Y908532*
X1233025Y908418*
X1233806*
X1234431Y908532*
X1234744Y908759*
X1234900Y909100*
Y909214*
X1234744Y909555*
X1234431Y909782*
X1233962Y909895*
X1233962D02*
X1233806D01*
X1233337Y909782*
X1233337D02*
X1233025Y909555D01*
X1232869Y909214*
Y909100*
X1233025Y908759*
X1233337Y908532*
X1233337D02*
X1233806Y908418D01*
X1236500Y905855D02*
X1236219Y905741D01*
X1235937Y905514*
X1235937D02*
X1235797Y905286D01*
Y904832*
X1235937Y904605*
X1235937D02*
X1236219Y904377D01*
X1236500Y904264*
X1236922Y904150*
X1237625*
X1238047Y904264*
X1238328Y904377*
X1238609Y904605*
X1238750Y904832*
Y905286*
X1238609Y905514*
X1238328Y905741*
X1238047Y905855*
X1236359Y906877D02*
X1236219Y907105D01*
X1235797Y907445*
X1238750*
X1235797Y909945D02*
Y908809D01*
X1237062Y908695*
X1237062D02*
X1236922Y908809D01*
X1236781Y909150*
Y909491*
X1236922Y909832*
X1237203Y910059*
X1237625Y910173*
X1237906Y910059*
X1238328Y909945*
X1238609Y909718*
X1238750Y909377*
Y909036*
X1238609Y908695*
X1238469Y908582*
X1238187Y908468*
X1219419Y911900D02*
X1222700D01*
X1219419D02*
Y912923D01*
X1219575Y913264*
X1219731Y913377*
X1220044Y913491*
X1220356*
X1220669Y913377*
X1220825Y913264*
X1220981Y912923*
Y911900*
Y912695D02*
X1222700Y913491D01*
X1220512Y915991D02*
X1220981Y915877D01*
X1221294Y915650*
X1221450Y915309*
Y915195*
X1221294Y914855*
X1220981Y914627*
X1220512Y914514*
X1220512D02*
X1220356D01*
X1219887Y914627*
X1219887D02*
X1219575Y914855D01*
X1219419Y915195*
Y915309*
X1219575Y915650*
X1219887Y915877*
X1219887D02*
X1220512Y915991D01*
X1220512D02*
X1221294D01*
X1222075Y915877*
X1222544Y915650*
X1222700Y915309*
Y915082*
X1222544Y914741*
X1222231Y914627*
X1231519Y911700D02*
X1234800D01*
X1231519D02*
Y912723D01*
X1231675Y913064*
X1231831Y913177*
X1232144Y913291*
X1232456*
X1232769Y913177*
X1232925Y913064*
X1233081Y912723*
Y911700*
Y912495D02*
X1234800Y913291D01*
X1232144Y914314D02*
X1231987Y914541D01*
X1231987D02*
X1231519Y914882D01*
X1234800*
X1232144Y915905D02*
X1231987Y916132D01*
X1231987D02*
X1231519Y916473D01*
X1234800*
X1235319Y911700D02*
X1238600D01*
X1235319D02*
Y912723D01*
X1235475Y913064*
X1235631Y913177*
X1235944Y913291*
X1236256*
X1236569Y913177*
X1236725Y913064*
X1236881Y912723*
Y911700*
Y912495D02*
X1238600Y913291D01*
X1235944Y914314D02*
X1235787Y914541D01*
X1235787D02*
X1235319Y914882D01*
X1238600*
X1235319Y916132D02*
Y917382D01*
X1236569Y916700*
Y917041*
X1236725Y917268*
X1236881Y917382*
X1237350Y917495*
X1237662*
X1237662D02*
X1238131Y917382D01*
X1238444Y917155*
X1238600Y916814*
Y916473*
X1238444Y916132*
X1238287Y916018*
X1238287D02*
X1237975Y915905D01*
X1223519Y911800D02*
X1226800D01*
X1223519D02*
Y912823D01*
X1223675Y913164*
X1223831Y913277*
X1224144Y913391*
X1224456*
X1224769Y913277*
X1224925Y913164*
X1225081Y912823*
Y911800*
Y912595D02*
X1226800Y913391D01*
X1224144Y914414D02*
X1223987Y914641D01*
X1223987D02*
X1223519Y914982D01*
X1226800*
X1223519Y916686D02*
X1223675Y916345D01*
X1224144Y916118*
X1224925Y916005*
X1225394*
X1226175Y916118*
X1226644Y916345*
X1226800Y916686*
Y916914*
X1226644Y917255*
X1226175Y917482*
X1225394Y917595*
X1224925*
X1224144Y917482*
X1223675Y917255*
X1223519Y916914*
Y916686*
X1227619Y911600D02*
X1230900D01*
X1227619D02*
Y912623D01*
X1227775Y912964*
X1227931Y913077*
X1228244Y913191*
X1228556*
X1228869Y913077*
X1229025Y912964*
X1229181Y912623*
Y911600*
Y912395D02*
X1230900Y913191D01*
X1228244Y914214D02*
X1228087Y914441D01*
X1228087D02*
X1227619Y914782D01*
X1230900*
X1228400Y915918D02*
X1228244D01*
X1227931Y916032*
X1227775Y916145*
X1227619Y916373*
Y916827*
X1227775Y917055*
X1227931Y917168*
X1228244Y917282*
X1228556*
X1228869Y917168*
X1229337Y916941*
X1229337D02*
X1230900Y915805D01*
Y917395*
X1239119Y911700D02*
X1242400D01*
X1239119D02*
Y912723D01*
X1239275Y913064*
X1239431Y913177*
X1239744Y913291*
X1240056*
X1240369Y913177*
X1240525Y913064*
X1240681Y912723*
Y911700*
Y912495D02*
X1242400Y913291D01*
X1239744Y914314D02*
X1239587Y914541D01*
X1239587D02*
X1239119Y914882D01*
X1242400*
X1239119Y917041D02*
X1241306Y915905D01*
Y917609*
X1239119Y917041D02*
X1242400D01*
X1113659Y918203D02*
X1112750Y915250D01*
X1113659Y918203D02*
X1114568Y915250D01*
X1113091Y916234D02*
X1114227D01*
X1062645Y1009900D02*
X1062509Y1010275D01*
X1062236Y1010650*
X1061964Y1010838*
X1061964D02*
X1061418D01*
X1061418D02*
X1061145Y1010650D01*
X1060873Y1010275*
X1060736Y1009900*
X1060600Y1009338*
X1060600D02*
Y1008400D01*
X1060736Y1007838*
X1060736D02*
X1060873Y1007463D01*
X1060873D02*
X1061145Y1007088D01*
X1061145D02*
X1061418Y1006900D01*
X1061964*
X1062236Y1007088*
X1062236D02*
X1062509Y1007463D01*
X1062509D02*
X1062645Y1007838D01*
X1062645D02*
Y1008400D01*
X1061964D02*
X1062645D01*
X1063873Y1010838D02*
Y1006900D01*
Y1010838D02*
X1065100D01*
X1065100D02*
X1065509Y1010650D01*
X1065645Y1010463*
X1065645D02*
X1065782Y1010088D01*
X1065782D02*
Y1009525D01*
X1065645Y1009150*
X1065509Y1008963*
X1065509D02*
X1065100Y1008775D01*
X1063873*
X1067009Y1010838D02*
Y1006900D01*
Y1010838D02*
X1068236D01*
X1068236D02*
X1068645Y1010650D01*
X1068782Y1010463*
X1068782D02*
X1068918Y1010088D01*
X1068918D02*
Y1009713D01*
X1068918D02*
X1068782Y1009338D01*
X1068782D02*
X1068645Y1009150D01*
X1068236Y1008963*
X1068236D02*
X1067009D01*
X1067964D02*
X1068918Y1006900D01*
X1072055Y1010275D02*
X1071782Y1010650D01*
X1071373Y1010838*
X1071373D02*
X1070827D01*
X1070827D02*
X1070418Y1010650D01*
X1070145Y1010275*
Y1009900*
X1070282Y1009525*
X1070418Y1009338*
X1070418D02*
X1070691Y1009150D01*
X1071509Y1008775*
X1071782Y1008588*
X1071782D02*
X1071918Y1008400D01*
X1072055Y1008025*
Y1007463*
X1072055D02*
X1071782Y1007088D01*
X1071782D02*
X1071373Y1006900D01*
X1070827*
X1070418Y1007088*
X1070418D02*
X1070145Y1007463D01*
X1063400Y926138D02*
X1064082Y922200D01*
X1064764Y926138D02*
X1064082Y922200D01*
X1064764Y926138D02*
X1065445Y922200D01*
X1066127Y926138D02*
X1065445Y922200D01*
X1067355Y926138D02*
Y922200D01*
X1068582Y926138D02*
Y922200D01*
Y926138D02*
X1070355D01*
X1068582Y924263D02*
X1069673D01*
X1071582Y926138D02*
Y922200D01*
G54D131*
X1146335Y994665D02*
X1200665D01*
Y940335*
X1146335*
Y994665*
X1171531Y967500D02*
X1173500D01*
Y969469*
Y965531D02*
Y967500D01*
X1175469*
G54D132*
X1147122Y993878D02*
X1150272D01*
X1147122Y990728*
Y993878*
G54D134*
X1220961Y985377D02*
G03X1220961I-473J0D01*
G54D135*
G01X1223146Y984688D02*
X1221374Y986459D01*
X1222949Y984688D02*
X1221374Y986263D01*
X1222752Y984688D02*
X1221374Y986066D01*
Y984688D02*
Y986656D01*
X1223343Y984688*
X1221374*
X1222359D02*
X1221374Y985672D01*
X1222555Y984688D02*
X1221374Y985869D01*
X1221965Y984688D02*
X1221374Y985278D01*
X1221768Y984688D02*
X1221374Y985081D01*
X1221571Y984688D02*
X1221374Y984885D01*
X1222162Y984688D02*
X1221374Y985475D01*
G54D136*
X1111550Y977222D02*
X1114699D01*
X1113125Y973678*
X1111550Y977222*
G54D137*
X1168694Y900350D02*
X1178930D01*
Y894050*
X1168694*
Y900350*
X1175662Y899090D02*
Y895231D01*
X1175347Y897279D02*
X1173772Y898854D01*
Y895546*
X1175387Y897161*
G54D138*
X1250200Y908900D02*
X1252961D01*
X1261417D02*
X1263968D01*
X1272424D02*
X1275185D01*
X1249781Y909005D02*
X1253590D01*
X1260893D02*
X1264597D01*
X1272005D02*
X1275814D01*
X1249257Y909110D02*
X1254219D01*
X1260369D02*
X1265226D01*
X1271481D02*
X1276443D01*
X1248942Y909214D02*
X1254743D01*
X1260054D02*
X1265750D01*
X1271166D02*
X1276862D01*
X1248628Y909319D02*
X1255162D01*
X1259740D02*
X1266169D01*
X1270852D02*
X1277386D01*
X1248313Y909424D02*
X1255581D01*
X1259425D02*
X1266694D01*
X1270537D02*
X1277806D01*
X1248313Y909529D02*
X1251493D01*
X1252506D02*
X1255686D01*
X1259320D02*
X1262395D01*
X1263094D02*
X1266694D01*
X1270537D02*
X1273088D01*
X1274207D02*
X1277911D01*
X1248103Y909634D02*
X1250445D01*
X1253659D02*
X1256001D01*
X1259216D02*
X1261242D01*
X1264352D02*
X1267008D01*
X1270328D02*
X1272145D01*
X1275360D02*
X1278225D01*
X1247999Y909739D02*
X1249920D01*
X1254288D02*
X1256315D01*
X1259006D02*
X1260823D01*
X1265086D02*
X1267323D01*
X1270118D02*
X1271621D01*
X1275989D02*
X1278540D01*
X1247789Y909843D02*
X1249606D01*
X1254813D02*
X1256630D01*
X1258796D02*
X1260404D01*
X1265610D02*
X1267637D01*
X1270013D02*
X1271201D01*
X1276513D02*
X1278854D01*
X1247579Y909948D02*
X1249291D01*
X1255232D02*
X1256944D01*
X1258691D02*
X1260089D01*
X1266030D02*
X1267952D01*
X1269804D02*
X1270992D01*
X1276932D02*
X1279169D01*
X1247370Y910053D02*
X1248977D01*
X1250514D02*
X1253170D01*
X1255651D02*
X1257259D01*
X1258482D02*
X1259775D01*
X1261417D02*
X1263968D01*
X1266449D02*
X1268266D01*
X1269594D02*
X1270677D01*
X1272215D02*
X1274870D01*
X1277351D02*
X1279483D01*
X1247265Y910158D02*
X1248767D01*
X1249990D02*
X1253904D01*
X1255966D02*
X1257573D01*
X1258377D02*
X1259565D01*
X1260788D02*
X1264702D01*
X1266763D02*
X1268581D01*
X1269489D02*
X1270468D01*
X1271691D02*
X1275604D01*
X1277666D02*
X1279798D01*
X1247265Y910263D02*
X1248558D01*
X1249571D02*
X1254428D01*
X1256280D02*
X1257573D01*
X1258377D02*
X1259355D01*
X1260369D02*
X1265226D01*
X1267078D02*
X1268581D01*
X1269489D02*
X1270258D01*
X1271271D02*
X1276128D01*
X1277980D02*
X1279798D01*
X1247160Y910368D02*
X1248348D01*
X1249257D02*
X1250445D01*
X1253135D02*
X1254848D01*
X1256595D02*
X1257783D01*
X1258272D02*
X1259250D01*
X1260054D02*
X1261347D01*
X1263828D02*
X1265645D01*
X1267392D02*
X1268895D01*
X1269384D02*
X1270048D01*
X1270957D02*
X1272145D01*
X1274836D02*
X1276548D01*
X1278295D02*
X1280007D01*
X1247055Y910472D02*
X1248243D01*
X1248942D02*
X1249920D01*
X1250095D02*
X1250445D01*
X1253869D02*
X1255267D01*
X1256909D02*
X1259041D01*
X1259845D02*
X1260718D01*
X1264562D02*
X1266065D01*
X1267707D02*
X1269105D01*
X1269279D02*
X1269943D01*
X1270642D02*
X1271621D01*
X1275569D02*
X1276967D01*
X1278609D02*
X1280217D01*
X1246950Y910577D02*
X1248033D01*
X1248732D02*
X1249501D01*
X1250200D02*
X1250549D01*
X1254393D02*
X1255686D01*
X1257224D02*
X1258936D01*
X1259530D02*
X1260299D01*
X1265191D02*
X1266484D01*
X1268021D02*
X1269734D01*
X1270433D02*
X1271201D01*
X1276094D02*
X1277386D01*
X1278924D02*
X1280531D01*
X1246845Y910682D02*
X1247929D01*
X1248523D02*
X1249187D01*
X1250305D02*
X1250654D01*
X1254813D02*
X1256001D01*
X1257433D02*
X1258726D01*
X1259320D02*
X1259984D01*
X1265610D02*
X1266798D01*
X1268231D02*
X1269629D01*
X1270223D02*
X1270887D01*
X1276513D02*
X1277701D01*
X1279134D02*
X1280741D01*
X1246741Y910787D02*
X1247824D01*
X1248313D02*
X1248872D01*
X1250410D02*
X1250759D01*
X1255232D02*
X1256315D01*
X1257748D02*
X1258622D01*
X1259111D02*
X1259670D01*
X1266030D02*
X1267113D01*
X1268546D02*
X1269524D01*
X1270013D02*
X1270572D01*
X1276932D02*
X1278015D01*
X1279448D02*
X1281056D01*
X1246636Y910892D02*
X1247719D01*
X1248208D02*
X1248662D01*
X1250514D02*
X1250864D01*
X1255651D02*
X1256630D01*
X1257958D02*
X1258517D01*
X1259006D02*
X1259460D01*
X1266449D02*
X1267427D01*
X1268755D02*
X1269419D01*
X1269908D02*
X1270363D01*
X1277351D02*
X1278330D01*
X1279658D02*
X1281056D01*
X1246636Y910997D02*
X1247614D01*
X1247999D02*
X1248453D01*
X1250619D02*
X1250969D01*
X1255966D02*
X1256944D01*
X1258167D02*
X1258412D01*
X1258796D02*
X1259250D01*
X1266763D02*
X1267742D01*
X1268965D02*
X1269314D01*
X1269699D02*
X1270153D01*
X1277666D02*
X1278644D01*
X1279867D02*
X1281265D01*
X1246531Y911101D02*
X1247509D01*
X1247894D02*
X1248558D01*
X1250724D02*
X1250969D01*
X1256280D02*
X1257154D01*
X1258691D02*
X1259041D01*
X1267078D02*
X1267952D01*
X1269594D02*
X1269943D01*
X1277980D02*
X1278854D01*
X1280182D02*
X1281475D01*
X1246531Y911206D02*
X1247404D01*
X1247789D02*
X1248033D01*
X1248208D02*
X1248662D01*
X1250724D02*
X1251074D01*
X1256595D02*
X1257468D01*
X1258587D02*
X1258831D01*
X1267392D02*
X1268266D01*
X1269489D02*
X1269734D01*
X1278295D02*
X1279169D01*
X1280392D02*
X1281685D01*
X1246426Y911311D02*
X1247300D01*
X1247579D02*
X1247929D01*
X1248313D02*
X1248767D01*
X1250829D02*
X1251178D01*
X1256909D02*
X1257678D01*
X1258482D02*
X1258726D01*
X1267707D02*
X1268476D01*
X1269279D02*
X1269629D01*
X1278609D02*
X1279378D01*
X1280601D02*
X1281894D01*
X1246426Y911416D02*
X1247300D01*
X1247474D02*
X1247824D01*
X1248418D02*
X1248872D01*
X1250934D02*
X1251283D01*
X1257119D02*
X1257888D01*
X1258272D02*
X1258622D01*
X1267917D02*
X1268685D01*
X1269175D02*
X1269524D01*
X1278819D02*
X1279588D01*
X1280811D02*
X1282104D01*
X1246321Y911521D02*
X1247195D01*
X1247370D02*
X1247614D01*
X1248523D02*
X1248977D01*
X1251039D02*
X1251388D01*
X1257433D02*
X1258412D01*
X1268231D02*
X1268895D01*
X1269070D02*
X1269314D01*
X1279134D02*
X1279902D01*
X1281021D02*
X1282209D01*
X1246321Y911626D02*
X1247509D01*
X1248628D02*
X1249082D01*
X1251143D02*
X1251493D01*
X1257643D02*
X1258307D01*
X1268441D02*
X1269210D01*
X1279343D02*
X1280112D01*
X1281125D02*
X1282314D01*
X1246321Y911730D02*
X1247404D01*
X1248732D02*
X1249187D01*
X1251248D02*
X1251598D01*
X1257853D02*
X1258202D01*
X1268650D02*
X1269105D01*
X1279553D02*
X1280322D01*
X1281335D02*
X1282523D01*
X1246216Y911835D02*
X1247300D01*
X1248837D02*
X1249291D01*
X1251353D02*
X1251703D01*
X1268860D02*
X1269000D01*
X1279763D02*
X1280531D01*
X1281545D02*
X1282628D01*
X1246216Y911940D02*
X1247195D01*
X1248942D02*
X1249291D01*
X1251458D02*
X1251703D01*
X1280077D02*
X1280741D01*
X1281754D02*
X1282838D01*
X1246112Y912045D02*
X1247195D01*
X1249047D02*
X1249396D01*
X1251563D02*
X1251807D01*
X1280287D02*
X1280951D01*
X1281859D02*
X1283047D01*
X1246112Y912150D02*
X1253485D01*
X1280496D02*
X1281160D01*
X1282069D02*
X1283257D01*
X1246112Y912255D02*
X1253590D01*
X1280706D02*
X1281265D01*
X1282279D02*
X1283257D01*
X1246112Y912359D02*
X1252541D01*
X1280916D02*
X1281475D01*
X1282383D02*
X1283362D01*
X1246112Y912464D02*
X1247300D01*
X1249361D02*
X1249816D01*
X1251877D02*
X1252227D01*
X1281021D02*
X1281685D01*
X1282593D02*
X1283572D01*
X1246007Y912569D02*
X1247404D01*
X1249466D02*
X1249920D01*
X1251982D02*
X1252332D01*
X1281230D02*
X1281789D01*
X1282698D02*
X1283676D01*
X1246007Y912674D02*
X1246775D01*
X1246950D02*
X1247509D01*
X1249571D02*
X1250025D01*
X1252087D02*
X1252436D01*
X1281440D02*
X1281999D01*
X1282908D02*
X1283886D01*
X1245902Y912779D02*
X1246671D01*
X1247055D02*
X1247509D01*
X1249676D02*
X1250025D01*
X1252192D02*
X1252436D01*
X1256071D02*
X1257993D01*
X1281650D02*
X1282209D01*
X1283012D02*
X1284096D01*
X1245902Y912884D02*
X1246671D01*
X1247160D02*
X1247614D01*
X1249781D02*
X1250130D01*
X1252297D02*
X1252541D01*
X1256071D02*
X1258097D01*
X1260788D02*
X1262710D01*
X1264352D02*
X1267218D01*
X1273053D02*
X1276024D01*
X1281754D02*
X1282314D01*
X1283222D02*
X1284096D01*
X1245902Y912988D02*
X1246671D01*
X1247265D02*
X1247719D01*
X1249886D02*
X1250235D01*
X1252401D02*
X1252646D01*
X1256071D02*
X1258097D01*
X1260788D02*
X1262710D01*
X1264352D02*
X1267323D01*
X1273053D02*
X1276128D01*
X1281964D02*
X1282523D01*
X1283327D02*
X1284201D01*
X1245902Y913093D02*
X1246566D01*
X1247370D02*
X1247824D01*
X1249990D02*
X1250340D01*
X1252506D02*
X1252751D01*
X1256071D02*
X1258202D01*
X1260788D02*
X1262815D01*
X1264457D02*
X1267427D01*
X1273158D02*
X1276128D01*
X1282174D02*
X1282628D01*
X1283537D02*
X1284410D01*
X1245902Y913198D02*
X1246566D01*
X1247474D02*
X1247929D01*
X1250095D02*
X1250445D01*
X1252611D02*
X1252856D01*
X1256071D02*
X1258202D01*
X1260788D02*
X1262815D01*
X1264457D02*
X1267532D01*
X1273158D02*
X1276233D01*
X1282279D02*
X1282838D01*
X1283641D02*
X1284515D01*
X1245902Y913303D02*
X1246566D01*
X1247579D02*
X1248033D01*
X1250200D02*
X1250549D01*
X1252716D02*
X1252961D01*
X1256071D02*
X1258307D01*
X1260788D02*
X1262920D01*
X1264562D02*
X1267532D01*
X1273263D02*
X1276233D01*
X1282488D02*
X1282943D01*
X1283746D02*
X1284620D01*
X1245902Y913408D02*
X1246461D01*
X1247684D02*
X1248138D01*
X1250200D02*
X1250654D01*
X1252716D02*
X1253065D01*
X1256071D02*
X1258307D01*
X1260788D02*
X1262920D01*
X1264562D02*
X1267637D01*
X1273368D02*
X1276338D01*
X1282593D02*
X1283152D01*
X1283956D02*
X1284830D01*
X1245902Y913513D02*
X1246461D01*
X1247789D02*
X1248243D01*
X1250305D02*
X1250654D01*
X1252821D02*
X1253065D01*
X1256071D02*
X1258412D01*
X1260788D02*
X1263024D01*
X1264667D02*
X1267637D01*
X1273368D02*
X1276338D01*
X1282803D02*
X1283257D01*
X1284061D02*
X1284934D01*
X1245902Y913617D02*
X1246461D01*
X1247789D02*
X1248243D01*
X1250410D02*
X1250759D01*
X1252926D02*
X1253170D01*
X1256071D02*
X1258412D01*
X1260788D02*
X1263024D01*
X1264772D02*
X1267742D01*
X1273473D02*
X1276443D01*
X1282908D02*
X1283467D01*
X1284166D02*
X1284934D01*
X1245902Y913722D02*
X1246461D01*
X1247894D02*
X1248348D01*
X1250514D02*
X1250864D01*
X1253030D02*
X1253275D01*
X1256071D02*
X1258517D01*
X1260788D02*
X1263129D01*
X1264772D02*
X1267742D01*
X1273473D02*
X1276443D01*
X1283117D02*
X1283572D01*
X1284270D02*
X1285144D01*
X1245902Y913827D02*
X1246461D01*
X1247999D02*
X1248453D01*
X1250619D02*
X1250969D01*
X1253135D02*
X1253380D01*
X1256071D02*
X1258517D01*
X1260788D02*
X1263129D01*
X1264876D02*
X1267847D01*
X1273578D02*
X1276548D01*
X1283222D02*
X1283676D01*
X1284480D02*
X1285249D01*
X1245902Y913932D02*
X1246461D01*
X1248103D02*
X1248558D01*
X1250724D02*
X1251074D01*
X1253240D02*
X1253485D01*
X1256071D02*
X1258622D01*
X1260788D02*
X1263234D01*
X1264876D02*
X1267847D01*
X1273578D02*
X1276548D01*
X1283327D02*
X1283781D01*
X1284585D02*
X1285354D01*
X1245902Y914037D02*
X1246461D01*
X1248208D02*
X1248662D01*
X1250829D02*
X1251178D01*
X1253345D02*
X1253590D01*
X1256071D02*
X1258726D01*
X1260788D02*
X1263339D01*
X1264981D02*
X1267952D01*
X1273682D02*
X1276653D01*
X1283537D02*
X1283991D01*
X1284690D02*
X1285458D01*
X1245902Y914142D02*
X1252646D01*
X1253450D02*
X1253590D01*
X1256071D02*
X1258726D01*
X1260788D02*
X1263339D01*
X1264981D02*
X1267952D01*
X1273682D02*
X1276653D01*
X1283641D02*
X1284096D01*
X1284795D02*
X1285668D01*
X1245902Y914246D02*
X1252751D01*
X1253555D02*
X1253590D01*
X1256071D02*
X1258831D01*
X1260788D02*
X1263444D01*
X1265086D02*
X1268056D01*
X1273787D02*
X1276757D01*
X1283746D02*
X1284201D01*
X1284899D02*
X1285668D01*
X1245902Y914351D02*
X1252751D01*
X1256071D02*
X1258831D01*
X1260788D02*
X1263444D01*
X1265086D02*
X1268056D01*
X1273787D02*
X1276862D01*
X1283956D02*
X1284305D01*
X1285004D02*
X1285773D01*
X1245902Y914456D02*
X1246566D01*
X1248628D02*
X1248977D01*
X1251248D02*
X1251493D01*
X1256071D02*
X1258936D01*
X1260788D02*
X1263549D01*
X1265191D02*
X1268161D01*
X1273892D02*
X1276862D01*
X1284061D02*
X1284515D01*
X1285214D02*
X1285878D01*
X1245902Y914561D02*
X1246671D01*
X1248732D02*
X1249082D01*
X1251248D02*
X1251598D01*
X1256071D02*
X1258936D01*
X1260788D02*
X1263549D01*
X1265296D02*
X1268161D01*
X1273997D02*
X1276967D01*
X1284166D02*
X1284620D01*
X1285319D02*
X1285983D01*
X1245902Y914666D02*
X1246775D01*
X1248732D02*
X1249187D01*
X1251353D02*
X1251703D01*
X1256071D02*
X1259041D01*
X1260788D02*
X1263653D01*
X1265296D02*
X1268266D01*
X1273997D02*
X1276967D01*
X1284270D02*
X1284725D01*
X1285424D02*
X1286087D01*
X1245902Y914771D02*
X1246880D01*
X1248837D02*
X1249291D01*
X1251458D02*
X1251807D01*
X1256071D02*
X1259041D01*
X1260788D02*
X1263653D01*
X1265401D02*
X1268371D01*
X1274102D02*
X1277072D01*
X1284480D02*
X1284830D01*
X1285528D02*
X1286192D01*
X1245902Y914875D02*
X1246880D01*
X1248942D02*
X1249396D01*
X1251563D02*
X1251912D01*
X1256071D02*
X1259146D01*
X1260788D02*
X1263758D01*
X1265401D02*
X1268371D01*
X1274102D02*
X1277072D01*
X1284585D02*
X1284934D01*
X1285633D02*
X1286297D01*
X1245902Y914980D02*
X1246985D01*
X1249047D02*
X1249501D01*
X1251668D02*
X1252017D01*
X1256071D02*
X1259250D01*
X1260788D02*
X1263758D01*
X1265505D02*
X1268476D01*
X1274207D02*
X1277177D01*
X1284690D02*
X1285039D01*
X1285738D02*
X1286297D01*
X1245902Y915085D02*
X1246461D01*
X1246636D02*
X1247090D01*
X1249152D02*
X1249606D01*
X1251772D02*
X1252122D01*
X1256071D02*
X1259250D01*
X1260788D02*
X1263863D01*
X1265505D02*
X1268476D01*
X1274207D02*
X1277177D01*
X1284795D02*
X1285144D01*
X1285843D02*
X1286402D01*
X1245902Y915190D02*
X1246461D01*
X1246741D02*
X1247195D01*
X1249257D02*
X1249606D01*
X1251877D02*
X1252122D01*
X1256071D02*
X1259355D01*
X1260788D02*
X1263863D01*
X1265610D02*
X1268581D01*
X1274311D02*
X1277282D01*
X1284899D02*
X1285249D01*
X1285948D02*
X1286507D01*
X1245902Y915295D02*
X1246461D01*
X1246845D02*
X1247300D01*
X1249361D02*
X1249711D01*
X1251982D02*
X1252227D01*
X1256071D02*
X1259355D01*
X1260788D02*
X1263968D01*
X1265610D02*
X1268581D01*
X1274311D02*
X1277282D01*
X1285004D02*
X1285354D01*
X1286053D02*
X1286612D01*
X1245902Y915400D02*
X1246461D01*
X1246950D02*
X1247404D01*
X1249466D02*
X1249816D01*
X1252087D02*
X1252332D01*
X1256071D02*
X1259460D01*
X1260788D02*
X1263968D01*
X1265715D02*
X1268685D01*
X1274416D02*
X1277386D01*
X1285109D02*
X1285563D01*
X1286157D02*
X1286821D01*
X1245902Y915504D02*
X1246566D01*
X1247055D02*
X1247509D01*
X1249571D02*
X1249920D01*
X1252192D02*
X1252436D01*
X1256071D02*
X1259460D01*
X1260788D02*
X1264073D01*
X1265820D02*
X1268685D01*
X1274416D02*
X1277386D01*
X1285214D02*
X1285563D01*
X1286262D02*
X1286926D01*
X1245902Y915609D02*
X1246566D01*
X1247160D02*
X1247614D01*
X1249676D02*
X1250025D01*
X1252192D02*
X1252541D01*
X1256071D02*
X1259565D01*
X1260788D02*
X1264178D01*
X1265820D02*
X1271097D01*
X1274521D02*
X1277491D01*
X1285319D02*
X1285773D01*
X1286262D02*
X1286926D01*
X1245902Y915714D02*
X1246566D01*
X1247265D02*
X1247614D01*
X1249781D02*
X1250130D01*
X1252297D02*
X1252646D01*
X1256071D02*
X1259565D01*
X1260788D02*
X1264178D01*
X1265925D02*
X1271516D01*
X1274626D02*
X1277491D01*
X1285424D02*
X1285773D01*
X1286367D02*
X1287031D01*
X1246007Y915819D02*
X1246566D01*
X1247265D02*
X1247719D01*
X1249886D02*
X1250235D01*
X1252401D02*
X1252751D01*
X1256071D02*
X1259670D01*
X1260788D02*
X1264282D01*
X1265925D02*
X1271830D01*
X1274626D02*
X1277596D01*
X1285528D02*
X1285878D01*
X1286472D02*
X1287136D01*
X1246007Y915924D02*
X1246671D01*
X1247370D02*
X1247824D01*
X1249886D02*
X1250340D01*
X1252506D02*
X1252856D01*
X1256071D02*
X1259775D01*
X1260788D02*
X1264282D01*
X1266030D02*
X1272040D01*
X1274731D02*
X1277701D01*
X1285633D02*
X1285983D01*
X1286577D02*
X1287241D01*
X1246112Y916029D02*
X1246671D01*
X1247474D02*
X1247929D01*
X1249990D02*
X1250340D01*
X1252611D02*
X1252856D01*
X1256071D02*
X1259775D01*
X1260788D02*
X1264387D01*
X1266030D02*
X1272250D01*
X1274731D02*
X1277701D01*
X1285738D02*
X1286087D01*
X1286682D02*
X1287241D01*
X1246112Y916133D02*
X1252017D01*
X1252716D02*
X1252961D01*
X1256071D02*
X1259879D01*
X1260788D02*
X1264387D01*
X1266134D02*
X1272459D01*
X1274836D02*
X1277806D01*
X1285843D02*
X1286192D01*
X1286786D02*
X1287345D01*
X1246112Y916238D02*
X1252227D01*
X1252821D02*
X1253065D01*
X1256071D02*
X1259879D01*
X1260788D02*
X1264492D01*
X1266134D02*
X1272564D01*
X1274836D02*
X1277806D01*
X1285948D02*
X1286297D01*
X1286891D02*
X1287345D01*
X1246216Y916343D02*
X1252227D01*
X1252926D02*
X1253170D01*
X1256071D02*
X1259984D01*
X1260788D02*
X1264492D01*
X1266239D02*
X1272669D01*
X1274940D02*
X1277911D01*
X1282803D02*
X1286402D01*
X1286891D02*
X1287450D01*
X1246216Y916448D02*
X1246775D01*
X1247894D02*
X1248243D01*
X1250410D02*
X1250759D01*
X1253030D02*
X1253275D01*
X1256071D02*
X1259984D01*
X1260788D02*
X1264597D01*
X1266344D02*
X1272879D01*
X1274940D02*
X1277911D01*
X1282803D02*
X1286507D01*
X1286996D02*
X1287555D01*
X1246216Y916553D02*
X1246880D01*
X1247999D02*
X1248348D01*
X1250514D02*
X1250864D01*
X1253135D02*
X1253380D01*
X1256071D02*
X1260089D01*
X1260788D02*
X1264597D01*
X1266344D02*
X1272983D01*
X1275045D02*
X1278015D01*
X1283117D02*
X1286612D01*
X1287101D02*
X1287660D01*
X1246216Y916658D02*
X1246880D01*
X1248103D02*
X1248453D01*
X1250619D02*
X1250969D01*
X1253240D02*
X1253485D01*
X1256071D02*
X1260089D01*
X1260788D02*
X1264702D01*
X1266449D02*
X1273088D01*
X1275045D02*
X1278015D01*
X1286367D02*
X1286612D01*
X1287206D02*
X1287765D01*
X1246321Y916762D02*
X1246880D01*
X1248208D02*
X1248558D01*
X1250724D02*
X1251074D01*
X1253240D02*
X1253485D01*
X1256071D02*
X1260194D01*
X1260788D02*
X1264702D01*
X1266449D02*
X1273193D01*
X1275150D02*
X1278120D01*
X1286472D02*
X1286716D01*
X1287206D02*
X1287870D01*
X1246321Y916867D02*
X1246985D01*
X1248313D02*
X1248662D01*
X1250829D02*
X1251074D01*
X1253345D02*
X1253590D01*
X1256071D02*
X1260299D01*
X1260788D02*
X1264807D01*
X1266554D02*
X1273298D01*
X1275255D02*
X1278120D01*
X1284061D02*
X1284201D01*
X1286472D02*
X1286821D01*
X1287311D02*
X1287870D01*
X1246321Y916972D02*
X1246985D01*
X1248313D02*
X1248767D01*
X1250829D02*
X1251178D01*
X1253450D02*
X1253694D01*
X1256071D02*
X1260299D01*
X1260788D02*
X1264807D01*
X1266554D02*
X1273403D01*
X1275255D02*
X1278225D01*
X1284061D02*
X1284201D01*
X1286577D02*
X1286926D01*
X1287415D02*
X1287974D01*
X1246426Y917077D02*
X1247090D01*
X1248418D02*
X1248872D01*
X1250934D02*
X1251283D01*
X1253555D02*
X1253799D01*
X1256071D02*
X1260404D01*
X1260788D02*
X1264911D01*
X1266659D02*
X1273508D01*
X1275360D02*
X1278225D01*
X1284061D02*
X1284305D01*
X1286682D02*
X1287031D01*
X1287415D02*
X1287974D01*
X1246426Y917182D02*
X1247090D01*
X1248523D02*
X1248977D01*
X1251039D02*
X1251388D01*
X1253659D02*
X1253799D01*
X1256071D02*
X1260404D01*
X1260788D02*
X1265016D01*
X1266659D02*
X1273508D01*
X1275360D02*
X1278330D01*
X1284166D02*
X1284410D01*
X1286786D02*
X1287031D01*
X1287520D02*
X1288079D01*
X1246531Y917287D02*
X1247195D01*
X1248628D02*
X1248977D01*
X1251143D02*
X1251493D01*
X1253764D02*
X1253799D01*
X1256071D02*
X1260508D01*
X1260788D02*
X1265016D01*
X1266763D02*
X1273612D01*
X1275465D02*
X1278435D01*
X1284270D02*
X1284515D01*
X1286786D02*
X1287136D01*
X1287625D02*
X1288184D01*
X1246531Y917391D02*
X1247195D01*
X1248732D02*
X1249082D01*
X1251248D02*
X1251598D01*
X1256071D02*
X1260508D01*
X1260788D02*
X1265121D01*
X1266868D02*
X1273717D01*
X1275465D02*
X1278435D01*
X1284375D02*
X1284620D01*
X1286891D02*
X1287241D01*
X1287625D02*
X1288184D01*
X1246636Y917496D02*
X1247300D01*
X1248837D02*
X1249187D01*
X1251353D02*
X1251703D01*
X1256071D02*
X1260613D01*
X1260788D02*
X1265121D01*
X1266868D02*
X1273717D01*
X1275569D02*
X1278540D01*
X1284480D02*
X1284725D01*
X1286996D02*
X1287241D01*
X1287730D02*
X1288289D01*
X1246636Y917601D02*
X1247300D01*
X1248942D02*
X1249291D01*
X1251458D02*
X1251807D01*
X1256071D02*
X1260613D01*
X1260788D02*
X1265226D01*
X1266973D02*
X1273822D01*
X1275569D02*
X1278540D01*
X1284585D02*
X1284830D01*
X1287101D02*
X1287345D01*
X1287835D02*
X1288289D01*
X1246636Y917706D02*
X1247404D01*
X1249047D02*
X1249396D01*
X1251563D02*
X1251807D01*
X1256071D02*
X1265226D01*
X1266973D02*
X1273927D01*
X1275674D02*
X1278644D01*
X1284690D02*
X1284934D01*
X1287101D02*
X1287450D01*
X1287835D02*
X1288394D01*
X1246741Y917811D02*
X1247404D01*
X1249152D02*
X1249501D01*
X1251668D02*
X1251912D01*
X1256071D02*
X1265331D01*
X1267078D02*
X1273927D01*
X1275674D02*
X1278644D01*
X1284690D02*
X1285039D01*
X1287206D02*
X1287450D01*
X1287940D02*
X1288394D01*
X1246845Y917916D02*
X1247509D01*
X1249257D02*
X1249606D01*
X1251772D02*
X1252017D01*
X1256071D02*
X1265331D01*
X1267078D02*
X1274032D01*
X1275779D02*
X1278749D01*
X1284795D02*
X1285144D01*
X1287311D02*
X1287555D01*
X1287940D02*
X1288499D01*
X1246950Y918020D02*
X1247614D01*
X1249361D02*
X1249711D01*
X1251877D02*
X1252122D01*
X1256071D02*
X1265331D01*
X1267183D02*
X1274032D01*
X1275884D02*
X1278749D01*
X1284899D02*
X1285144D01*
X1287311D02*
X1287660D01*
X1288044D02*
X1288603D01*
X1246950Y918125D02*
X1252227D01*
X1270223D02*
X1274137D01*
X1275989D02*
X1278749D01*
X1285004D02*
X1285249D01*
X1287415D02*
X1287660D01*
X1288044D02*
X1288708D01*
X1246950Y918230D02*
X1254219D01*
X1271062D02*
X1274137D01*
X1284061D02*
X1287765D01*
X1288149D02*
X1288708D01*
X1247055Y918335D02*
X1254219D01*
X1271271D02*
X1274241D01*
X1283012D02*
X1287765D01*
X1288149D02*
X1288708D01*
X1247160Y918440D02*
X1248558D01*
X1249676D02*
X1250025D01*
X1252192D02*
X1252436D01*
X1271376D02*
X1274241D01*
X1283117D02*
X1287870D01*
X1288254D02*
X1288813D01*
X1247265Y918545D02*
X1247929D01*
X1249781D02*
X1250130D01*
X1252297D02*
X1252541D01*
X1271586D02*
X1274241D01*
X1285424D02*
X1285668D01*
X1287730D02*
X1287974D01*
X1288254D02*
X1288813D01*
X1247265Y918649D02*
X1247929D01*
X1249886D02*
X1250235D01*
X1252401D02*
X1252646D01*
X1271586D02*
X1274346D01*
X1285424D02*
X1285773D01*
X1287730D02*
X1287974D01*
X1288359D02*
X1288918D01*
X1247370Y918754D02*
X1248033D01*
X1249990D02*
X1250340D01*
X1252506D02*
X1252751D01*
X1271691D02*
X1274346D01*
X1285528D02*
X1285878D01*
X1287835D02*
X1288079D01*
X1288359D02*
X1288918D01*
X1247370Y918859D02*
X1248138D01*
X1250095D02*
X1250445D01*
X1252611D02*
X1252856D01*
X1271691D02*
X1274346D01*
X1283327D02*
X1283467D01*
X1285633D02*
X1285983D01*
X1287835D02*
X1288079D01*
X1288464D02*
X1288918D01*
X1247370Y918964D02*
X1248243D01*
X1250200D02*
X1250445D01*
X1252716D02*
X1252961D01*
X1271691D02*
X1274346D01*
X1283327D02*
X1283572D01*
X1285738D02*
X1286087D01*
X1287940D02*
X1288184D01*
X1288464D02*
X1288918D01*
X1247474Y919069D02*
X1248243D01*
X1250305D02*
X1250549D01*
X1252821D02*
X1253065D01*
X1271795D02*
X1274451D01*
X1283432D02*
X1283676D01*
X1285843D02*
X1286192D01*
X1287940D02*
X1288184D01*
X1288569D02*
X1289023D01*
X1247579Y919174D02*
X1248348D01*
X1250305D02*
X1250654D01*
X1252821D02*
X1253170D01*
X1271795D02*
X1274451D01*
X1283537D02*
X1283781D01*
X1285948D02*
X1286192D01*
X1288044D02*
X1288289D01*
X1288569D02*
X1289023D01*
X1247684Y919278D02*
X1248453D01*
X1250410D02*
X1250759D01*
X1252926D02*
X1253170D01*
X1271795D02*
X1274451D01*
X1283641D02*
X1283886D01*
X1286053D02*
X1286297D01*
X1288044D02*
X1288289D01*
X1288569D02*
X1289128D01*
X1247789Y919383D02*
X1248558D01*
X1250514D02*
X1250864D01*
X1253030D02*
X1253275D01*
X1271691D02*
X1274451D01*
X1283641D02*
X1283886D01*
X1286157D02*
X1286402D01*
X1288149D02*
X1288289D01*
X1288673D02*
X1289128D01*
X1247894Y919488D02*
X1248558D01*
X1250619D02*
X1250969D01*
X1253135D02*
X1253380D01*
X1271691D02*
X1274451D01*
X1283746D02*
X1283991D01*
X1286157D02*
X1286507D01*
X1288149D02*
X1288394D01*
X1288673D02*
X1289128D01*
X1247894Y919593D02*
X1248662D01*
X1250724D02*
X1251074D01*
X1253240D02*
X1253485D01*
X1271586D02*
X1274451D01*
X1283851D02*
X1284096D01*
X1286262D02*
X1286612D01*
X1288149D02*
X1288394D01*
X1288673D02*
X1289128D01*
X1247999Y919698D02*
X1248767D01*
X1250829D02*
X1251178D01*
X1253345D02*
X1253590D01*
X1256071D02*
X1258622D01*
X1271376D02*
X1274451D01*
X1283956D02*
X1284201D01*
X1286367D02*
X1286716D01*
X1288254D02*
X1288499D01*
X1288673D02*
X1289232D01*
X1248103Y919803D02*
X1248872D01*
X1250934D02*
X1251178D01*
X1253450D02*
X1253590D01*
X1256071D02*
X1258622D01*
X1259635D02*
X1263339D01*
X1264247D02*
X1266379D01*
X1268126D02*
X1274451D01*
X1276827D02*
X1279693D01*
X1284061D02*
X1284305D01*
X1286472D02*
X1286821D01*
X1288254D02*
X1288499D01*
X1288778D02*
X1289232D01*
X1248208Y919907D02*
X1248977D01*
X1251039D02*
X1251283D01*
X1253555D02*
X1253590D01*
X1256071D02*
X1258622D01*
X1259635D02*
X1263339D01*
X1264247D02*
X1266484D01*
X1268231D02*
X1274451D01*
X1276827D02*
X1279798D01*
X1284166D02*
X1284410D01*
X1286577D02*
X1286926D01*
X1288359D02*
X1288499D01*
X1288778D02*
X1289232D01*
X1248208Y920012D02*
X1249082D01*
X1251143D02*
X1251388D01*
X1256071D02*
X1258622D01*
X1259740D02*
X1263339D01*
X1264247D02*
X1266484D01*
X1268231D02*
X1274451D01*
X1276827D02*
X1279798D01*
X1284270D02*
X1284515D01*
X1286682D02*
X1287031D01*
X1288359D02*
X1288603D01*
X1288778D02*
X1289337D01*
X1248313Y920117D02*
X1249187D01*
X1251248D02*
X1251493D01*
X1256071D02*
X1258622D01*
X1259740D02*
X1263339D01*
X1264352D02*
X1266589D01*
X1268336D02*
X1274451D01*
X1276932D02*
X1279902D01*
X1284375D02*
X1284620D01*
X1286786D02*
X1287136D01*
X1288464D02*
X1288603D01*
X1288883D02*
X1289337D01*
X1248313Y920222D02*
X1252751D01*
X1256071D02*
X1258622D01*
X1259845D02*
X1263339D01*
X1264352D02*
X1266589D01*
X1268336D02*
X1274451D01*
X1277037D02*
X1280007D01*
X1284375D02*
X1284725D01*
X1285528D02*
X1288603D01*
X1288883D02*
X1289337D01*
X1248418Y920327D02*
X1252856D01*
X1256071D02*
X1258622D01*
X1259949D02*
X1263339D01*
X1264457D02*
X1266694D01*
X1268441D02*
X1274346D01*
X1277037D02*
X1280007D01*
X1282069D02*
X1288708D01*
X1288883D02*
X1289337D01*
X1248628Y920432D02*
X1249501D01*
X1251458D02*
X1251703D01*
X1256071D02*
X1258622D01*
X1259949D02*
X1263339D01*
X1264562D02*
X1266694D01*
X1268441D02*
X1274346D01*
X1277142D02*
X1277596D01*
X1279448D02*
X1280112D01*
X1282069D02*
X1288708D01*
X1288883D02*
X1289442D01*
X1248732Y920536D02*
X1249501D01*
X1251563D02*
X1251807D01*
X1256071D02*
X1258622D01*
X1260054D02*
X1263339D01*
X1264562D02*
X1266798D01*
X1268546D02*
X1274346D01*
X1277142D02*
X1277701D01*
X1279553D02*
X1280112D01*
X1284690D02*
X1284934D01*
X1287101D02*
X1287450D01*
X1288569D02*
X1288708D01*
X1288883D02*
X1289442D01*
X1248837Y920641D02*
X1249606D01*
X1251668D02*
X1251912D01*
X1256071D02*
X1258622D01*
X1260054D02*
X1263339D01*
X1264667D02*
X1266798D01*
X1268546D02*
X1274346D01*
X1277247D02*
X1277701D01*
X1279658D02*
X1280217D01*
X1284795D02*
X1285039D01*
X1287206D02*
X1287555D01*
X1288569D02*
X1288708D01*
X1288883D02*
X1289442D01*
X1248942Y920746D02*
X1249711D01*
X1251772D02*
X1252017D01*
X1256071D02*
X1258622D01*
X1260159D02*
X1263339D01*
X1264667D02*
X1266903D01*
X1268650D02*
X1274241D01*
X1277247D02*
X1277806D01*
X1279658D02*
X1280217D01*
X1282593D02*
X1282628D01*
X1284899D02*
X1285144D01*
X1287311D02*
X1287660D01*
X1288569D02*
X1288708D01*
X1288883D02*
X1289442D01*
X1249047Y920851D02*
X1249920D01*
X1251877D02*
X1252122D01*
X1256071D02*
X1258622D01*
X1260159D02*
X1263339D01*
X1264772D02*
X1266903D01*
X1268755D02*
X1274241D01*
X1277351D02*
X1277911D01*
X1279763D02*
X1280322D01*
X1282593D02*
X1282733D01*
X1285004D02*
X1285249D01*
X1287415D02*
X1287765D01*
X1288569D02*
X1288708D01*
X1288883D02*
X1289442D01*
X1249047Y920956D02*
X1249920D01*
X1251982D02*
X1252332D01*
X1256071D02*
X1258622D01*
X1260264D02*
X1263339D01*
X1264772D02*
X1267008D01*
X1268755D02*
X1274137D01*
X1277351D02*
X1277911D01*
X1279763D02*
X1280322D01*
X1282698D02*
X1282838D01*
X1285109D02*
X1285354D01*
X1287520D02*
X1287870D01*
X1288673D02*
X1289442D01*
X1249152Y921061D02*
X1250130D01*
X1252087D02*
X1252332D01*
X1256071D02*
X1258622D01*
X1260264D02*
X1263339D01*
X1264876D02*
X1267113D01*
X1268860D02*
X1274137D01*
X1277456D02*
X1278015D01*
X1279867D02*
X1280427D01*
X1282698D02*
X1282943D01*
X1285109D02*
X1285458D01*
X1287520D02*
X1287974D01*
X1288673D02*
X1289442D01*
X1249257Y921165D02*
X1250235D01*
X1252192D02*
X1252436D01*
X1256071D02*
X1258622D01*
X1260369D02*
X1263339D01*
X1264876D02*
X1267113D01*
X1268860D02*
X1274032D01*
X1277456D02*
X1278015D01*
X1279867D02*
X1280531D01*
X1282803D02*
X1283047D01*
X1285214D02*
X1285563D01*
X1287625D02*
X1288079D01*
X1288673D02*
X1289442D01*
X1249361Y921270D02*
X1250340D01*
X1252297D02*
X1252541D01*
X1256071D02*
X1258622D01*
X1260369D02*
X1263339D01*
X1264981D02*
X1267218D01*
X1268965D02*
X1274032D01*
X1277561D02*
X1278120D01*
X1279972D02*
X1280531D01*
X1282908D02*
X1283152D01*
X1285319D02*
X1285668D01*
X1287730D02*
X1288184D01*
X1288673D02*
X1289442D01*
X1249571Y921375D02*
X1250445D01*
X1252297D02*
X1252646D01*
X1256071D02*
X1258622D01*
X1260474D02*
X1263339D01*
X1264981D02*
X1267218D01*
X1268965D02*
X1273927D01*
X1277561D02*
X1278120D01*
X1280077D02*
X1280636D01*
X1283012D02*
X1283257D01*
X1285424D02*
X1285773D01*
X1287835D02*
X1288184D01*
X1288673D02*
X1289442D01*
X1249676Y921480D02*
X1250549D01*
X1252401D02*
X1252646D01*
X1256071D02*
X1258622D01*
X1260474D02*
X1263339D01*
X1265086D02*
X1267323D01*
X1269070D02*
X1273822D01*
X1277666D02*
X1278225D01*
X1280077D02*
X1280636D01*
X1283117D02*
X1283362D01*
X1285528D02*
X1285878D01*
X1287940D02*
X1288289D01*
X1288673D02*
X1289442D01*
X1249676Y921585D02*
X1250654D01*
X1252506D02*
X1252751D01*
X1256071D02*
X1258622D01*
X1260578D02*
X1263339D01*
X1265086D02*
X1267323D01*
X1269070D02*
X1273822D01*
X1277771D02*
X1278225D01*
X1280182D02*
X1280741D01*
X1283222D02*
X1283467D01*
X1285633D02*
X1285878D01*
X1288044D02*
X1288394D01*
X1288673D02*
X1289442D01*
X1249781Y921690D02*
X1250759D01*
X1252611D02*
X1252751D01*
X1256071D02*
X1258622D01*
X1260683D02*
X1263339D01*
X1265191D02*
X1267427D01*
X1269175D02*
X1273717D01*
X1277771D02*
X1278330D01*
X1280182D02*
X1280741D01*
X1283222D02*
X1283572D01*
X1285738D02*
X1285983D01*
X1288149D02*
X1288499D01*
X1288673D02*
X1289442D01*
X1249886Y921794D02*
X1250969D01*
X1256071D02*
X1258622D01*
X1260683D02*
X1263339D01*
X1265296D02*
X1267427D01*
X1269175D02*
X1273612D01*
X1277876D02*
X1278330D01*
X1280287D02*
X1280846D01*
X1283327D02*
X1283676D01*
X1285738D02*
X1286087D01*
X1288254D02*
X1288499D01*
X1288673D02*
X1289442D01*
X1249990Y921899D02*
X1251074D01*
X1256071D02*
X1258622D01*
X1260788D02*
X1263339D01*
X1265296D02*
X1267532D01*
X1269279D02*
X1273508D01*
X1277876D02*
X1278435D01*
X1280287D02*
X1280951D01*
X1283432D02*
X1283676D01*
X1285843D02*
X1286192D01*
X1288254D02*
X1289442D01*
X1250200Y922004D02*
X1251178D01*
X1256071D02*
X1258622D01*
X1260788D02*
X1263339D01*
X1265401D02*
X1267532D01*
X1269279D02*
X1273298D01*
X1277980D02*
X1278540D01*
X1280392D02*
X1280951D01*
X1283537D02*
X1283781D01*
X1285948D02*
X1286297D01*
X1288359D02*
X1289442D01*
X1250305Y922109D02*
X1254428D01*
X1256071D02*
X1258622D01*
X1260893D02*
X1263339D01*
X1265401D02*
X1267637D01*
X1269384D02*
X1273193D01*
X1277980D02*
X1281056D01*
X1283641D02*
X1283886D01*
X1286053D02*
X1286402D01*
X1288464D02*
X1289442D01*
X1250305Y922214D02*
X1254428D01*
X1256071D02*
X1258622D01*
X1260893D02*
X1263339D01*
X1265505D02*
X1267742D01*
X1269489D02*
X1272983D01*
X1278085D02*
X1281056D01*
X1283746D02*
X1283991D01*
X1286157D02*
X1289442D01*
X1250410Y922318D02*
X1254428D01*
X1256071D02*
X1258622D01*
X1260998D02*
X1263339D01*
X1265505D02*
X1267742D01*
X1269489D02*
X1272774D01*
X1278085D02*
X1281160D01*
X1282069D02*
X1289442D01*
X1250619Y922423D02*
X1251703D01*
X1261103D02*
X1263339D01*
X1265610D02*
X1267742D01*
X1269594D02*
X1272354D01*
X1278190D02*
X1281160D01*
X1282069D02*
X1289442D01*
X1250724Y922528D02*
X1251912D01*
X1278295D02*
X1281160D01*
X1283956D02*
X1284305D01*
X1286367D02*
X1289442D01*
X1250829Y922633D02*
X1252017D01*
X1284061D02*
X1284410D01*
X1286472D02*
X1286926D01*
X1288673D02*
X1289442D01*
X1251039Y922738D02*
X1252122D01*
X1284166D02*
X1284515D01*
X1286577D02*
X1287031D01*
X1288673D02*
X1289337D01*
X1251143Y922843D02*
X1252332D01*
X1284270D02*
X1284620D01*
X1286682D02*
X1287031D01*
X1288673D02*
X1289337D01*
X1251248Y922947D02*
X1252436D01*
X1282069D02*
X1282209D01*
X1284375D02*
X1284620D01*
X1286786D02*
X1287136D01*
X1288673D02*
X1289337D01*
X1251353Y923052D02*
X1252646D01*
X1282069D02*
X1282209D01*
X1284480D02*
X1284725D01*
X1286891D02*
X1287241D01*
X1288569D02*
X1289337D01*
X1251563Y923157D02*
X1252751D01*
X1282174D02*
X1282314D01*
X1284585D02*
X1284830D01*
X1286996D02*
X1287345D01*
X1288569D02*
X1289232D01*
X1251772Y923262D02*
X1252961D01*
X1282174D02*
X1282418D01*
X1284585D02*
X1284934D01*
X1287101D02*
X1287450D01*
X1288569D02*
X1289232D01*
X1251877Y923367D02*
X1253170D01*
X1282279D02*
X1282523D01*
X1284690D02*
X1285039D01*
X1287206D02*
X1287555D01*
X1288569D02*
X1289232D01*
X1251982Y923472D02*
X1253275D01*
X1282383D02*
X1282628D01*
X1284795D02*
X1285144D01*
X1287206D02*
X1287660D01*
X1288464D02*
X1289128D01*
X1252087Y923576D02*
X1253485D01*
X1282488D02*
X1282733D01*
X1284899D02*
X1285249D01*
X1287311D02*
X1287765D01*
X1288464D02*
X1289128D01*
X1252192Y923681D02*
X1253694D01*
X1282593D02*
X1282838D01*
X1285004D02*
X1285354D01*
X1287415D02*
X1287870D01*
X1288359D02*
X1289128D01*
X1252401Y923786D02*
X1253799D01*
X1282698D02*
X1282943D01*
X1285109D02*
X1285458D01*
X1287520D02*
X1287974D01*
X1288359D02*
X1289128D01*
X1252611Y923891D02*
X1254009D01*
X1282698D02*
X1283047D01*
X1285214D02*
X1285563D01*
X1287625D02*
X1287974D01*
X1288254D02*
X1289023D01*
X1252821Y923996D02*
X1254219D01*
X1282803D02*
X1283152D01*
X1285319D02*
X1285668D01*
X1287730D02*
X1288079D01*
X1288254D02*
X1289023D01*
X1252926Y924101D02*
X1254428D01*
X1282908D02*
X1283152D01*
X1285319D02*
X1285668D01*
X1287835D02*
X1289023D01*
X1253030Y924205D02*
X1254638D01*
X1283012D02*
X1283257D01*
X1285424D02*
X1285773D01*
X1286996D02*
X1288918D01*
X1253135Y924310D02*
X1254848D01*
X1281440D02*
X1288918D01*
X1253345Y924415D02*
X1255057D01*
X1280811D02*
X1280846D01*
X1281440D02*
X1288918D01*
X1253555Y924520D02*
X1255267D01*
X1280811D02*
X1280951D01*
X1283222D02*
X1288813D01*
X1253869Y924625D02*
X1255477D01*
X1266030D02*
X1266274D01*
X1276827D02*
X1277177D01*
X1280811D02*
X1281056D01*
X1283432D02*
X1283676D01*
X1285843D02*
X1286192D01*
X1287730D02*
X1288813D01*
X1254079Y924730D02*
X1255686D01*
X1265925D02*
X1266484D01*
X1276722D02*
X1277386D01*
X1280916D02*
X1281160D01*
X1283432D02*
X1283781D01*
X1285948D02*
X1286297D01*
X1287625D02*
X1288708D01*
X1254184Y924834D02*
X1256001D01*
X1265820D02*
X1266798D01*
X1276618D02*
X1277701D01*
X1281021D02*
X1281265D01*
X1283537D02*
X1283886D01*
X1286053D02*
X1286402D01*
X1287520D02*
X1288708D01*
X1254288Y924939D02*
X1256210D01*
X1265715D02*
X1267008D01*
X1276513D02*
X1277911D01*
X1281125D02*
X1281370D01*
X1283641D02*
X1283991D01*
X1286053D02*
X1286507D01*
X1287415D02*
X1288708D01*
X1254498Y925044D02*
X1256525D01*
X1265610D02*
X1267323D01*
X1276408D02*
X1278225D01*
X1281230D02*
X1281475D01*
X1283746D02*
X1284096D01*
X1286157D02*
X1286612D01*
X1287311D02*
X1288708D01*
X1254708Y925149D02*
X1256735D01*
X1265401D02*
X1267532D01*
X1276198D02*
X1278435D01*
X1281335D02*
X1281580D01*
X1283851D02*
X1284201D01*
X1286262D02*
X1286612D01*
X1287101D02*
X1288499D01*
X1255022Y925254D02*
X1257049D01*
X1265296D02*
X1267847D01*
X1276094D02*
X1278749D01*
X1281335D02*
X1281685D01*
X1283956D02*
X1284201D01*
X1286367D02*
X1286716D01*
X1286996D02*
X1288289D01*
X1255232Y925359D02*
X1257364D01*
X1265086D02*
X1265855D01*
X1266239D02*
X1268161D01*
X1275884D02*
X1276967D01*
X1277351D02*
X1279064D01*
X1281440D02*
X1281685D01*
X1284061D02*
X1284305D01*
X1286472D02*
X1288184D01*
X1255546Y925463D02*
X1257678D01*
X1264876D02*
X1265750D01*
X1266554D02*
X1268476D01*
X1275674D02*
X1276862D01*
X1277666D02*
X1279378D01*
X1281545D02*
X1281789D01*
X1284166D02*
X1284410D01*
X1286577D02*
X1288079D01*
X1255546Y925568D02*
X1258097D01*
X1264667D02*
X1265750D01*
X1266554D02*
X1268895D01*
X1275465D02*
X1276862D01*
X1277666D02*
X1279798D01*
X1281650D02*
X1281894D01*
X1284166D02*
X1284515D01*
X1286367D02*
X1288079D01*
X1255861Y925673D02*
X1258517D01*
X1264352D02*
X1265645D01*
X1266868D02*
X1269210D01*
X1275150D02*
X1276653D01*
X1277980D02*
X1280217D01*
X1281754D02*
X1281999D01*
X1284270D02*
X1284620D01*
X1286053D02*
X1287974D01*
X1256175Y925778D02*
X1258936D01*
X1264038D02*
X1265436D01*
X1267183D02*
X1269734D01*
X1274836D02*
X1276548D01*
X1278295D02*
X1280636D01*
X1281859D02*
X1282104D01*
X1284375D02*
X1284725D01*
X1285738D02*
X1287765D01*
X1256490Y925883D02*
X1259460D01*
X1263618D02*
X1265226D01*
X1267497D02*
X1270258D01*
X1274521D02*
X1276338D01*
X1278609D02*
X1281160D01*
X1281964D02*
X1282209D01*
X1284480D02*
X1284830D01*
X1285319D02*
X1287660D01*
X1256804Y925988D02*
X1260089D01*
X1263094D02*
X1265016D01*
X1267812D02*
X1270887D01*
X1273997D02*
X1276128D01*
X1278924D02*
X1281789D01*
X1282069D02*
X1282314D01*
X1284585D02*
X1287450D01*
X1257119Y926092D02*
X1264911D01*
X1268126D02*
X1272145D01*
X1272844D02*
X1275919D01*
X1279238D02*
X1287241D01*
X1257433Y926197D02*
X1264702D01*
X1268441D02*
X1275814D01*
X1279448D02*
X1287031D01*
X1257538Y926302D02*
X1264702D01*
X1268546D02*
X1275709D01*
X1279553D02*
X1287031D01*
X1257958Y926407D02*
X1264387D01*
X1268965D02*
X1275499D01*
X1279972D02*
X1286716D01*
X1258482Y926512D02*
X1264073D01*
X1269489D02*
X1275185D01*
X1280496D02*
X1286402D01*
X1258901Y926617D02*
X1263758D01*
X1269908D02*
X1274870D01*
X1280811D02*
X1286087D01*
X1259635Y926721D02*
X1263129D01*
X1270537D02*
X1274241D01*
X1281545D02*
X1285668D01*
X1260159Y926826D02*
X1262815D01*
X1271166D02*
X1273927D01*
X1281859D02*
X1285354D01*
G74*
X0Y0D02*
M02*
