*
*
G04 PADS VX.1.2 Build Number: 698008 generated Gerber (RS-274-X) file*
G04 PC Version=2.1*
*
%IN "PCB - P18-001 Socket Sh"*%
*
%MOIN*%
*
%FSLAX35Y35*%
*
*
*
*
G04 PC Standard Apertures*
*
*
G04 Thermal Relief Aperture macro.*
%AMTER*
1,1,$1,0,0*
1,0,$1-$2,0,0*
21,0,$3,$4,0,0,45*
21,0,$3,$4,0,0,135*
%
*
*
G04 Annular Aperture macro.*
%AMANN*
1,1,$1,0,0*
1,0,$2,0,0*
%
*
*
G04 Odd Aperture macro.*
%AMODD*
1,1,$1,0,0*
1,0,$1-0.005,0,0*
%
*
*
G04 PC Custom Aperture Macros*
*
*
*
*
*
*
G04 PC Aperture Table*
*
%ADD010C,0.001*%
%ADD048C,0.01*%
%ADD060C,0.005*%
%ADD138C,0.003*%
*
*
*
*
G04 PC Circuitry*
G04 Layer Name PCB - P18-001 Socket Sh - circuitry*
%LPD*%
*
*
G04 PC Custom Flashes*
G04 Layer Name PCB - P18-001 Socket Sh - flashes*
%LPD*%
*
*
G04 PC Circuitry*
G04 Layer Name PCB - P18-001 Socket Sh - circuitry*
%LPD*%
*
G54D10*
G54D48*
G01X1346000Y1037500D02*
X1103500D01*
Y998000*
X1096500*
Y1013000*
X1045500*
Y900000*
X1096500*
Y926000*
X1103500*
Y880000*
X1346000*
Y1037500*
X1088800Y1005000D02*
X1047000D01*
Y991800*
X1088800*
Y1005000*
X1088900Y920000D02*
X1047000D01*
Y907000*
X1088900*
Y920000*
X1170600Y1012700D02*
X1140000D01*
Y989700*
X1170600*
Y1012700*
G54D60*
X1065862Y970000D02*
X1069800D01*
X1065862D02*
Y968773D01*
X1065862D02*
X1066050Y968364D01*
X1066237Y968227*
X1066237D02*
X1066612Y968091D01*
X1066612D02*
X1066987D01*
X1066987D02*
X1067362Y968227D01*
X1067362D02*
X1067550Y968364D01*
X1067737Y968773*
Y970000D02*
Y968773D01*
X1067737D02*
X1067925Y968364D01*
X1068112Y968227*
X1068112D02*
X1068487Y968091D01*
X1068487D02*
X1069050D01*
X1069425Y968227*
X1069612Y968364*
X1069612D02*
X1069800Y968773D01*
Y970000*
X1065862Y966864D02*
X1069800D01*
Y965227*
X1065862Y964000D02*
X1068675D01*
X1069237Y963864*
X1069237D02*
X1069612Y963591D01*
X1069612D02*
X1069800Y963182D01*
Y962909*
X1069612Y962500*
X1069612D02*
X1069237Y962227D01*
X1069237D02*
X1068675Y962091D01*
X1065862*
Y960864D02*
X1069800D01*
X1065862D02*
Y959091D01*
X1067737Y960864D02*
Y959773D01*
X1069800Y960864D02*
Y959091D01*
X1065862Y956909D02*
X1069800D01*
X1065862Y957864D02*
Y955955D01*
Y953909D02*
X1066050Y954182D01*
X1066425Y954455*
X1066800Y954591*
X1067362Y954727*
X1067362D02*
X1068300D01*
X1068862Y954591*
X1068862D02*
X1069237Y954455D01*
X1069237D02*
X1069612Y954182D01*
X1069612D02*
X1069800Y953909D01*
Y953364*
X1069612Y953091*
X1069612D02*
X1069237Y952818D01*
X1069237D02*
X1068862Y952682D01*
X1068862D02*
X1068300Y952545D01*
X1067362*
X1067362D02*
X1066800Y952682D01*
X1066425Y952818*
X1066050Y953091*
X1065862Y953364*
X1065862D02*
Y953909D01*
Y950500D02*
X1066050Y950773D01*
X1066425Y951045*
X1066800Y951182*
X1067362Y951318*
X1067362D02*
X1068300D01*
X1068862Y951182*
X1068862D02*
X1069237Y951045D01*
X1069237D02*
X1069612Y950773D01*
X1069612D02*
X1069800Y950500D01*
Y949955*
X1069612Y949682*
X1069612D02*
X1069237Y949409D01*
X1069237D02*
X1068862Y949273D01*
X1068862D02*
X1068300Y949136D01*
X1067362*
X1067362D02*
X1066800Y949273D01*
X1066425Y949409*
X1066050Y949682*
X1065862Y949955*
X1065862D02*
Y950500D01*
Y946955D02*
X1069800D01*
X1065862Y947909D02*
Y946000D01*
Y944773D02*
X1069800D01*
X1065862Y942864D02*
X1069800D01*
X1067737Y944773D02*
Y942864D01*
X1264200Y967038D02*
Y963100D01*
Y967038D02*
X1263109Y963100D01*
X1262018Y967038D02*
X1263109Y963100D01*
X1262018Y967038D02*
Y963100D01*
X1259155Y965725D02*
Y963100D01*
Y965163D02*
X1259427Y965538D01*
X1259427D02*
X1259700Y965725D01*
X1260109*
X1260382Y965538*
X1260382D02*
X1260655Y965163D01*
X1260655D02*
X1260791Y964600D01*
Y964225*
X1260655Y963663*
X1260655D02*
X1260382Y963288D01*
X1260382D02*
X1260109Y963100D01*
X1259700*
X1259427Y963288*
X1259427D02*
X1259155Y963663D01*
X1257927Y965725D02*
Y963100D01*
Y964975D02*
X1257518Y965538D01*
X1257518D02*
X1257245Y965725D01*
X1256836*
X1256564Y965538*
X1256564D02*
X1256427Y964975D01*
Y963100*
X1255200Y964788D02*
X1252745D01*
X1251518Y967038D02*
Y963100D01*
Y967038D02*
X1249745D01*
X1251518Y965163D02*
X1250427D01*
X1251518Y963100D02*
X1249745D01*
X1248518Y967038D02*
X1247427Y963100D01*
X1246336Y967038D02*
X1247427Y963100D01*
X1239927Y966100D02*
X1240064Y966475D01*
X1240336Y966850*
X1240609Y967038*
X1240609D02*
X1241155D01*
X1241155D02*
X1241427Y966850D01*
X1241700Y966475*
X1241836Y966100*
X1241973Y965538*
X1241973D02*
Y964600D01*
X1241836Y964038*
X1241836D02*
X1241700Y963663D01*
X1241700D02*
X1241427Y963288D01*
X1241427D02*
X1241155Y963100D01*
X1240609*
X1240336Y963288*
X1240336D02*
X1240064Y963663D01*
X1240064D02*
X1239927Y964038D01*
X1238700Y967038D02*
Y963100D01*
Y964975D02*
X1238291Y965538D01*
X1238291D02*
X1238018Y965725D01*
X1237609*
X1237336Y965538*
X1237336D02*
X1237200Y964975D01*
Y963100*
X1234336Y965725D02*
Y963100D01*
Y965163D02*
X1234609Y965538D01*
X1234609D02*
X1234882Y965725D01*
X1235291*
X1235564Y965538*
X1235564D02*
X1235836Y965163D01*
X1235836D02*
X1235973Y964600D01*
Y964225*
X1235836Y963663*
X1235836D02*
X1235564Y963288D01*
X1235564D02*
X1235291Y963100D01*
X1234882*
X1234609Y963288*
X1234609D02*
X1234336Y963663D01*
X1233109Y965725D02*
Y963100D01*
Y964600D02*
X1232973Y965163D01*
X1232973D02*
X1232700Y965538D01*
X1232700D02*
X1232427Y965725D01*
X1232018*
X1229155D02*
Y962725D01*
X1229291Y962162*
X1229291D02*
X1229427Y961975D01*
X1229700Y961787*
X1229700D02*
X1230109D01*
X1230109D02*
X1230382Y961975D01*
X1229155Y965163D02*
X1229427Y965538D01*
X1229427D02*
X1229700Y965725D01*
X1230109*
X1230382Y965538*
X1230382D02*
X1230655Y965163D01*
X1230655D02*
X1230791Y964600D01*
Y964225*
X1230655Y963663*
X1230655D02*
X1230382Y963288D01*
X1230382D02*
X1230109Y963100D01*
X1229700*
X1229427Y963288*
X1229427D02*
X1229155Y963663D01*
X1227927Y964600D02*
X1226291D01*
Y964975*
X1226427Y965350*
X1226564Y965538*
X1226564D02*
X1226836Y965725D01*
X1227245*
X1227518Y965538*
X1227518D02*
X1227791Y965163D01*
X1227791D02*
X1227927Y964600D01*
Y964225*
X1227791Y963663*
X1227791D02*
X1227518Y963288D01*
X1227518D02*
X1227245Y963100D01*
X1226836*
X1226564Y963288*
X1226564D02*
X1226291Y963663D01*
X1225064Y965725D02*
Y963100D01*
Y964600D02*
X1224927Y965163D01*
X1224927D02*
X1224655Y965538D01*
X1224655D02*
X1224382Y965725D01*
X1223973*
X1221791Y967788D02*
X1222064Y967413D01*
X1222064D02*
X1222336Y966850D01*
X1222609Y966100*
X1222745Y965163*
X1222745D02*
Y964413D01*
X1222745D02*
X1222609Y963475D01*
X1222336Y962725*
X1222064Y962162*
X1222064D02*
X1221791Y961787D01*
X1220564Y967038D02*
Y963100D01*
Y967038D02*
X1219473Y963100D01*
X1218382Y967038D02*
X1219473Y963100D01*
X1218382Y967038D02*
Y963100D01*
X1215109Y966100D02*
X1215245Y966475D01*
X1215518Y966850*
X1215791Y967038*
X1215791D02*
X1216336D01*
X1216336D02*
X1216609Y966850D01*
X1216882Y966475*
X1217018Y966100*
X1217155Y965538*
X1217155D02*
Y964600D01*
X1217018Y964038*
X1217018D02*
X1216882Y963663D01*
X1216882D02*
X1216609Y963288D01*
X1216609D02*
X1216336Y963100D01*
X1215791*
X1215518Y963288*
X1215518D02*
X1215245Y963663D01*
X1215245D02*
X1215109Y964038D01*
X1213882Y967038D02*
Y964225D01*
X1213745Y963663*
X1213745D02*
X1213473Y963288D01*
X1213473D02*
X1213064Y963100D01*
X1212791*
X1212382Y963288*
X1212382D02*
X1212109Y963663D01*
X1212109D02*
X1211973Y964225D01*
Y967038*
X1207609D02*
Y963100D01*
Y967038D02*
X1206382D01*
X1206382D02*
X1205973Y966850D01*
X1205836Y966663*
X1205836D02*
X1205700Y966288D01*
X1205700D02*
Y965913D01*
X1205700D02*
X1205836Y965538D01*
X1205836D02*
X1205973Y965350D01*
X1206382Y965163*
X1207609D02*
X1206382D01*
X1206382D02*
X1205973Y964975D01*
X1205836Y964788*
X1205836D02*
X1205700Y964413D01*
X1205700D02*
Y963850D01*
X1205836Y963475*
X1205973Y963288*
X1205973D02*
X1206382Y963100D01*
X1207609*
X1203791Y965725D02*
X1204064Y965538D01*
X1204064D02*
X1204336Y965163D01*
X1204336D02*
X1204473Y964600D01*
Y964225*
X1204336Y963663*
X1204336D02*
X1204064Y963288D01*
X1204064D02*
X1203791Y963100D01*
X1203382*
X1203109Y963288*
X1203109D02*
X1202836Y963663D01*
X1202836D02*
X1202700Y964225D01*
Y964600*
X1202836Y965163*
X1202836D02*
X1203109Y965538D01*
X1203109D02*
X1203382Y965725D01*
X1203791*
X1199836D02*
Y963100D01*
Y965163D02*
X1200109Y965538D01*
X1200109D02*
X1200382Y965725D01*
X1200791*
X1201064Y965538*
X1201064D02*
X1201336Y965163D01*
X1201336D02*
X1201473Y964600D01*
Y964225*
X1201336Y963663*
X1201336D02*
X1201064Y963288D01*
X1201064D02*
X1200791Y963100D01*
X1200382*
X1200109Y963288*
X1200109D02*
X1199836Y963663D01*
X1198609Y965725D02*
Y963100D01*
Y964600D02*
X1198473Y965163D01*
X1198473D02*
X1198200Y965538D01*
X1198200D02*
X1197927Y965725D01*
X1197518*
X1194655Y967038D02*
Y963100D01*
Y965163D02*
X1194927Y965538D01*
X1194927D02*
X1195200Y965725D01*
X1195609*
X1195882Y965538*
X1195882D02*
X1196155Y965163D01*
X1196155D02*
X1196291Y964600D01*
Y964225*
X1196155Y963663*
X1196155D02*
X1195882Y963288D01*
X1195882D02*
X1195609Y963100D01*
X1195200*
X1194927Y963288*
X1194927D02*
X1194655Y963663D01*
X1193427Y967788D02*
X1193155Y967413D01*
X1193155D02*
X1192882Y966850D01*
X1192609Y966100*
X1192473Y965163*
X1192473D02*
Y964413D01*
X1192473D02*
X1192609Y963475D01*
X1192882Y962725*
X1193155Y962162*
X1193155D02*
X1193427Y961787D01*
X1264200Y958738D02*
Y954800D01*
Y958738D02*
X1262973D01*
X1262973D02*
X1262564Y958550D01*
X1262427Y958363*
X1262427D02*
X1262291Y957988D01*
X1262291D02*
Y957425D01*
X1262427Y957050*
X1262564Y956863*
X1262564D02*
X1262973Y956675D01*
X1264200*
X1261064Y958738D02*
Y954800D01*
Y958738D02*
X1259155Y954800D01*
Y958738D02*
Y954800D01*
X1257791Y957425D02*
X1257927Y957238D01*
X1257927D02*
X1257791Y957050D01*
X1257655Y957238*
X1257655D02*
X1257791Y957425D01*
Y955175D02*
X1257927Y954988D01*
X1257927D02*
X1257791Y954800D01*
X1257655Y954988*
X1257655D02*
X1257791Y955175D01*
X1253291Y958738D02*
Y954800D01*
Y958738D02*
X1252064D01*
X1252064D02*
X1251655Y958550D01*
X1251518Y958363*
X1251518D02*
X1251382Y957988D01*
X1251382D02*
Y957425D01*
X1251518Y957050*
X1251655Y956863*
X1251655D02*
X1252064Y956675D01*
X1253291*
X1250155Y957988D02*
X1249882Y958175D01*
X1249473Y958738*
X1249473D02*
Y954800D01*
X1247564Y958738D02*
X1247973Y958550D01*
X1248109Y958175*
Y957800*
X1247973Y957425*
X1247700Y957238*
X1247700D02*
X1247155Y957050D01*
X1246745Y956863*
X1246745D02*
X1246473Y956488D01*
X1246473D02*
X1246336Y956113D01*
X1246336D02*
Y955550D01*
X1246473Y955175*
X1246609Y954988*
X1246609D02*
X1247018Y954800D01*
X1247564*
X1247973Y954988*
X1247973D02*
X1248109Y955175D01*
X1248245Y955550*
Y956113*
X1248245D02*
X1248109Y956488D01*
X1248109D02*
X1247836Y956863D01*
X1247836D02*
X1247427Y957050D01*
X1246882Y957238*
X1246882D02*
X1246609Y957425D01*
X1246473Y957800*
Y958175*
X1246609Y958550*
X1247018Y958738*
X1247018D02*
X1247564D01*
X1245109Y956488D02*
X1242655D01*
X1240609Y958738D02*
X1241018Y958550D01*
X1241291Y957988*
X1241291D02*
X1241427Y957050D01*
Y956488*
X1241427D02*
X1241291Y955550D01*
X1241018Y954988*
X1241018D02*
X1240609Y954800D01*
X1240336*
X1239927Y954988*
X1239927D02*
X1239655Y955550D01*
X1239518Y956488*
X1239518D02*
Y957050D01*
X1239655Y957988*
X1239655D02*
X1239927Y958550D01*
X1240336Y958738*
X1240336D02*
X1240609D01*
X1237473D02*
X1237882Y958550D01*
X1238155Y957988*
X1238155D02*
X1238291Y957050D01*
Y956488*
X1238291D02*
X1238155Y955550D01*
X1237882Y954988*
X1237882D02*
X1237473Y954800D01*
X1237200*
X1236791Y954988*
X1236791D02*
X1236518Y955550D01*
X1236382Y956488*
X1236382D02*
Y957050D01*
X1236518Y957988*
X1236518D02*
X1236791Y958550D01*
X1237200Y958738*
X1237200D02*
X1237473D01*
X1235155Y957988D02*
X1234882Y958175D01*
X1234473Y958738*
X1234473D02*
Y954800D01*
X1264500Y946338D02*
X1263409Y942400D01*
X1262318Y946338D02*
X1263409Y942400D01*
X1261091Y943900D02*
X1259455D01*
Y944275*
X1259591Y944650*
X1259727Y944838*
X1259727D02*
X1260000Y945025D01*
X1260409*
X1260682Y944838*
X1260682D02*
X1260955Y944463D01*
X1260955D02*
X1261091Y943900D01*
Y943525*
X1260955Y942963*
X1260955D02*
X1260682Y942588D01*
X1260682D02*
X1260409Y942400D01*
X1260000*
X1259727Y942588*
X1259727D02*
X1259455Y942963D01*
X1258227Y945025D02*
Y942400D01*
Y943900D02*
X1258091Y944463D01*
X1258091D02*
X1257818Y944838D01*
X1257818D02*
X1257545Y945025D01*
X1257136*
X1254409Y944463D02*
X1254545Y944838D01*
X1254545D02*
X1254955Y945025D01*
X1255364*
X1255773Y944838*
X1255773D02*
X1255909Y944463D01*
X1255909D02*
X1255773Y944088D01*
X1255773D02*
X1255500Y943900D01*
X1254818Y943713*
X1254818D02*
X1254545Y943525D01*
X1254409Y943150*
Y942963*
X1254409D02*
X1254545Y942588D01*
X1254545D02*
X1254955Y942400D01*
X1255364*
X1255773Y942588*
X1255773D02*
X1255909Y942963D01*
X1253182Y946338D02*
X1253045Y946150D01*
X1252909Y946338*
X1252909D02*
X1253045Y946525D01*
X1253182Y946338*
X1253045Y945025D02*
Y942400D01*
X1251000Y945025D02*
X1251273Y944838D01*
X1251273D02*
X1251545Y944463D01*
X1251545D02*
X1251682Y943900D01*
Y943525*
X1251545Y942963*
X1251545D02*
X1251273Y942588D01*
X1251273D02*
X1251000Y942400D01*
X1250591*
X1250318Y942588*
X1250318D02*
X1250045Y942963D01*
X1250045D02*
X1249909Y943525D01*
Y943900*
X1250045Y944463*
X1250045D02*
X1250318Y944838D01*
X1250318D02*
X1250591Y945025D01*
X1251000*
X1248682D02*
Y942400D01*
Y944275D02*
X1248273Y944838D01*
X1248273D02*
X1248000Y945025D01*
X1247591*
X1247318Y944838*
X1247318D02*
X1247182Y944275D01*
Y942400*
X1245818Y945025D02*
X1245955Y944838D01*
X1245955D02*
X1245818Y944650D01*
X1245682Y944838*
X1245682D02*
X1245818Y945025D01*
Y942775D02*
X1245955Y942588D01*
X1245955D02*
X1245818Y942400D01*
X1245682Y942588*
X1245682D02*
X1245818Y942775D01*
X1241318Y946338D02*
X1240227Y942400D01*
X1239136Y946338D02*
X1240227Y942400D01*
X1237909Y945588D02*
X1237636Y945775D01*
X1237227Y946338*
X1237227D02*
Y942400D01*
X1235864Y942775D02*
X1236000Y942588D01*
X1236000D02*
X1235864Y942400D01*
X1235727Y942588*
X1235727D02*
X1235864Y942775D01*
X1234500Y945588D02*
X1234227Y945775D01*
X1233818Y946338*
X1233818D02*
Y942400D01*
X1264400Y939138D02*
Y935200D01*
Y939138D02*
X1263173D01*
X1263173D02*
X1262764Y938950D01*
X1262627Y938763*
X1262627D02*
X1262491Y938388D01*
X1262491D02*
Y938013D01*
X1262491D02*
X1262627Y937638D01*
X1262627D02*
X1262764Y937450D01*
X1263173Y937263*
X1264400D02*
X1263173D01*
X1263173D02*
X1262764Y937075D01*
X1262627Y936888*
X1262627D02*
X1262491Y936513D01*
X1262491D02*
Y935950D01*
X1262627Y935575*
X1262764Y935388*
X1262764D02*
X1263173Y935200D01*
X1264400*
X1261127Y937825D02*
X1260309Y935200D01*
X1259491Y937825D02*
X1260309Y935200D01*
X1260582Y934450*
X1260855Y934075*
X1261127Y933887*
X1261127D02*
X1261264D01*
X1255127Y939138D02*
Y935200D01*
Y939138D02*
X1254173D01*
X1254173D02*
X1253764Y938950D01*
X1253491Y938575*
X1253355Y938200*
X1253218Y937638*
X1253218D02*
Y936700D01*
X1253355Y936138*
X1253355D02*
X1253491Y935763D01*
X1253491D02*
X1253764Y935388D01*
X1253764D02*
X1254173Y935200D01*
X1255127*
X1251991Y936700D02*
X1250355D01*
Y937075*
X1250491Y937450*
X1250627Y937638*
X1250627D02*
X1250900Y937825D01*
X1251309*
X1251582Y937638*
X1251582D02*
X1251855Y937263D01*
X1251855D02*
X1251991Y936700D01*
Y936325*
X1251855Y935763*
X1251855D02*
X1251582Y935388D01*
X1251582D02*
X1251309Y935200D01*
X1250900*
X1250627Y935388*
X1250627D02*
X1250355Y935763D01*
X1249127Y937825D02*
Y935200D01*
Y936700D02*
X1248991Y937263D01*
X1248991D02*
X1248718Y937638D01*
X1248718D02*
X1248445Y937825D01*
X1248036*
X1246809Y936700D02*
X1245173D01*
Y937075*
X1245309Y937450*
X1245445Y937638*
X1245445D02*
X1245718Y937825D01*
X1246127*
X1246400Y937638*
X1246400D02*
X1246673Y937263D01*
X1246673D02*
X1246809Y936700D01*
Y936325*
X1246673Y935763*
X1246673D02*
X1246400Y935388D01*
X1246400D02*
X1246127Y935200D01*
X1245718*
X1245445Y935388*
X1245445D02*
X1245173Y935763D01*
X1243945Y939138D02*
Y935200D01*
X1242582Y937825D02*
X1243945Y935950D01*
X1243400Y936700D02*
X1242445Y935200D01*
X1236173Y939138D02*
X1238082Y935200D01*
Y939138D02*
X1236173D01*
X1238082Y935200D02*
X1236173D01*
X1234945Y939138D02*
Y935200D01*
Y937075D02*
X1234536Y937638D01*
X1234536D02*
X1234264Y937825D01*
X1233855*
X1233582Y937638*
X1233582D02*
X1233445Y937075D01*
Y935200*
X1232218Y937825D02*
Y935950D01*
X1232082Y935388*
X1232082D02*
X1231809Y935200D01*
X1231400*
X1231127Y935388*
X1231127D02*
X1230718Y935950D01*
Y937825D02*
Y935200D01*
X1264464Y930500D02*
Y930688D01*
X1264464D02*
X1264327Y931063D01*
X1264327D02*
X1264191Y931250D01*
X1263918Y931438*
X1263918D02*
X1263373D01*
X1263373D02*
X1263100Y931250D01*
X1262964Y931063*
X1262964D02*
X1262827Y930688D01*
X1262827D02*
Y930313D01*
X1262827D02*
X1262964Y929938D01*
X1262964D02*
X1263236Y929375D01*
X1264600Y927500*
X1262691*
X1260645Y931438D02*
X1261055Y931250D01*
X1261327Y930688*
X1261327D02*
X1261464Y929750D01*
Y929188*
X1261464D02*
X1261327Y928250D01*
X1261055Y927688*
X1261055D02*
X1260645Y927500D01*
X1260373*
X1259964Y927688*
X1259964D02*
X1259691Y928250D01*
X1259555Y929188*
X1259555D02*
Y929750D01*
X1259691Y930688*
X1259691D02*
X1259964Y931250D01*
X1260373Y931438*
X1260373D02*
X1260645D01*
X1258327Y930688D02*
X1258055Y930875D01*
X1257645Y931438*
X1257645D02*
Y927500D01*
X1255736Y931438D02*
X1256145Y931250D01*
X1256282Y930875*
Y930500*
X1256145Y930125*
X1255873Y929938*
X1255873D02*
X1255327Y929750D01*
X1254918Y929563*
X1254918D02*
X1254645Y929188D01*
X1254645D02*
X1254509Y928813D01*
X1254509D02*
Y928250D01*
X1254645Y927875*
X1254782Y927688*
X1254782D02*
X1255191Y927500D01*
X1255736*
X1256145Y927688*
X1256145D02*
X1256282Y927875D01*
X1256418Y928250*
Y928813*
X1256418D02*
X1256282Y929188D01*
X1256282D02*
X1256009Y929563D01*
X1256009D02*
X1255600Y929750D01*
X1255055Y929938*
X1255055D02*
X1254782Y930125D01*
X1254645Y930500*
Y930875*
X1254782Y931250*
X1255191Y931438*
X1255191D02*
X1255736D01*
X1253145Y927875D02*
X1253282Y927688D01*
X1253282D02*
X1253145Y927500D01*
X1253009Y927688*
X1253009D02*
X1253145Y927875D01*
X1251782Y930688D02*
X1251509Y930875D01*
X1251100Y931438*
X1251100D02*
Y927500D01*
X1249873Y930688D02*
X1249600Y930875D01*
X1249191Y931438*
X1249191D02*
Y927500D01*
X1247827Y927875D02*
X1247964Y927688D01*
X1247964D02*
X1247827Y927500D01*
X1247691Y927688*
X1247691D02*
X1247827Y927875D01*
X1246327Y930500D02*
Y930688D01*
X1246327D02*
X1246191Y931063D01*
X1246191D02*
X1246055Y931250D01*
X1245782Y931438*
X1245782D02*
X1245236D01*
X1245236D02*
X1244964Y931250D01*
X1244827Y931063*
X1244827D02*
X1244691Y930688D01*
X1244691D02*
Y930313D01*
X1244691D02*
X1244827Y929938D01*
X1244827D02*
X1245100Y929375D01*
X1246464Y927500*
X1244555*
X1241418Y931438D02*
X1242782Y927500D01*
X1243327Y931438D02*
X1241418D01*
X1262391Y952175D02*
X1262664Y952550D01*
X1263073Y952738*
X1263073D02*
X1263618D01*
X1263618D02*
X1264027Y952550D01*
X1264300Y952175*
Y951800*
X1264164Y951425*
X1264027Y951238*
X1264027D02*
X1263755Y951050D01*
X1262936Y950675*
X1262664Y950488*
X1262664D02*
X1262527Y950300D01*
X1262391Y949925*
Y949363*
X1262391D02*
X1262664Y948988D01*
X1262664D02*
X1263073Y948800D01*
X1263618*
X1264027Y948988*
X1264027D02*
X1264300Y949363D01*
X1261164Y952738D02*
Y948800D01*
Y952738D02*
X1259255Y948800D01*
Y952738D02*
Y948800D01*
X1257891Y951425D02*
X1258027Y951238D01*
X1258027D02*
X1257891Y951050D01*
X1257755Y951238*
X1257755D02*
X1257891Y951425D01*
Y949175D02*
X1258027Y948988D01*
X1258027D02*
X1257891Y948800D01*
X1257755Y948988*
X1257755D02*
X1257891Y949175D01*
X1253391Y951988D02*
X1253118Y952175D01*
X1252709Y952738*
X1252709D02*
Y948800D01*
X1250800Y952738D02*
X1251209Y952550D01*
X1251345Y952175*
Y951800*
X1251209Y951425*
X1250936Y951238*
X1250936D02*
X1250391Y951050D01*
X1249982Y950863*
X1249982D02*
X1249709Y950488D01*
X1249709D02*
X1249573Y950113D01*
X1249573D02*
Y949550D01*
X1249709Y949175*
X1249845Y948988*
X1249845D02*
X1250255Y948800D01*
X1250800*
X1251209Y948988*
X1251209D02*
X1251345Y949175D01*
X1251482Y949550*
Y950113*
X1251482D02*
X1251345Y950488D01*
X1251345D02*
X1251073Y950863D01*
X1251073D02*
X1250664Y951050D01*
X1250118Y951238*
X1250118D02*
X1249845Y951425D01*
X1249709Y951800*
Y952175*
X1249845Y952550*
X1250255Y952738*
X1250255D02*
X1250800D01*
X1248345Y950488D02*
X1245891D01*
X1243845Y952738D02*
X1244255Y952550D01*
X1244527Y951988*
X1244527D02*
X1244664Y951050D01*
Y950488*
X1244664D02*
X1244527Y949550D01*
X1244255Y948988*
X1244255D02*
X1243845Y948800D01*
X1243573*
X1243164Y948988*
X1243164D02*
X1242891Y949550D01*
X1242755Y950488*
X1242755D02*
Y951050D01*
X1242891Y951988*
X1242891D02*
X1243164Y952550D01*
X1243573Y952738*
X1243573D02*
X1243845D01*
X1240709D02*
X1241118Y952550D01*
X1241391Y951988*
X1241391D02*
X1241527Y951050D01*
Y950488*
X1241527D02*
X1241391Y949550D01*
X1241118Y948988*
X1241118D02*
X1240709Y948800D01*
X1240436*
X1240027Y948988*
X1240027D02*
X1239755Y949550D01*
X1239618Y950488*
X1239618D02*
Y951050D01*
X1239755Y951988*
X1239755D02*
X1240027Y952550D01*
X1240436Y952738*
X1240436D02*
X1240709D01*
X1238391Y951988D02*
X1238118Y952175D01*
X1237709Y952738*
X1237709D02*
Y948800D01*
X1177662Y1023727D02*
Y1022227D01*
X1177662D02*
X1179162Y1023045D01*
X1179162D02*
Y1022636D01*
X1179162D02*
X1179350Y1022364D01*
X1179537Y1022227*
X1179537D02*
X1180100Y1022091D01*
X1180475*
X1181037Y1022227*
X1181037D02*
X1181412Y1022500D01*
X1181412D02*
X1181600Y1022909D01*
Y1023318*
X1181412Y1023727*
X1181412D02*
X1181225Y1023864D01*
X1180850Y1024000*
X1177662Y1020864D02*
X1181600Y1019773D01*
X1177662Y1018682D02*
X1181600Y1019773D01*
X1177662Y1017182D02*
Y1015682D01*
X1177662D02*
X1179162Y1016500D01*
X1179162D02*
Y1016091D01*
X1179162D02*
X1179350Y1015818D01*
X1179537Y1015682*
X1179537D02*
X1180100Y1015545D01*
X1180475*
X1181037Y1015682*
X1181037D02*
X1181412Y1015955D01*
X1181412D02*
X1181600Y1016364D01*
Y1016773*
X1181412Y1017182*
X1181412D02*
X1181225Y1017318D01*
X1180850Y1017455*
X1188600Y1021855D02*
X1188225Y1021991D01*
X1187850Y1022264*
X1187662Y1022536*
X1187662D02*
Y1023082D01*
X1187662D02*
X1187850Y1023355D01*
X1188225Y1023627*
X1188600Y1023764*
X1189162Y1023900*
X1189162D02*
X1190100D01*
X1190662Y1023764*
X1190662D02*
X1191037Y1023627D01*
X1191037D02*
X1191412Y1023355D01*
X1191412D02*
X1191600Y1023082D01*
Y1022536*
X1191412Y1022264*
X1191412D02*
X1191037Y1021991D01*
X1191037D02*
X1190662Y1021855D01*
X1190662D02*
X1190100D01*
Y1022536D02*
Y1021855D01*
X1187662Y1020627D02*
X1191600D01*
X1187662D02*
X1191600Y1018718D01*
X1187662D02*
X1191600D01*
X1187662Y1017491D02*
X1191600D01*
X1187662D02*
Y1016536D01*
X1187662D02*
X1187850Y1016127D01*
X1188225Y1015855*
X1188600Y1015718*
X1189162Y1015582*
X1189162D02*
X1190100D01*
X1190662Y1015718*
X1190662D02*
X1191037Y1015855D01*
X1191037D02*
X1191412Y1016127D01*
X1191412D02*
X1191600Y1016536D01*
Y1017491*
X1197462Y1023800D02*
X1201400D01*
Y1022164*
X1197462Y1020936D02*
X1201400D01*
X1197462D02*
Y1019164D01*
X1199337Y1020936D02*
Y1019845D01*
X1201400Y1020936D02*
Y1019164D01*
X1197462Y1017936D02*
X1201400D01*
X1197462D02*
Y1016982D01*
X1197462D02*
X1197650Y1016573D01*
X1198025Y1016300*
X1198400Y1016164*
X1198962Y1016027*
X1198962D02*
X1199900D01*
X1200462Y1016164*
X1200462D02*
X1200837Y1016300D01*
X1200837D02*
X1201212Y1016573D01*
X1201212D02*
X1201400Y1016982D01*
Y1017936*
X1202150Y1014800D02*
Y1011936D01*
X1197462Y1011118D02*
X1201400Y1010436D01*
X1197462Y1009755D02*
X1201400Y1010436D01*
X1197462Y1009755D02*
X1201400Y1009073D01*
X1197462Y1008391D02*
X1201400Y1009073D01*
X1207362Y1024100D02*
X1211300D01*
Y1022464*
X1207362Y1021236D02*
X1211300D01*
X1207362D02*
Y1019464D01*
X1209237Y1021236D02*
Y1020145D01*
X1211300Y1021236D02*
Y1019464D01*
X1207362Y1018236D02*
X1211300D01*
X1207362D02*
Y1017282D01*
X1207362D02*
X1207550Y1016873D01*
X1207925Y1016600*
X1208300Y1016464*
X1208862Y1016327*
X1208862D02*
X1209800D01*
X1210362Y1016464*
X1210362D02*
X1210737Y1016600D01*
X1210737D02*
X1211112Y1016873D01*
X1211112D02*
X1211300Y1017282D01*
Y1018236*
X1212050Y1015100D02*
Y1012236D01*
X1207362Y1011418D02*
X1211300D01*
X1207362D02*
Y1010191D01*
X1207362D02*
X1207550Y1009782D01*
X1207737Y1009645*
X1207737D02*
X1208112Y1009509D01*
X1208112D02*
X1208487D01*
X1208487D02*
X1208862Y1009645D01*
X1208862D02*
X1209050Y1009782D01*
X1209237Y1010191*
Y1011418D02*
Y1010191D01*
X1209237D02*
X1209425Y1009782D01*
X1209612Y1009645*
X1209612D02*
X1209987Y1009509D01*
X1209987D02*
X1210550D01*
X1210925Y1009645*
X1211112Y1009782*
X1211112D02*
X1211300Y1010191D01*
Y1011418*
X1217362Y1024000D02*
X1221300D01*
Y1022364*
X1217362Y1021136D02*
X1221300D01*
X1217362D02*
Y1019364D01*
X1219237Y1021136D02*
Y1020045D01*
X1221300Y1021136D02*
Y1019364D01*
X1217362Y1018136D02*
X1221300D01*
X1217362D02*
Y1017182D01*
X1217362D02*
X1217550Y1016773D01*
X1217925Y1016500*
X1218300Y1016364*
X1218862Y1016227*
X1218862D02*
X1219800D01*
X1220362Y1016364*
X1220362D02*
X1220737Y1016500D01*
X1220737D02*
X1221112Y1016773D01*
X1221112D02*
X1221300Y1017182D01*
Y1018136*
X1222050Y1015000D02*
Y1012136D01*
X1218300Y1009273D02*
X1217925Y1009409D01*
X1217550Y1009682*
X1217362Y1009955*
X1217362D02*
Y1010500D01*
X1217362D02*
X1217550Y1010773D01*
X1217925Y1011045*
X1218300Y1011182*
X1218862Y1011318*
X1218862D02*
X1219800D01*
X1220362Y1011182*
X1220362D02*
X1220737Y1011045D01*
X1220737D02*
X1221112Y1010773D01*
X1221112D02*
X1221300Y1010500D01*
Y1009955*
X1221112Y1009682*
X1221112D02*
X1220737Y1009409D01*
X1220737D02*
X1220362Y1009273D01*
X1220362D02*
X1219800D01*
Y1009955D02*
Y1009273D01*
X1227562Y1023800D02*
X1231500D01*
Y1022164*
X1227562Y1020936D02*
X1231500D01*
X1227562D02*
Y1019164D01*
X1229437Y1020936D02*
Y1019845D01*
X1231500Y1020936D02*
Y1019164D01*
X1227562Y1017936D02*
X1231500D01*
X1227562D02*
Y1016982D01*
X1227562D02*
X1227750Y1016573D01*
X1228125Y1016300*
X1228500Y1016164*
X1229062Y1016027*
X1229062D02*
X1230000D01*
X1230562Y1016164*
X1230562D02*
X1230937Y1016300D01*
X1230937D02*
X1231312Y1016573D01*
X1231312D02*
X1231500Y1016982D01*
Y1017936*
X1232250Y1014800D02*
Y1011936D01*
X1227562Y1011118D02*
X1229437Y1010027D01*
X1229437D02*
X1231500D01*
X1227562Y1008936D02*
X1229437Y1010027D01*
X1237462Y1023800D02*
X1241400D01*
X1237462D02*
Y1022573D01*
X1237462D02*
X1237650Y1022164D01*
X1237837Y1022027*
X1237837D02*
X1238212Y1021891D01*
X1238212D02*
X1238775D01*
X1239150Y1022027*
X1239337Y1022164*
X1239337D02*
X1239525Y1022573D01*
Y1023800*
X1237462Y1020664D02*
X1241400D01*
X1237462Y1018618D02*
X1237650Y1018891D01*
X1238025Y1019164*
X1238400Y1019300*
X1238962Y1019436*
X1238962D02*
X1239900D01*
X1240462Y1019300*
X1240462D02*
X1240837Y1019164D01*
X1240837D02*
X1241212Y1018891D01*
X1241212D02*
X1241400Y1018618D01*
Y1018073*
X1241212Y1017800*
X1241212D02*
X1240837Y1017527D01*
X1240837D02*
X1240462Y1017391D01*
X1240462D02*
X1239900Y1017255D01*
X1238962*
X1238962D02*
X1238400Y1017391D01*
X1238025Y1017527*
X1237650Y1017800*
X1237462Y1018073*
X1237462D02*
Y1018618D01*
X1238212Y1016027D02*
X1238025Y1015755D01*
X1237462Y1015345*
X1237462D02*
X1241400D01*
X1242150Y1014118D02*
Y1011255D01*
X1237462Y1010164D02*
Y1008664D01*
X1237462D02*
X1238962Y1009482D01*
X1238962D02*
Y1009073D01*
X1238962D02*
X1239150Y1008800D01*
X1239337Y1008664*
X1239337D02*
X1239900Y1008527D01*
X1240275*
X1240837Y1008664*
X1240837D02*
X1241212Y1008936D01*
X1241212D02*
X1241400Y1009345D01*
Y1009755*
X1241212Y1010164*
X1241212D02*
X1241025Y1010300D01*
X1240650Y1010436*
X1237462Y1006482D02*
X1237650Y1006891D01*
X1238212Y1007164*
X1238212D02*
X1239150Y1007300D01*
X1239712*
X1239712D02*
X1240650Y1007164D01*
X1241212Y1006891*
X1241212D02*
X1241400Y1006482D01*
Y1006209*
X1241212Y1005800*
X1241212D02*
X1240650Y1005527D01*
X1239712Y1005391*
X1239712D02*
X1239150D01*
X1238212Y1005527*
X1238212D02*
X1237650Y1005800D01*
X1237462Y1006209*
X1237462D02*
Y1006482D01*
X1248225Y1021791D02*
X1247850Y1022064D01*
X1247662Y1022473*
X1247662D02*
Y1023018D01*
X1247662D02*
X1247850Y1023427D01*
X1248225Y1023700*
X1248600*
X1248975Y1023564*
X1249162Y1023427*
X1249162D02*
X1249350Y1023155D01*
X1249725Y1022336*
X1249912Y1022064*
X1249912D02*
X1250100Y1021927D01*
X1250475Y1021791*
X1251037*
X1251037D02*
X1251412Y1022064D01*
X1251412D02*
X1251600Y1022473D01*
Y1023018*
X1251412Y1023427*
X1251412D02*
X1251037Y1023700D01*
X1247662Y1020564D02*
X1251600Y1019882D01*
X1247662Y1019200D02*
X1251600Y1019882D01*
X1247662Y1019200D02*
X1251600Y1018518D01*
X1247662Y1017836D02*
X1251600Y1018518D01*
X1257362Y1023700D02*
X1261300D01*
X1257362D02*
Y1022473D01*
X1257362D02*
X1257550Y1022064D01*
X1257737Y1021927*
X1257737D02*
X1258112Y1021791D01*
X1258112D02*
X1258487D01*
X1258487D02*
X1258862Y1021927D01*
X1258862D02*
X1259050Y1022064D01*
X1259237Y1022473*
X1259237D02*
Y1023700D01*
Y1022745D02*
X1261300Y1021791D01*
X1257925Y1018655D02*
X1257550Y1018927D01*
X1257362Y1019336*
X1257362D02*
Y1019882D01*
X1257362D02*
X1257550Y1020291D01*
X1257925Y1020564*
X1258300*
X1258675Y1020427*
X1258862Y1020291*
X1258862D02*
X1259050Y1020018D01*
X1259425Y1019200*
X1259612Y1018927*
X1259612D02*
X1259800Y1018791D01*
X1260175Y1018655*
X1260737*
X1260737D02*
X1261112Y1018927D01*
X1261112D02*
X1261300Y1019336D01*
Y1019882*
X1261112Y1020291*
X1261112D02*
X1260737Y1020564D01*
X1257362Y1016473D02*
X1261300D01*
X1257362Y1017427D02*
Y1015518D01*
X1267362Y1023800D02*
X1271300D01*
X1267362D02*
Y1022573D01*
X1267362D02*
X1267550Y1022164D01*
X1267737Y1022027*
X1267737D02*
X1268112Y1021891D01*
X1268112D02*
X1268675D01*
X1269050Y1022027*
X1269237Y1022164*
X1269237D02*
X1269425Y1022573D01*
Y1023800*
X1267362Y1020664D02*
X1271300D01*
X1267362Y1018618D02*
X1267550Y1018891D01*
X1267925Y1019164*
X1268300Y1019300*
X1268862Y1019436*
X1268862D02*
X1269800D01*
X1270362Y1019300*
X1270362D02*
X1270737Y1019164D01*
X1270737D02*
X1271112Y1018891D01*
X1271112D02*
X1271300Y1018618D01*
Y1018073*
X1271112Y1017800*
X1271112D02*
X1270737Y1017527D01*
X1270737D02*
X1270362Y1017391D01*
X1270362D02*
X1269800Y1017255D01*
X1268862*
X1268862D02*
X1268300Y1017391D01*
X1267925Y1017527*
X1267550Y1017800*
X1267362Y1018073*
X1267362D02*
Y1018618D01*
Y1015209D02*
X1267550Y1015618D01*
X1268112Y1015891*
X1268112D02*
X1269050Y1016027D01*
X1269612*
X1269612D02*
X1270550Y1015891D01*
X1271112Y1015618*
X1271112D02*
X1271300Y1015209D01*
Y1014936*
X1271112Y1014527*
X1271112D02*
X1270550Y1014255D01*
X1269612Y1014118*
X1269612D02*
X1269050D01*
X1268112Y1014255*
X1268112D02*
X1267550Y1014527D01*
X1267362Y1014936*
X1267362D02*
Y1015209D01*
X1272050Y1012891D02*
Y1010027D01*
X1268300Y1009073D02*
X1268112D01*
X1268112D02*
X1267737Y1008936D01*
X1267737D02*
X1267550Y1008800D01*
X1267362Y1008527*
X1267362D02*
Y1007982D01*
X1267362D02*
X1267550Y1007709D01*
X1267737Y1007573*
X1267737D02*
X1268112Y1007436D01*
X1268112D02*
X1268487D01*
X1268487D02*
X1268862Y1007573D01*
X1268862D02*
X1269425Y1007845D01*
X1271300Y1009209*
Y1007300*
X1268112Y1006073D02*
X1267925Y1005800D01*
X1267362Y1005391*
X1267362D02*
X1271300D01*
X1296800Y897255D02*
X1296425Y897391D01*
X1296050Y897664*
X1295862Y897936*
X1295862D02*
Y898482D01*
X1295862D02*
X1296050Y898755D01*
X1296425Y899027*
X1296800Y899164*
X1297362Y899300*
X1297362D02*
X1298300D01*
X1298862Y899164*
X1298862D02*
X1299237Y899027D01*
X1299237D02*
X1299612Y898755D01*
X1299612D02*
X1299800Y898482D01*
Y897936*
X1299612Y897664*
X1299612D02*
X1299237Y897391D01*
X1299237D02*
X1298862Y897255D01*
X1295862Y896027D02*
X1299800D01*
X1295862D02*
Y894800D01*
X1295862D02*
X1296050Y894391D01*
X1296237Y894255*
X1296237D02*
X1296612Y894118D01*
X1296612D02*
X1297175D01*
X1297550Y894255*
X1297737Y894391*
X1297737D02*
X1297925Y894800D01*
Y896027*
X1286600Y899955D02*
X1286225Y900091D01*
X1285850Y900364*
X1285662Y900636*
X1285662D02*
Y901182D01*
X1285662D02*
X1285850Y901455D01*
X1286225Y901727*
X1286600Y901864*
X1287162Y902000*
X1287162D02*
X1288100D01*
X1288662Y901864*
X1288662D02*
X1289037Y901727D01*
X1289037D02*
X1289412Y901455D01*
X1289412D02*
X1289600Y901182D01*
Y900636*
X1289412Y900364*
X1289412D02*
X1289037Y900091D01*
X1289037D02*
X1288662Y899955D01*
X1288662D02*
X1288100D01*
Y900636D02*
Y899955D01*
X1285662Y898727D02*
X1289600D01*
X1285662D02*
X1289600Y896818D01*
X1285662D02*
X1289600D01*
X1285662Y895591D02*
X1289600D01*
X1285662D02*
Y894636D01*
X1285662D02*
X1285850Y894227D01*
X1286225Y893955*
X1286600Y893818*
X1287162Y893682*
X1287162D02*
X1288100D01*
X1288662Y893818*
X1288662D02*
X1289037Y893955D01*
X1289037D02*
X1289412Y894227D01*
X1289412D02*
X1289600Y894636D01*
Y895591*
X1275562Y903400D02*
X1279500D01*
X1275562D02*
Y902173D01*
X1275562D02*
X1275750Y901764D01*
X1275937Y901627*
X1275937D02*
X1276312Y901491D01*
X1276312D02*
X1276875D01*
X1277250Y901627*
X1277437Y901764*
X1277437D02*
X1277625Y902173D01*
Y903400*
X1275562Y900264D02*
X1279500Y899582D01*
X1275562Y898900D02*
X1279500Y899582D01*
X1275562Y898900D02*
X1279500Y898218D01*
X1275562Y897536D02*
X1279500Y898218D01*
X1275562Y896309D02*
X1279500D01*
X1275562D02*
X1279500Y895218D01*
X1275562Y894127D02*
X1279500Y895218D01*
X1275562Y894127D02*
X1279500D01*
X1266700Y900255D02*
X1266325Y900391D01*
X1265950Y900664*
X1265762Y900936*
X1265762D02*
Y901482D01*
X1265762D02*
X1265950Y901755D01*
X1266325Y902027*
X1266700Y902164*
X1267262Y902300*
X1267262D02*
X1268200D01*
X1268762Y902164*
X1268762D02*
X1269137Y902027D01*
X1269137D02*
X1269512Y901755D01*
X1269512D02*
X1269700Y901482D01*
Y900936*
X1269512Y900664*
X1269512D02*
X1269137Y900391D01*
X1269137D02*
X1268762Y900255D01*
X1268762D02*
X1268200D01*
Y900936D02*
Y900255D01*
X1265762Y899027D02*
X1269700D01*
X1265762D02*
X1269700Y897118D01*
X1265762D02*
X1269700D01*
X1265762Y895891D02*
X1269700D01*
X1265762D02*
Y894936D01*
X1265762D02*
X1265950Y894527D01*
X1266325Y894255*
X1266700Y894118*
X1267262Y893982*
X1267262D02*
X1268200D01*
X1268762Y894118*
X1268762D02*
X1269137Y894255D01*
X1269137D02*
X1269512Y894527D01*
X1269512D02*
X1269700Y894936D01*
Y895891*
X1255662Y910936D02*
X1258287Y912300D01*
X1258287D02*
Y910255D01*
X1255662Y910936D02*
X1259600D01*
X1255662Y908345D02*
X1255850Y908755D01*
X1256225Y908891*
X1256600*
X1256975Y908755*
X1257162Y908482*
X1257162D02*
X1257350Y907936D01*
X1257537Y907527*
X1257537D02*
X1257912Y907255D01*
X1257912D02*
X1258287Y907118D01*
X1258287D02*
X1258850D01*
X1259225Y907255*
X1259412Y907391*
X1259412D02*
X1259600Y907800D01*
Y908345*
X1259412Y908755*
X1259412D02*
X1259225Y908891D01*
X1258850Y909027*
X1258287*
X1258287D02*
X1257912Y908891D01*
X1257912D02*
X1257537Y908618D01*
X1257537D02*
X1257350Y908209D01*
X1257162Y907664*
X1257162D02*
X1256975Y907391D01*
X1256600Y907255*
X1256225*
X1255850Y907391*
X1255662Y907800*
X1255662D02*
Y908345D01*
Y904118D02*
Y905482D01*
X1255662D02*
X1257350Y905618D01*
X1257162Y905482*
X1257162D02*
X1256975Y905073D01*
Y904664*
X1257162Y904255*
X1257162D02*
X1257537Y903982D01*
X1257537D02*
X1258100Y903845D01*
X1258475Y903982*
X1259037Y904118*
X1259037D02*
X1259412Y904391D01*
X1259412D02*
X1259600Y904800D01*
Y905209*
X1259412Y905618*
X1259412D02*
X1259225Y905755D01*
X1258850Y905891*
X1260350Y902618D02*
Y899755D01*
X1255662Y897982D02*
X1259600D01*
X1255662Y898936D02*
Y897027D01*
Y895800D02*
X1259600Y893891D01*
X1255662D02*
X1259600Y895800D01*
X1245762Y911036D02*
X1248387Y912400D01*
X1248387D02*
Y910355D01*
X1245762Y911036D02*
X1249700D01*
X1245762Y908445D02*
X1245950Y908855D01*
X1246325Y908991*
X1246700*
X1247075Y908855*
X1247262Y908582*
X1247262D02*
X1247450Y908036D01*
X1247637Y907627*
X1247637D02*
X1248012Y907355D01*
X1248012D02*
X1248387Y907218D01*
X1248387D02*
X1248950D01*
X1249325Y907355*
X1249512Y907491*
X1249512D02*
X1249700Y907900D01*
Y908445*
X1249512Y908855*
X1249512D02*
X1249325Y908991D01*
X1248950Y909127*
X1248387*
X1248387D02*
X1248012Y908991D01*
X1248012D02*
X1247637Y908718D01*
X1247637D02*
X1247450Y908309D01*
X1247262Y907764*
X1247262D02*
X1247075Y907491D01*
X1246700Y907355*
X1246325*
X1245950Y907491*
X1245762Y907900*
X1245762D02*
Y908445D01*
Y904218D02*
Y905582D01*
X1245762D02*
X1247450Y905718D01*
X1247262Y905582*
X1247262D02*
X1247075Y905173D01*
Y904764*
X1247262Y904355*
X1247262D02*
X1247637Y904082D01*
X1247637D02*
X1248200Y903945D01*
X1248575Y904082*
X1249137Y904218*
X1249137D02*
X1249512Y904491D01*
X1249512D02*
X1249700Y904900D01*
Y905309*
X1249512Y905718*
X1249512D02*
X1249325Y905855D01*
X1248950Y905991*
X1250450Y902718D02*
Y899855D01*
X1245762Y899036D02*
X1249700D01*
X1245762D02*
Y897809D01*
X1245762D02*
X1245950Y897400D01*
X1246137Y897264*
X1246137D02*
X1246512Y897127D01*
X1246512D02*
X1246887D01*
X1246887D02*
X1247262Y897264D01*
X1247262D02*
X1247450Y897400D01*
X1247637Y897809*
X1247637D02*
Y899036D01*
Y898082D02*
X1249700Y897127D01*
X1245762Y895900D02*
X1249700Y893991D01*
X1245762D02*
X1249700Y895900D01*
X1235862Y913500D02*
X1239800D01*
X1235862D02*
Y912273D01*
X1235862D02*
X1236050Y911864D01*
X1236237Y911727*
X1236237D02*
X1236612Y911591D01*
X1236612D02*
X1237175D01*
X1237550Y911727*
X1237737Y911864*
X1237737D02*
X1237925Y912273D01*
Y913500*
X1235862Y910364D02*
X1239800D01*
X1235862Y908318D02*
X1236050Y908591D01*
X1236425Y908864*
X1236800Y909000*
X1237362Y909136*
X1237362D02*
X1238300D01*
X1238862Y909000*
X1238862D02*
X1239237Y908864D01*
X1239237D02*
X1239612Y908591D01*
X1239612D02*
X1239800Y908318D01*
Y907773*
X1239612Y907500*
X1239612D02*
X1239237Y907227D01*
X1239237D02*
X1238862Y907091D01*
X1238862D02*
X1238300Y906955D01*
X1237362*
X1237362D02*
X1236800Y907091D01*
X1236425Y907227*
X1236050Y907500*
X1235862Y907773*
X1235862D02*
Y908318D01*
Y904909D02*
X1236050Y905318D01*
X1236612Y905591*
X1236612D02*
X1237550Y905727D01*
X1238112*
X1238112D02*
X1239050Y905591D01*
X1239612Y905318*
X1239612D02*
X1239800Y904909D01*
Y904636*
X1239612Y904227*
X1239612D02*
X1239050Y903955D01*
X1238112Y903818*
X1238112D02*
X1237550D01*
X1236612Y903955*
X1236612D02*
X1236050Y904227D01*
X1235862Y904636*
X1235862D02*
Y904909D01*
X1240550Y902591D02*
Y899727D01*
X1236800Y898773D02*
X1236612D01*
X1236612D02*
X1236237Y898636D01*
X1236237D02*
X1236050Y898500D01*
X1235862Y898227*
X1235862D02*
Y897682D01*
X1235862D02*
X1236050Y897409D01*
X1236237Y897273*
X1236237D02*
X1236612Y897136D01*
X1236612D02*
X1236987D01*
X1236987D02*
X1237362Y897273D01*
X1237362D02*
X1237925Y897545D01*
X1239800Y898909*
Y897000*
X1235862Y895091D02*
X1236050Y895500D01*
X1236425Y895636*
X1236800*
X1237175Y895500*
X1237362Y895227*
X1237362D02*
X1237550Y894682D01*
X1237737Y894273*
X1237737D02*
X1238112Y894000D01*
X1238112D02*
X1238487Y893864D01*
X1238487D02*
X1239050D01*
X1239425Y894000*
X1239612Y894136*
X1239612D02*
X1239800Y894545D01*
Y895091*
X1239612Y895500*
X1239612D02*
X1239425Y895636D01*
X1239050Y895773*
X1238487*
X1238487D02*
X1238112Y895636D01*
X1238112D02*
X1237737Y895364D01*
X1237737D02*
X1237550Y894955D01*
X1237362Y894409*
X1237362D02*
X1237175Y894136D01*
X1236800Y894000*
X1236425*
X1236050Y894136*
X1235862Y894545*
X1235862D02*
Y895091D01*
X1225962Y908500D02*
X1229900D01*
X1225962D02*
Y907273D01*
X1225962D02*
X1226150Y906864D01*
X1226337Y906727*
X1226337D02*
X1226712Y906591D01*
X1226712D02*
X1227087D01*
X1227087D02*
X1227462Y906727D01*
X1227462D02*
X1227650Y906864D01*
X1227837Y907273*
X1227837D02*
Y908500D01*
Y907545D02*
X1229900Y906591D01*
X1225962Y905364D02*
X1229900D01*
X1225962D02*
Y903591D01*
X1227837Y905364D02*
Y904273D01*
X1229900Y905364D02*
Y903591D01*
X1225962Y902364D02*
X1229900D01*
Y900727*
X1225962Y898409D02*
X1229900Y899500D01*
X1225962Y898409D02*
X1229900Y897318D01*
X1228587Y899091D02*
Y897727D01*
X1225962Y896091D02*
X1227837Y895000D01*
X1227837D02*
X1229900D01*
X1225962Y893909D02*
X1227837Y895000D01*
X1215762Y912300D02*
X1219700D01*
X1215762D02*
Y911073D01*
X1215762D02*
X1215950Y910664D01*
X1216137Y910527*
X1216137D02*
X1216512Y910391D01*
X1216512D02*
X1217075D01*
X1217450Y910527*
X1217637Y910664*
X1217637D02*
X1217825Y911073D01*
Y912300*
X1215762Y909164D02*
X1219700D01*
X1215762Y907118D02*
X1215950Y907391D01*
X1216325Y907664*
X1216700Y907800*
X1217262Y907936*
X1217262D02*
X1218200D01*
X1218762Y907800*
X1218762D02*
X1219137Y907664D01*
X1219137D02*
X1219512Y907391D01*
X1219512D02*
X1219700Y907118D01*
Y906573*
X1219512Y906300*
X1219512D02*
X1219137Y906027D01*
X1219137D02*
X1218762Y905891D01*
X1218762D02*
X1218200Y905755D01*
X1217262*
X1217262D02*
X1216700Y905891D01*
X1216325Y906027*
X1215950Y906300*
X1215762Y906573*
X1215762D02*
Y907118D01*
X1216512Y904527D02*
X1216325Y904255D01*
X1215762Y903845*
X1215762D02*
X1219700D01*
X1220450Y902618D02*
Y899755D01*
X1216700Y898800D02*
X1216512D01*
X1216512D02*
X1216137Y898664D01*
X1216137D02*
X1215950Y898527D01*
X1215762Y898255*
X1215762D02*
Y897709D01*
X1215762D02*
X1215950Y897436D01*
X1216137Y897300*
X1216137D02*
X1216512Y897164D01*
X1216512D02*
X1216887D01*
X1216887D02*
X1217262Y897300D01*
X1217262D02*
X1217825Y897573D01*
X1219700Y898936*
Y897027*
X1216700Y895664D02*
X1216512D01*
X1216512D02*
X1216137Y895527D01*
X1216137D02*
X1215950Y895391D01*
X1215762Y895118*
X1215762D02*
Y894573D01*
X1215762D02*
X1215950Y894300D01*
X1216137Y894164*
X1216137D02*
X1216512Y894027D01*
X1216512D02*
X1216887D01*
X1216887D02*
X1217262Y894164D01*
X1217262D02*
X1217825Y894436D01*
X1219700Y895800*
Y893891*
X1205962Y913700D02*
X1209900D01*
X1205962D02*
Y912473D01*
X1205962D02*
X1206150Y912064D01*
X1206337Y911927*
X1206337D02*
X1206712Y911791D01*
X1206712D02*
X1207275D01*
X1207650Y911927*
X1207837Y912064*
X1207837D02*
X1208025Y912473D01*
Y913700*
X1205962Y910564D02*
X1209900D01*
X1205962Y908518D02*
X1206150Y908791D01*
X1206525Y909064*
X1206900Y909200*
X1207462Y909336*
X1207462D02*
X1208400D01*
X1208962Y909200*
X1208962D02*
X1209337Y909064D01*
X1209337D02*
X1209712Y908791D01*
X1209712D02*
X1209900Y908518D01*
Y907973*
X1209712Y907700*
X1209712D02*
X1209337Y907427D01*
X1209337D02*
X1208962Y907291D01*
X1208962D02*
X1208400Y907155D01*
X1207462*
X1207462D02*
X1206900Y907291D01*
X1206525Y907427*
X1206150Y907700*
X1205962Y907973*
X1205962D02*
Y908518D01*
Y905109D02*
X1206150Y905518D01*
X1206712Y905791*
X1206712D02*
X1207650Y905927D01*
X1208212*
X1208212D02*
X1209150Y905791D01*
X1209712Y905518*
X1209712D02*
X1209900Y905109D01*
Y904836*
X1209712Y904427*
X1209712D02*
X1209150Y904155D01*
X1208212Y904018*
X1208212D02*
X1207650D01*
X1206712Y904155*
X1206712D02*
X1206150Y904427D01*
X1205962Y904836*
X1205962D02*
Y905109D01*
X1210650Y902791D02*
Y899927D01*
X1206900Y898973D02*
X1206712D01*
X1206712D02*
X1206337Y898836D01*
X1206337D02*
X1206150Y898700D01*
X1205962Y898427*
X1205962D02*
Y897882D01*
X1205962D02*
X1206150Y897609D01*
X1206337Y897473*
X1206337D02*
X1206712Y897336D01*
X1206712D02*
X1207087D01*
X1207087D02*
X1207462Y897473D01*
X1207462D02*
X1208025Y897745D01*
X1209900Y899109*
Y897200*
X1205962Y894200D02*
Y895564D01*
X1205962D02*
X1207650Y895700D01*
X1207462Y895564*
X1207462D02*
X1207275Y895155D01*
Y894745*
X1207462Y894336*
X1207462D02*
X1207837Y894064D01*
X1207837D02*
X1208400Y893927D01*
X1208775Y894064*
X1209337Y894200*
X1209337D02*
X1209712Y894473D01*
X1209712D02*
X1209900Y894882D01*
Y895291*
X1209712Y895700*
X1209712D02*
X1209525Y895836D01*
X1209150Y895973*
X1195662Y908900D02*
X1199600D01*
X1195662D02*
Y907673D01*
X1195662D02*
X1195850Y907264D01*
X1196037Y907127*
X1196037D02*
X1196412Y906991D01*
X1196412D02*
X1196975D01*
X1197350Y907127*
X1197537Y907264*
X1197537D02*
X1197725Y907673D01*
Y908900*
X1195662Y905764D02*
X1199600D01*
X1195662Y903718D02*
X1195850Y903991D01*
X1196225Y904264*
X1196600Y904400*
X1197162Y904536*
X1197162D02*
X1198100D01*
X1198662Y904400*
X1198662D02*
X1199037Y904264D01*
X1199037D02*
X1199412Y903991D01*
X1199412D02*
X1199600Y903718D01*
Y903173*
X1199412Y902900*
X1199412D02*
X1199037Y902627D01*
X1199037D02*
X1198662Y902491D01*
X1198662D02*
X1198100Y902355D01*
X1197162*
X1197162D02*
X1196600Y902491D01*
X1196225Y902627*
X1195850Y902900*
X1195662Y903173*
X1195662D02*
Y903718D01*
X1196412Y901127D02*
X1196225Y900855D01*
X1195662Y900445*
X1195662D02*
X1199600D01*
X1200350Y899218D02*
Y896355D01*
X1195662Y894718D02*
X1195850Y895127D01*
X1196412Y895400*
X1196412D02*
X1197350Y895536D01*
X1197912*
X1197912D02*
X1198850Y895400D01*
X1199412Y895127*
X1199412D02*
X1199600Y894718D01*
Y894445*
X1199412Y894036*
X1199412D02*
X1198850Y893764D01*
X1197912Y893627*
X1197912D02*
X1197350D01*
X1196412Y893764*
X1196412D02*
X1195850Y894036D01*
X1195662Y894445*
X1195662D02*
Y894718D01*
X1186800Y899855D02*
X1186425Y899991D01*
X1186050Y900264*
X1185862Y900536*
X1185862D02*
Y901082D01*
X1185862D02*
X1186050Y901355D01*
X1186425Y901627*
X1186800Y901764*
X1187362Y901900*
X1187362D02*
X1188300D01*
X1188862Y901764*
X1188862D02*
X1189237Y901627D01*
X1189237D02*
X1189612Y901355D01*
X1189612D02*
X1189800Y901082D01*
Y900536*
X1189612Y900264*
X1189612D02*
X1189237Y899991D01*
X1189237D02*
X1188862Y899855D01*
X1188862D02*
X1188300D01*
Y900536D02*
Y899855D01*
X1185862Y898627D02*
X1189800D01*
X1185862D02*
X1189800Y896718D01*
X1185862D02*
X1189800D01*
X1185862Y895491D02*
X1189800D01*
X1185862D02*
Y894536D01*
X1185862D02*
X1186050Y894127D01*
X1186425Y893855*
X1186800Y893718*
X1187362Y893582*
X1187362D02*
X1188300D01*
X1188862Y893718*
X1188862D02*
X1189237Y893855D01*
X1189237D02*
X1189612Y894127D01*
X1189612D02*
X1189800Y894536D01*
Y895491*
X1176800Y899955D02*
X1176425Y900091D01*
X1176050Y900364*
X1175862Y900636*
X1175862D02*
Y901182D01*
X1175862D02*
X1176050Y901455D01*
X1176425Y901727*
X1176800Y901864*
X1177362Y902000*
X1177362D02*
X1178300D01*
X1178862Y901864*
X1178862D02*
X1179237Y901727D01*
X1179237D02*
X1179612Y901455D01*
X1179612D02*
X1179800Y901182D01*
Y900636*
X1179612Y900364*
X1179612D02*
X1179237Y900091D01*
X1179237D02*
X1178862Y899955D01*
X1178862D02*
X1178300D01*
Y900636D02*
Y899955D01*
X1175862Y898727D02*
X1179800D01*
X1175862D02*
X1179800Y896818D01*
X1175862D02*
X1179800D01*
X1175862Y895591D02*
X1179800D01*
X1175862D02*
Y894636D01*
X1175862D02*
X1176050Y894227D01*
X1176425Y893955*
X1176800Y893818*
X1177362Y893682*
X1177362D02*
X1178300D01*
X1178862Y893818*
X1178862D02*
X1179237Y893955D01*
X1179237D02*
X1179612Y894227D01*
X1179612D02*
X1179800Y894636D01*
Y895591*
X1166662Y897527D02*
Y898891D01*
X1166662D02*
X1168350Y899027D01*
X1168162Y898891*
X1168162D02*
X1167975Y898482D01*
Y898073*
X1168162Y897664*
X1168162D02*
X1168537Y897391D01*
X1168537D02*
X1169100Y897255D01*
X1169475Y897391*
X1170037Y897527*
X1170037D02*
X1170412Y897800D01*
X1170412D02*
X1170600Y898209D01*
Y898618*
X1170412Y899027*
X1170412D02*
X1170225Y899164D01*
X1169850Y899300*
X1166662Y896027D02*
X1170600Y894936D01*
X1166662Y893845D02*
X1170600Y894936D01*
X1156262Y897527D02*
Y898891D01*
X1156262D02*
X1157950Y899027D01*
X1157762Y898891*
X1157762D02*
X1157575Y898482D01*
Y898073*
X1157762Y897664*
X1157762D02*
X1158137Y897391D01*
X1158137D02*
X1158700Y897255D01*
X1159075Y897391*
X1159637Y897527*
X1159637D02*
X1160012Y897800D01*
X1160012D02*
X1160200Y898209D01*
Y898618*
X1160012Y899027*
X1160012D02*
X1159825Y899164D01*
X1159450Y899300*
X1156262Y896027D02*
X1160200Y894936D01*
X1156262Y893845D02*
X1160200Y894936D01*
X1070900Y987055D02*
X1070525Y987191D01*
X1070150Y987464*
X1069962Y987736*
X1069962D02*
Y988282D01*
X1069962D02*
X1070150Y988555D01*
X1070525Y988827*
X1070900Y988964*
X1071462Y989100*
X1071462D02*
X1072400D01*
X1072962Y988964*
X1072962D02*
X1073337Y988827D01*
X1073337D02*
X1073712Y988555D01*
X1073712D02*
X1073900Y988282D01*
Y987736*
X1073712Y987464*
X1073712D02*
X1073337Y987191D01*
X1073337D02*
X1072962Y987055D01*
X1072962D02*
X1072400D01*
Y987736D02*
Y987055D01*
X1069962Y985827D02*
X1073900D01*
X1069962D02*
X1073900Y983918D01*
X1069962D02*
X1073900D01*
X1069962Y982691D02*
X1073900D01*
X1069962D02*
Y981736D01*
X1069962D02*
X1070150Y981327D01*
X1070525Y981055*
X1070900Y980918*
X1071462Y980782*
X1071462D02*
X1072400D01*
X1072962Y980918*
X1072962D02*
X1073337Y981055D01*
X1073337D02*
X1073712Y981327D01*
X1073712D02*
X1073900Y981736D01*
Y982691*
X1079962Y988227D02*
Y986727D01*
X1079962D02*
X1081462Y987545D01*
X1081462D02*
Y987136D01*
X1081462D02*
X1081650Y986864D01*
X1081837Y986727*
X1081837D02*
X1082400Y986591D01*
X1082775*
X1083337Y986727*
X1083337D02*
X1083712Y987000D01*
X1083712D02*
X1083900Y987409D01*
Y987818*
X1083712Y988227*
X1083712D02*
X1083525Y988364D01*
X1083150Y988500*
X1079962Y985364D02*
X1083900Y984273D01*
X1079962Y983182D02*
X1083900Y984273D01*
X1079962Y981682D02*
Y980182D01*
X1079962D02*
X1081462Y981000D01*
X1081462D02*
Y980591D01*
X1081462D02*
X1081650Y980318D01*
X1081837Y980182*
X1081837D02*
X1082400Y980045D01*
X1082775*
X1083337Y980182*
X1083337D02*
X1083712Y980455D01*
X1083712D02*
X1083900Y980864D01*
Y981273*
X1083712Y981682*
X1083712D02*
X1083525Y981818D01*
X1083150Y981955*
X1058762Y989500D02*
X1062700D01*
X1058762D02*
Y988273D01*
X1058762D02*
X1058950Y987864D01*
X1059137Y987727*
X1059137D02*
X1059512Y987591D01*
X1059512D02*
X1059887D01*
X1059887D02*
X1060262Y987727D01*
X1060262D02*
X1060450Y987864D01*
X1060637Y988273*
X1060637D02*
Y989500D01*
Y988545D02*
X1062700Y987591D01*
X1058762Y986364D02*
X1062700Y984455D01*
X1058762D02*
X1062700Y986364D01*
X1049562Y988645D02*
X1053500D01*
X1049562Y989600D02*
Y987691D01*
Y986464D02*
X1053500Y984555D01*
X1049562D02*
X1053500Y986464D01*
X1071162Y946500D02*
X1073975D01*
X1074537Y946364*
X1074537D02*
X1074912Y946091D01*
X1074912D02*
X1075100Y945682D01*
Y945409*
X1074912Y945000*
X1074912D02*
X1074537Y944727D01*
X1074537D02*
X1073975Y944591D01*
X1071162*
Y942273D02*
X1075100Y943364D01*
X1071162Y942273D02*
X1075100Y941182D01*
X1073787Y942955D02*
Y941591D01*
X1071162Y939955D02*
X1075100D01*
X1071162D02*
Y938727D01*
X1071162D02*
X1071350Y938318D01*
X1071537Y938182*
X1071537D02*
X1071912Y938045D01*
X1071912D02*
X1072287D01*
X1072287D02*
X1072662Y938182D01*
X1072662D02*
X1072850Y938318D01*
X1073037Y938727*
X1073037D02*
Y939955D01*
Y939000D02*
X1075100Y938045D01*
X1071162Y935864D02*
X1075100D01*
X1071162Y936818D02*
Y934909D01*
Y933000D02*
X1071350Y933409D01*
X1071725Y933545*
X1072100*
X1072475Y933409*
X1072662Y933136*
X1072662D02*
X1072850Y932591D01*
X1073037Y932182*
X1073037D02*
X1073412Y931909D01*
X1073412D02*
X1073787Y931773D01*
X1073787D02*
X1074350D01*
X1074725Y931909*
X1074912Y932045*
X1074912D02*
X1075100Y932455D01*
Y933000*
X1074912Y933409*
X1074912D02*
X1074725Y933545D01*
X1074350Y933682*
X1073787*
X1073787D02*
X1073412Y933545D01*
X1073412D02*
X1073037Y933273D01*
X1073037D02*
X1072850Y932864D01*
X1072662Y932318*
X1072662D02*
X1072475Y932045D01*
X1072100Y931909*
X1071725*
X1071350Y932045*
X1071162Y932455*
X1071162D02*
Y933000D01*
X1075850Y930545D02*
Y927682D01*
X1071162Y926864D02*
X1075100D01*
X1071162D02*
Y925636D01*
X1071162D02*
X1071350Y925227D01*
X1071537Y925091*
X1071537D02*
X1071912Y924955D01*
X1071912D02*
X1072287D01*
X1072287D02*
X1072662Y925091D01*
X1072662D02*
X1072850Y925227D01*
X1073037Y925636*
X1073037D02*
Y926864D01*
Y925909D02*
X1075100Y924955D01*
X1071162Y923727D02*
X1075100Y921818D01*
X1071162D02*
X1075100Y923727D01*
X1080662Y946300D02*
X1083475D01*
X1084037Y946164*
X1084037D02*
X1084412Y945891D01*
X1084412D02*
X1084600Y945482D01*
Y945209*
X1084412Y944800*
X1084412D02*
X1084037Y944527D01*
X1084037D02*
X1083475Y944391D01*
X1080662*
Y942073D02*
X1084600Y943164D01*
X1080662Y942073D02*
X1084600Y940982D01*
X1083287Y942755D02*
Y941391D01*
X1080662Y939755D02*
X1084600D01*
X1080662D02*
Y938527D01*
X1080662D02*
X1080850Y938118D01*
X1081037Y937982*
X1081037D02*
X1081412Y937845D01*
X1081412D02*
X1081787D01*
X1081787D02*
X1082162Y937982D01*
X1082162D02*
X1082350Y938118D01*
X1082537Y938527*
X1082537D02*
Y939755D01*
Y938800D02*
X1084600Y937845D01*
X1080662Y935664D02*
X1084600D01*
X1080662Y936618D02*
Y934709D01*
Y932800D02*
X1080850Y933209D01*
X1081225Y933345*
X1081600*
X1081975Y933209*
X1082162Y932936*
X1082162D02*
X1082350Y932391D01*
X1082537Y931982*
X1082537D02*
X1082912Y931709D01*
X1082912D02*
X1083287Y931573D01*
X1083287D02*
X1083850D01*
X1084225Y931709*
X1084412Y931845*
X1084412D02*
X1084600Y932255D01*
Y932800*
X1084412Y933209*
X1084412D02*
X1084225Y933345D01*
X1083850Y933482*
X1083287*
X1083287D02*
X1082912Y933345D01*
X1082912D02*
X1082537Y933073D01*
X1082537D02*
X1082350Y932664D01*
X1082162Y932118*
X1082162D02*
X1081975Y931845D01*
X1081600Y931709*
X1081225*
X1080850Y931845*
X1080662Y932255*
X1080662D02*
Y932800D01*
X1085350Y930345D02*
Y927482D01*
X1080662Y925709D02*
X1084600D01*
X1080662Y926664D02*
Y924755D01*
Y923527D02*
X1084600Y921618D01*
X1080662D02*
X1084600Y923527D01*
X1061725Y928491D02*
X1061350Y928764D01*
X1061162Y929173*
X1061162D02*
Y929718D01*
X1061162D02*
X1061350Y930127D01*
X1061725Y930400*
X1062100*
X1062475Y930264*
X1062662Y930127*
X1062662D02*
X1062850Y929855D01*
X1063225Y929036*
X1063412Y928764*
X1063412D02*
X1063600Y928627D01*
X1063975Y928491*
X1064537*
X1064537D02*
X1064912Y928764D01*
X1064912D02*
X1065100Y929173D01*
Y929718*
X1064912Y930127*
X1064912D02*
X1064537Y930400D01*
X1061162Y927264D02*
X1065100D01*
X1061162D02*
Y926309D01*
X1061162D02*
X1061350Y925900D01*
X1061725Y925627*
X1062100Y925491*
X1062662Y925355*
X1062662D02*
X1063600D01*
X1064162Y925491*
X1064162D02*
X1064537Y925627D01*
X1064537D02*
X1064912Y925900D01*
X1064912D02*
X1065100Y926309D01*
Y927264*
X1061162Y923036D02*
X1065100Y924127D01*
X1061162Y923036D02*
X1065100Y921945D01*
X1063787Y923718D02*
Y922355D01*
X1051525Y928491D02*
X1051150Y928764D01*
X1050962Y929173*
X1050962D02*
Y929718D01*
X1050962D02*
X1051150Y930127D01*
X1051525Y930400*
X1051900*
X1052275Y930264*
X1052462Y930127*
X1052462D02*
X1052650Y929855D01*
X1053025Y929036*
X1053212Y928764*
X1053212D02*
X1053400Y928627D01*
X1053775Y928491*
X1054337*
X1054337D02*
X1054712Y928764D01*
X1054712D02*
X1054900Y929173D01*
Y929718*
X1054712Y930127*
X1054712D02*
X1054337Y930400D01*
X1051900Y925218D02*
X1051525Y925355D01*
X1051150Y925627*
X1050962Y925900*
X1050962D02*
Y926445D01*
X1050962D02*
X1051150Y926718D01*
X1051525Y926991*
X1051900Y927127*
X1052462Y927264*
X1052462D02*
X1053400D01*
X1053962Y927127*
X1053962D02*
X1054337Y926991D01*
X1054337D02*
X1054712Y926718D01*
X1054712D02*
X1054900Y926445D01*
Y925900*
X1054712Y925627*
X1054712D02*
X1054337Y925355D01*
X1054337D02*
X1053962Y925218D01*
X1050962Y923991D02*
X1054900D01*
Y922355*
X1163700Y1009455D02*
X1163325Y1009591D01*
X1162950Y1009864*
X1162762Y1010136*
X1162762D02*
Y1010682D01*
X1162762D02*
X1162950Y1010955D01*
X1163325Y1011227*
X1163700Y1011364*
X1164262Y1011500*
X1164262D02*
X1165200D01*
X1165762Y1011364*
X1165762D02*
X1166137Y1011227D01*
X1166137D02*
X1166512Y1010955D01*
X1166512D02*
X1166700Y1010682D01*
Y1010136*
X1166512Y1009864*
X1166512D02*
X1166137Y1009591D01*
X1166137D02*
X1165762Y1009455D01*
X1165762D02*
X1165200D01*
Y1010136D02*
Y1009455D01*
X1162762Y1008227D02*
X1166700D01*
X1162762D02*
X1166700Y1006318D01*
X1162762D02*
X1166700D01*
X1162762Y1005091D02*
X1166700D01*
X1162762D02*
Y1004136D01*
X1162762D02*
X1162950Y1003727D01*
X1163325Y1003455*
X1163700Y1003318*
X1164262Y1003182*
X1164262D02*
X1165200D01*
X1165762Y1003318*
X1165762D02*
X1166137Y1003455D01*
X1166137D02*
X1166512Y1003727D01*
X1166512D02*
X1166700Y1004136D01*
Y1005091*
X1153825Y1008491D02*
X1153450Y1008764D01*
X1153262Y1009173*
X1153262D02*
Y1009718D01*
X1153262D02*
X1153450Y1010127D01*
X1153825Y1010400*
X1154200*
X1154575Y1010264*
X1154762Y1010127*
X1154762D02*
X1154950Y1009855D01*
X1155325Y1009036*
X1155512Y1008764*
X1155512D02*
X1155700Y1008627D01*
X1156075Y1008491*
X1156637*
X1156637D02*
X1157012Y1008764D01*
X1157012D02*
X1157200Y1009173D01*
Y1009718*
X1157012Y1010127*
X1157012D02*
X1156637Y1010400D01*
X1153262Y1007264D02*
X1157200Y1006582D01*
X1153262Y1005900D02*
X1157200Y1006582D01*
X1153262Y1005900D02*
X1157200Y1005218D01*
X1153262Y1004536D02*
X1157200Y1005218D01*
X1142962Y1011300D02*
X1146900D01*
X1142962D02*
Y1010073D01*
X1142962D02*
X1143150Y1009664D01*
X1143337Y1009527*
X1143337D02*
X1143712Y1009391D01*
X1143712D02*
X1144087D01*
X1144087D02*
X1144462Y1009527D01*
X1144462D02*
X1144650Y1009664D01*
X1144837Y1010073*
X1144837D02*
Y1011300D01*
Y1010345D02*
X1146900Y1009391D01*
X1143525Y1006255D02*
X1143150Y1006527D01*
X1142962Y1006936*
X1142962D02*
Y1007482D01*
X1142962D02*
X1143150Y1007891D01*
X1143525Y1008164*
X1143900*
X1144275Y1008027*
X1144462Y1007891*
X1144462D02*
X1144650Y1007618D01*
X1145025Y1006800*
X1145212Y1006527*
X1145212D02*
X1145400Y1006391D01*
X1145775Y1006255*
X1146337*
X1146337D02*
X1146712Y1006527D01*
X1146712D02*
X1146900Y1006936D01*
Y1007482*
X1146712Y1007891*
X1146712D02*
X1146337Y1008164D01*
X1142962Y1004073D02*
X1146900D01*
X1142962Y1005027D02*
Y1003118D01*
X1163500Y997855D02*
X1163125Y997991D01*
X1162750Y998264*
X1162562Y998536*
X1162562D02*
Y999082D01*
X1162562D02*
X1162750Y999355D01*
X1163125Y999627*
X1163500Y999764*
X1164062Y999900*
X1164062D02*
X1165000D01*
X1165562Y999764*
X1165562D02*
X1165937Y999627D01*
X1165937D02*
X1166312Y999355D01*
X1166312D02*
X1166500Y999082D01*
Y998536*
X1166312Y998264*
X1166312D02*
X1165937Y997991D01*
X1165937D02*
X1165562Y997855D01*
X1165562D02*
X1165000D01*
Y998536D02*
Y997855D01*
X1162562Y996627D02*
X1166500D01*
X1162562D02*
X1166500Y994718D01*
X1162562D02*
X1166500D01*
X1162562Y993491D02*
X1166500D01*
X1162562D02*
Y992536D01*
X1162562D02*
X1162750Y992127D01*
X1163125Y991855*
X1163500Y991718*
X1164062Y991582*
X1164062D02*
X1165000D01*
X1165562Y991718*
X1165562D02*
X1165937Y991855D01*
X1165937D02*
X1166312Y992127D01*
X1166312D02*
X1166500Y992536D01*
Y993491*
X1153262Y996700D02*
X1157200D01*
X1153262D02*
Y995473D01*
X1153262D02*
X1153450Y995064D01*
X1153637Y994927*
X1153637D02*
X1154012Y994791D01*
X1154012D02*
X1154387D01*
X1154387D02*
X1154762Y994927D01*
X1154762D02*
X1154950Y995064D01*
X1155137Y995473*
X1155137D02*
Y996700D01*
Y995745D02*
X1157200Y994791D01*
X1153262Y993564D02*
X1157200Y991655D01*
X1153262D02*
X1157200Y993564D01*
X1142362Y995645D02*
X1146300D01*
X1142362Y996600D02*
Y994691D01*
Y993464D02*
X1146300Y991555D01*
X1142362D02*
X1146300Y993464D01*
G54D138*
X1261872Y972237D02*
X1259111D01*
X1250655D02*
X1248104D01*
X1239648D02*
X1236887D01*
X1262291Y972342D02*
X1258482D01*
X1251179D02*
X1247475D01*
X1240067D02*
X1236258D01*
X1262815Y972447D02*
X1257853D01*
X1251703D02*
X1246846D01*
X1240591D02*
X1235629D01*
X1263130Y972551D02*
X1257329D01*
X1252018D02*
X1246322D01*
X1240906D02*
X1235210D01*
X1263444Y972656D02*
X1256910D01*
X1252332D02*
X1245903D01*
X1241220D02*
X1234686D01*
X1263759Y972761D02*
X1256491D01*
X1252647D02*
X1245378D01*
X1241535D02*
X1234266D01*
X1263759Y972866D02*
X1260579D01*
X1259566D02*
X1256386D01*
X1252752D02*
X1249677D01*
X1248978D02*
X1245378D01*
X1241535D02*
X1238984D01*
X1237865D02*
X1234161D01*
X1263969Y972971D02*
X1261627D01*
X1258413D02*
X1256071D01*
X1252856D02*
X1250830D01*
X1247720D02*
X1245064D01*
X1241744D02*
X1239927D01*
X1236712D02*
X1233847D01*
X1264073Y973076D02*
X1262152D01*
X1257784D02*
X1255757D01*
X1253066D02*
X1251249D01*
X1246986D02*
X1244749D01*
X1241954D02*
X1240451D01*
X1236083D02*
X1233532D01*
X1264283Y973180D02*
X1262466D01*
X1257259D02*
X1255442D01*
X1253276D02*
X1251668D01*
X1246462D02*
X1244435D01*
X1242059D02*
X1240871D01*
X1235559D02*
X1233218D01*
X1264493Y973285D02*
X1262781D01*
X1256840D02*
X1255128D01*
X1253381D02*
X1251983D01*
X1246042D02*
X1244120D01*
X1242268D02*
X1241080D01*
X1235140D02*
X1232903D01*
X1264702Y973390D02*
X1263095D01*
X1261558D02*
X1258902D01*
X1256421D02*
X1254813D01*
X1253590D02*
X1252297D01*
X1250655D02*
X1248104D01*
X1245623D02*
X1243806D01*
X1242478D02*
X1241395D01*
X1239857D02*
X1237202D01*
X1234721D02*
X1232589D01*
X1264807Y973495D02*
X1263305D01*
X1262082D02*
X1258168D01*
X1256106D02*
X1254499D01*
X1253695D02*
X1252507D01*
X1251284D02*
X1247370D01*
X1245309D02*
X1243491D01*
X1242583D02*
X1241604D01*
X1240381D02*
X1236468D01*
X1234406D02*
X1232274D01*
X1264807Y973600D02*
X1263514D01*
X1262501D02*
X1257644D01*
X1255792D02*
X1254499D01*
X1253695D02*
X1252717D01*
X1251703D02*
X1246846D01*
X1244994D02*
X1243491D01*
X1242583D02*
X1241814D01*
X1240801D02*
X1235944D01*
X1234092D02*
X1232274D01*
X1264912Y973705D02*
X1263724D01*
X1262815D02*
X1261627D01*
X1258937D02*
X1257224D01*
X1255477D02*
X1254289D01*
X1253800D02*
X1252822D01*
X1252018D02*
X1250725D01*
X1248244D02*
X1246427D01*
X1244680D02*
X1243177D01*
X1242688D02*
X1242024D01*
X1241115D02*
X1239927D01*
X1237236D02*
X1235524D01*
X1233777D02*
X1232065D01*
X1265017Y973809D02*
X1263829D01*
X1263130D02*
X1262152D01*
X1261977D02*
X1261627D01*
X1258203D02*
X1256805D01*
X1255163D02*
X1253031D01*
X1252227D02*
X1251354D01*
X1247510D02*
X1246007D01*
X1244365D02*
X1242967D01*
X1242793D02*
X1242129D01*
X1241430D02*
X1240451D01*
X1236503D02*
X1235105D01*
X1233463D02*
X1231855D01*
X1265122Y973914D02*
X1264039D01*
X1263340D02*
X1262571D01*
X1261872D02*
X1261523D01*
X1257679D02*
X1256386D01*
X1254848D02*
X1253136D01*
X1252542D02*
X1251773D01*
X1246881D02*
X1245588D01*
X1244051D02*
X1242338D01*
X1241639D02*
X1240871D01*
X1235978D02*
X1234686D01*
X1233148D02*
X1231541D01*
X1265227Y974019D02*
X1264143D01*
X1263549D02*
X1262885D01*
X1261767D02*
X1261418D01*
X1257259D02*
X1256071D01*
X1254639D02*
X1253346D01*
X1252752D02*
X1252088D01*
X1246462D02*
X1245274D01*
X1243841D02*
X1242443D01*
X1241849D02*
X1241185D01*
X1235559D02*
X1234371D01*
X1232938D02*
X1231331D01*
X1265331Y974124D02*
X1264248D01*
X1263759D02*
X1263200D01*
X1261662D02*
X1261313D01*
X1256840D02*
X1255757D01*
X1254324D02*
X1253450D01*
X1252961D02*
X1252402D01*
X1246042D02*
X1244959D01*
X1243526D02*
X1242548D01*
X1242059D02*
X1241500D01*
X1235140D02*
X1234057D01*
X1232624D02*
X1231016D01*
X1265436Y974229D02*
X1264353D01*
X1263864D02*
X1263410D01*
X1261558D02*
X1261208D01*
X1256421D02*
X1255442D01*
X1254114D02*
X1253555D01*
X1253066D02*
X1252612D01*
X1245623D02*
X1244645D01*
X1243317D02*
X1242653D01*
X1242164D02*
X1241709D01*
X1234721D02*
X1233742D01*
X1232414D02*
X1231016D01*
X1265436Y974334D02*
X1264458D01*
X1264073D02*
X1263619D01*
X1261453D02*
X1261103D01*
X1256106D02*
X1255128D01*
X1253905D02*
X1253660D01*
X1253276D02*
X1252822D01*
X1245309D02*
X1244330D01*
X1243107D02*
X1242758D01*
X1242373D02*
X1241919D01*
X1234406D02*
X1233428D01*
X1232205D02*
X1230807D01*
X1265541Y974438D02*
X1264563D01*
X1264178D02*
X1263514D01*
X1261348D02*
X1261103D01*
X1255792D02*
X1254918D01*
X1253381D02*
X1253031D01*
X1244994D02*
X1244120D01*
X1242478D02*
X1242129D01*
X1234092D02*
X1233218D01*
X1231890D02*
X1230597D01*
X1265541Y974543D02*
X1264668D01*
X1264283D02*
X1264039D01*
X1263864D02*
X1263410D01*
X1261348D02*
X1260998D01*
X1255477D02*
X1254604D01*
X1253485D02*
X1253241D01*
X1244680D02*
X1243806D01*
X1242583D02*
X1242338D01*
X1233777D02*
X1232903D01*
X1231680D02*
X1230387D01*
X1265646Y974648D02*
X1264772D01*
X1264493D02*
X1264143D01*
X1263759D02*
X1263305D01*
X1261243D02*
X1260894D01*
X1255163D02*
X1254394D01*
X1253590D02*
X1253346D01*
X1244365D02*
X1243596D01*
X1242793D02*
X1242443D01*
X1233463D02*
X1232694D01*
X1231471D02*
X1230178D01*
X1265646Y974753D02*
X1264772D01*
X1264598D02*
X1264248D01*
X1263654D02*
X1263200D01*
X1261138D02*
X1260789D01*
X1254953D02*
X1254184D01*
X1253800D02*
X1253450D01*
X1244155D02*
X1243387D01*
X1242897D02*
X1242548D01*
X1233253D02*
X1232484D01*
X1231261D02*
X1229968D01*
X1265751Y974858D02*
X1264877D01*
X1264702D02*
X1264458D01*
X1263549D02*
X1263095D01*
X1261033D02*
X1260684D01*
X1254639D02*
X1253660D01*
X1243841D02*
X1243177D01*
X1243002D02*
X1242758D01*
X1232938D02*
X1232170D01*
X1231051D02*
X1229863D01*
X1265751Y974962D02*
X1264563D01*
X1263444D02*
X1262990D01*
X1260929D02*
X1260579D01*
X1254429D02*
X1253765D01*
X1243631D02*
X1242862D01*
X1232729D02*
X1231960D01*
X1230947D02*
X1229758D01*
X1265751Y975067D02*
X1264668D01*
X1263340D02*
X1262885D01*
X1260824D02*
X1260474D01*
X1254219D02*
X1253870D01*
X1243422D02*
X1242967D01*
X1232519D02*
X1231750D01*
X1230737D02*
X1229549D01*
X1265856Y975172D02*
X1264772D01*
X1263235D02*
X1262781D01*
X1260719D02*
X1260369D01*
X1243212D02*
X1243072D01*
X1232309D02*
X1231541D01*
X1230527D02*
X1229444D01*
X1265856Y975277D02*
X1264877D01*
X1263130D02*
X1262781D01*
X1260614D02*
X1260369D01*
X1231995D02*
X1231331D01*
X1230318D02*
X1229234D01*
X1265960Y975382D02*
X1264877D01*
X1263025D02*
X1262676D01*
X1260509D02*
X1260265D01*
X1231785D02*
X1231121D01*
X1230213D02*
X1229025D01*
X1265960Y975487D02*
X1258587D01*
X1231576D02*
X1230912D01*
X1230003D02*
X1228815D01*
X1265960Y975591D02*
X1258482D01*
X1231366D02*
X1230807D01*
X1229793D02*
X1228815D01*
X1265960Y975696D02*
X1259531D01*
X1231156D02*
X1230597D01*
X1229689D02*
X1228710D01*
X1265960Y975801D02*
X1264772D01*
X1262711D02*
X1262256D01*
X1260195D02*
X1259845D01*
X1231051D02*
X1230387D01*
X1229479D02*
X1228500D01*
X1266065Y975906D02*
X1264668D01*
X1262606D02*
X1262152D01*
X1260090D02*
X1259740D01*
X1230842D02*
X1230283D01*
X1229374D02*
X1228396D01*
X1266065Y976011D02*
X1265297D01*
X1265122D02*
X1264563D01*
X1262501D02*
X1262047D01*
X1259985D02*
X1259636D01*
X1230632D02*
X1230073D01*
X1229164D02*
X1228186D01*
X1266170Y976116D02*
X1265401D01*
X1265017D02*
X1264563D01*
X1262396D02*
X1262047D01*
X1259880D02*
X1259636D01*
X1256001D02*
X1254079D01*
X1230422D02*
X1229863D01*
X1229060D02*
X1227976D01*
X1266170Y976220D02*
X1265401D01*
X1264912D02*
X1264458D01*
X1262291D02*
X1261942D01*
X1259775D02*
X1259531D01*
X1256001D02*
X1253975D01*
X1251284D02*
X1249362D01*
X1247720D02*
X1244854D01*
X1239019D02*
X1236048D01*
X1230318D02*
X1229758D01*
X1228850D02*
X1227976D01*
X1266170Y976325D02*
X1265401D01*
X1264807D02*
X1264353D01*
X1262186D02*
X1261837D01*
X1259671D02*
X1259426D01*
X1256001D02*
X1253975D01*
X1251284D02*
X1249362D01*
X1247720D02*
X1244749D01*
X1239019D02*
X1235944D01*
X1230108D02*
X1229549D01*
X1228745D02*
X1227871D01*
X1266170Y976430D02*
X1265506D01*
X1264702D02*
X1264248D01*
X1262082D02*
X1261732D01*
X1259566D02*
X1259321D01*
X1256001D02*
X1253870D01*
X1251284D02*
X1249257D01*
X1247615D02*
X1244645D01*
X1238914D02*
X1235944D01*
X1229898D02*
X1229444D01*
X1228535D02*
X1227662D01*
X1266170Y976535D02*
X1265506D01*
X1264598D02*
X1264143D01*
X1261977D02*
X1261627D01*
X1259461D02*
X1259216D01*
X1256001D02*
X1253870D01*
X1251284D02*
X1249257D01*
X1247615D02*
X1244540D01*
X1238914D02*
X1235839D01*
X1229793D02*
X1229234D01*
X1228431D02*
X1227557D01*
X1266170Y976640D02*
X1265506D01*
X1264493D02*
X1264039D01*
X1261872D02*
X1261523D01*
X1259356D02*
X1259111D01*
X1256001D02*
X1253765D01*
X1251284D02*
X1249152D01*
X1247510D02*
X1244540D01*
X1238809D02*
X1235839D01*
X1229584D02*
X1229129D01*
X1228326D02*
X1227452D01*
X1266170Y976745D02*
X1265611D01*
X1264388D02*
X1263934D01*
X1261872D02*
X1261418D01*
X1259356D02*
X1259007D01*
X1256001D02*
X1253765D01*
X1251284D02*
X1249152D01*
X1247510D02*
X1244435D01*
X1238704D02*
X1235734D01*
X1229479D02*
X1228920D01*
X1228116D02*
X1227242D01*
X1266170Y976849D02*
X1265611D01*
X1264283D02*
X1263829D01*
X1261767D02*
X1261418D01*
X1259251D02*
X1259007D01*
X1256001D02*
X1253660D01*
X1251284D02*
X1249048D01*
X1247405D02*
X1244435D01*
X1238704D02*
X1235734D01*
X1229269D02*
X1228815D01*
X1228011D02*
X1227138D01*
X1266170Y976954D02*
X1265611D01*
X1264283D02*
X1263829D01*
X1261662D02*
X1261313D01*
X1259146D02*
X1258902D01*
X1256001D02*
X1253660D01*
X1251284D02*
X1249048D01*
X1247300D02*
X1244330D01*
X1238599D02*
X1235629D01*
X1229164D02*
X1228605D01*
X1227906D02*
X1227138D01*
X1266170Y977059D02*
X1265611D01*
X1264178D02*
X1263724D01*
X1261558D02*
X1261208D01*
X1259042D02*
X1258797D01*
X1256001D02*
X1253555D01*
X1251284D02*
X1248943D01*
X1247300D02*
X1244330D01*
X1238599D02*
X1235629D01*
X1228955D02*
X1228500D01*
X1227802D02*
X1226928D01*
X1266170Y977164D02*
X1265611D01*
X1264073D02*
X1263619D01*
X1261453D02*
X1261103D01*
X1258937D02*
X1258692D01*
X1256001D02*
X1253555D01*
X1251284D02*
X1248943D01*
X1247196D02*
X1244225D01*
X1238494D02*
X1235524D01*
X1228850D02*
X1228396D01*
X1227592D02*
X1226823D01*
X1266170Y977269D02*
X1265611D01*
X1263969D02*
X1263514D01*
X1261348D02*
X1260998D01*
X1258832D02*
X1258587D01*
X1256001D02*
X1253450D01*
X1251284D02*
X1248838D01*
X1247196D02*
X1244225D01*
X1238494D02*
X1235524D01*
X1228745D02*
X1228291D01*
X1227487D02*
X1226718D01*
X1266170Y977374D02*
X1265611D01*
X1263864D02*
X1263410D01*
X1261243D02*
X1260894D01*
X1258727D02*
X1258482D01*
X1256001D02*
X1253346D01*
X1251284D02*
X1248733D01*
X1247091D02*
X1244120D01*
X1238390D02*
X1235419D01*
X1228535D02*
X1228081D01*
X1227382D02*
X1226614D01*
X1266170Y977478D02*
X1259426D01*
X1258622D02*
X1258482D01*
X1256001D02*
X1253346D01*
X1251284D02*
X1248733D01*
X1247091D02*
X1244120D01*
X1238390D02*
X1235419D01*
X1228431D02*
X1227976D01*
X1227277D02*
X1226404D01*
X1266170Y977583D02*
X1259321D01*
X1258517D02*
X1258482D01*
X1256001D02*
X1253241D01*
X1251284D02*
X1248628D01*
X1246986D02*
X1244016D01*
X1238285D02*
X1235315D01*
X1228326D02*
X1227871D01*
X1227173D02*
X1226404D01*
X1266170Y977688D02*
X1259321D01*
X1256001D02*
X1253241D01*
X1251284D02*
X1248628D01*
X1246986D02*
X1244016D01*
X1238285D02*
X1235210D01*
X1228116D02*
X1227767D01*
X1227068D02*
X1226299D01*
X1266170Y977793D02*
X1265506D01*
X1263444D02*
X1263095D01*
X1260824D02*
X1260579D01*
X1256001D02*
X1253136D01*
X1251284D02*
X1248523D01*
X1246881D02*
X1243911D01*
X1238180D02*
X1235210D01*
X1228011D02*
X1227557D01*
X1226858D02*
X1226194D01*
X1266170Y977898D02*
X1265401D01*
X1263340D02*
X1262990D01*
X1260824D02*
X1260474D01*
X1256001D02*
X1253136D01*
X1251284D02*
X1248523D01*
X1246776D02*
X1243911D01*
X1238075D02*
X1235105D01*
X1227906D02*
X1227452D01*
X1226753D02*
X1226089D01*
X1266170Y978003D02*
X1265297D01*
X1263340D02*
X1262885D01*
X1260719D02*
X1260369D01*
X1256001D02*
X1253031D01*
X1251284D02*
X1248419D01*
X1246776D02*
X1243806D01*
X1238075D02*
X1235105D01*
X1227802D02*
X1227347D01*
X1226648D02*
X1225985D01*
X1266170Y978107D02*
X1265192D01*
X1263235D02*
X1262781D01*
X1260614D02*
X1260265D01*
X1256001D02*
X1253031D01*
X1251284D02*
X1248419D01*
X1246671D02*
X1243701D01*
X1237970D02*
X1235000D01*
X1227592D02*
X1227242D01*
X1226544D02*
X1225880D01*
X1266170Y978212D02*
X1265192D01*
X1263130D02*
X1262676D01*
X1260509D02*
X1260160D01*
X1256001D02*
X1252926D01*
X1251284D02*
X1248314D01*
X1246671D02*
X1243701D01*
X1237970D02*
X1235000D01*
X1227487D02*
X1227138D01*
X1226439D02*
X1225775D01*
X1266170Y978317D02*
X1265087D01*
X1263025D02*
X1262571D01*
X1260404D02*
X1260055D01*
X1256001D02*
X1252822D01*
X1251284D02*
X1248314D01*
X1246567D02*
X1243596D01*
X1237865D02*
X1234895D01*
X1227382D02*
X1227033D01*
X1226334D02*
X1225775D01*
X1266170Y978422D02*
X1265611D01*
X1265436D02*
X1264982D01*
X1262920D02*
X1262466D01*
X1260300D02*
X1259950D01*
X1256001D02*
X1252822D01*
X1251284D02*
X1248209D01*
X1246567D02*
X1243596D01*
X1237865D02*
X1234895D01*
X1227277D02*
X1226928D01*
X1226229D02*
X1225670D01*
X1266170Y978527D02*
X1265611D01*
X1265331D02*
X1264877D01*
X1262815D02*
X1262466D01*
X1260195D02*
X1259950D01*
X1256001D02*
X1252717D01*
X1251284D02*
X1248209D01*
X1246462D02*
X1243491D01*
X1237761D02*
X1234790D01*
X1227173D02*
X1226823D01*
X1226124D02*
X1225565D01*
X1266170Y978632D02*
X1265611D01*
X1265227D02*
X1264772D01*
X1262711D02*
X1262361D01*
X1260090D02*
X1259845D01*
X1256001D02*
X1252717D01*
X1251284D02*
X1248104D01*
X1246462D02*
X1243491D01*
X1237761D02*
X1234790D01*
X1227068D02*
X1226718D01*
X1226019D02*
X1225460D01*
X1266170Y978736D02*
X1265611D01*
X1265122D02*
X1264668D01*
X1262606D02*
X1262256D01*
X1259985D02*
X1259740D01*
X1256001D02*
X1252612D01*
X1251284D02*
X1248104D01*
X1246357D02*
X1243387D01*
X1237656D02*
X1234686D01*
X1226963D02*
X1226509D01*
X1225915D02*
X1225251D01*
X1266170Y978841D02*
X1265506D01*
X1265017D02*
X1264563D01*
X1262501D02*
X1262152D01*
X1259880D02*
X1259636D01*
X1256001D02*
X1252612D01*
X1251284D02*
X1247999D01*
X1246252D02*
X1243387D01*
X1237656D02*
X1234686D01*
X1226858D02*
X1226509D01*
X1225810D02*
X1225146D01*
X1266170Y978946D02*
X1265506D01*
X1264912D02*
X1264458D01*
X1262396D02*
X1262047D01*
X1259880D02*
X1259531D01*
X1256001D02*
X1252507D01*
X1251284D02*
X1247894D01*
X1246252D02*
X1240975D01*
X1237551D02*
X1234581D01*
X1226753D02*
X1226299D01*
X1225810D02*
X1225146D01*
X1266170Y979051D02*
X1265506D01*
X1264807D02*
X1264458D01*
X1262291D02*
X1261942D01*
X1259775D02*
X1259426D01*
X1256001D02*
X1252507D01*
X1251284D02*
X1247894D01*
X1246147D02*
X1240556D01*
X1237446D02*
X1234581D01*
X1226648D02*
X1226299D01*
X1225705D02*
X1225041D01*
X1266065Y979156D02*
X1265506D01*
X1264807D02*
X1264353D01*
X1262186D02*
X1261837D01*
X1259671D02*
X1259321D01*
X1256001D02*
X1252402D01*
X1251284D02*
X1247790D01*
X1246147D02*
X1240242D01*
X1237446D02*
X1234476D01*
X1226544D02*
X1226194D01*
X1225600D02*
X1224936D01*
X1266065Y979261D02*
X1265401D01*
X1264702D02*
X1264248D01*
X1262186D02*
X1261732D01*
X1259566D02*
X1259216D01*
X1256001D02*
X1252297D01*
X1251284D02*
X1247790D01*
X1246042D02*
X1240032D01*
X1237341D02*
X1234371D01*
X1226439D02*
X1226089D01*
X1225495D02*
X1224831D01*
X1265960Y979365D02*
X1265401D01*
X1264598D02*
X1264143D01*
X1262082D02*
X1261732D01*
X1259461D02*
X1259216D01*
X1256001D02*
X1252297D01*
X1251284D02*
X1247685D01*
X1246042D02*
X1239822D01*
X1237341D02*
X1234371D01*
X1226334D02*
X1225985D01*
X1225390D02*
X1224831D01*
X1265960Y979470D02*
X1260055D01*
X1259356D02*
X1259111D01*
X1256001D02*
X1252193D01*
X1251284D02*
X1247685D01*
X1245938D02*
X1239613D01*
X1237236D02*
X1234266D01*
X1226229D02*
X1225880D01*
X1225286D02*
X1224727D01*
X1265960Y979575D02*
X1259845D01*
X1259251D02*
X1259007D01*
X1256001D02*
X1252193D01*
X1251284D02*
X1247580D01*
X1245938D02*
X1239508D01*
X1237236D02*
X1234266D01*
X1226124D02*
X1225775D01*
X1225181D02*
X1224727D01*
X1265856Y979680D02*
X1259845D01*
X1259146D02*
X1258902D01*
X1256001D02*
X1252088D01*
X1251284D02*
X1247580D01*
X1245833D02*
X1239403D01*
X1237132D02*
X1234161D01*
X1229269D02*
X1225670D01*
X1225181D02*
X1224622D01*
X1265856Y979785D02*
X1265297D01*
X1264178D02*
X1263829D01*
X1261662D02*
X1261313D01*
X1259042D02*
X1258797D01*
X1256001D02*
X1252088D01*
X1251284D02*
X1247475D01*
X1245728D02*
X1239193D01*
X1237132D02*
X1234161D01*
X1229269D02*
X1225565D01*
X1225076D02*
X1224517D01*
X1265856Y979890D02*
X1265192D01*
X1264073D02*
X1263724D01*
X1261558D02*
X1261208D01*
X1258937D02*
X1258692D01*
X1256001D02*
X1251983D01*
X1251284D02*
X1247475D01*
X1245728D02*
X1239089D01*
X1237027D02*
X1234057D01*
X1228955D02*
X1225460D01*
X1224971D02*
X1224412D01*
X1265856Y979994D02*
X1265192D01*
X1263969D02*
X1263619D01*
X1261453D02*
X1261103D01*
X1258832D02*
X1258587D01*
X1256001D02*
X1251983D01*
X1251284D02*
X1247370D01*
X1245623D02*
X1238984D01*
X1237027D02*
X1234057D01*
X1225705D02*
X1225460D01*
X1224866D02*
X1224307D01*
X1265751Y980099D02*
X1265192D01*
X1263864D02*
X1263514D01*
X1261348D02*
X1260998D01*
X1258832D02*
X1258587D01*
X1256001D02*
X1251878D01*
X1251284D02*
X1247370D01*
X1245623D02*
X1238879D01*
X1236922D02*
X1233952D01*
X1225600D02*
X1225356D01*
X1224866D02*
X1224202D01*
X1265751Y980204D02*
X1265087D01*
X1263759D02*
X1263410D01*
X1261243D02*
X1260998D01*
X1258727D02*
X1258482D01*
X1256001D02*
X1251773D01*
X1251284D02*
X1247265D01*
X1245518D02*
X1238774D01*
X1236817D02*
X1233952D01*
X1228011D02*
X1227871D01*
X1225600D02*
X1225251D01*
X1224761D02*
X1224202D01*
X1265751Y980309D02*
X1265087D01*
X1263759D02*
X1263305D01*
X1261243D02*
X1260894D01*
X1258622D02*
X1258378D01*
X1256001D02*
X1251773D01*
X1251284D02*
X1247265D01*
X1245518D02*
X1238669D01*
X1236817D02*
X1233847D01*
X1228011D02*
X1227871D01*
X1225495D02*
X1225146D01*
X1224657D02*
X1224098D01*
X1265646Y980414D02*
X1264982D01*
X1263654D02*
X1263200D01*
X1261138D02*
X1260789D01*
X1258517D02*
X1258273D01*
X1256001D02*
X1251668D01*
X1251284D02*
X1247161D01*
X1245413D02*
X1238564D01*
X1236712D02*
X1233847D01*
X1228011D02*
X1227767D01*
X1225390D02*
X1225041D01*
X1224657D02*
X1224098D01*
X1265646Y980519D02*
X1264982D01*
X1263549D02*
X1263095D01*
X1261033D02*
X1260684D01*
X1258413D02*
X1258273D01*
X1256001D02*
X1251668D01*
X1251284D02*
X1247056D01*
X1245413D02*
X1238564D01*
X1236712D02*
X1233742D01*
X1227906D02*
X1227662D01*
X1225286D02*
X1225041D01*
X1224552D02*
X1223993D01*
X1265541Y980623D02*
X1264877D01*
X1263444D02*
X1263095D01*
X1260929D02*
X1260579D01*
X1258308D02*
X1258273D01*
X1256001D02*
X1251564D01*
X1251284D02*
X1247056D01*
X1245309D02*
X1238460D01*
X1236607D02*
X1233637D01*
X1227802D02*
X1227557D01*
X1225286D02*
X1224936D01*
X1224447D02*
X1223888D01*
X1265541Y980728D02*
X1264877D01*
X1263340D02*
X1262990D01*
X1260824D02*
X1260474D01*
X1256001D02*
X1251564D01*
X1251284D02*
X1246951D01*
X1245204D02*
X1238355D01*
X1236607D02*
X1233637D01*
X1227697D02*
X1227452D01*
X1225181D02*
X1224831D01*
X1224447D02*
X1223888D01*
X1265436Y980833D02*
X1264772D01*
X1263235D02*
X1262885D01*
X1260719D02*
X1260369D01*
X1256001D02*
X1251459D01*
X1251284D02*
X1246951D01*
X1245204D02*
X1238355D01*
X1236503D02*
X1233532D01*
X1227592D02*
X1227347D01*
X1225076D02*
X1224831D01*
X1224342D02*
X1223783D01*
X1265436Y980938D02*
X1264772D01*
X1263130D02*
X1262781D01*
X1260614D02*
X1260265D01*
X1256001D02*
X1251459D01*
X1251284D02*
X1246846D01*
X1245099D02*
X1238250D01*
X1236503D02*
X1233532D01*
X1227487D02*
X1227242D01*
X1224971D02*
X1224727D01*
X1224237D02*
X1223783D01*
X1265436Y981043D02*
X1264668D01*
X1263025D02*
X1262676D01*
X1260509D02*
X1260265D01*
X1256001D02*
X1246846D01*
X1245099D02*
X1238145D01*
X1236398D02*
X1233428D01*
X1227382D02*
X1227138D01*
X1224971D02*
X1224622D01*
X1224237D02*
X1223678D01*
X1265331Y981148D02*
X1264668D01*
X1262920D02*
X1262571D01*
X1260404D02*
X1260160D01*
X1256001D02*
X1246741D01*
X1244994D02*
X1238145D01*
X1236398D02*
X1233428D01*
X1227382D02*
X1227033D01*
X1224866D02*
X1224622D01*
X1224132D02*
X1223678D01*
X1265227Y981252D02*
X1264563D01*
X1262815D02*
X1262466D01*
X1260300D02*
X1260055D01*
X1256001D02*
X1246741D01*
X1244994D02*
X1238040D01*
X1236293D02*
X1233323D01*
X1227277D02*
X1226928D01*
X1224761D02*
X1224517D01*
X1224132D02*
X1223573D01*
X1265122Y981357D02*
X1264458D01*
X1262711D02*
X1262361D01*
X1260195D02*
X1259950D01*
X1256001D02*
X1246741D01*
X1244889D02*
X1238040D01*
X1236188D02*
X1233323D01*
X1227173D02*
X1226928D01*
X1224761D02*
X1224412D01*
X1224028D02*
X1223469D01*
X1265122Y981462D02*
X1259845D01*
X1241849D02*
X1237935D01*
X1236083D02*
X1233323D01*
X1227068D02*
X1226823D01*
X1224657D02*
X1224412D01*
X1224028D02*
X1223364D01*
X1265122Y981567D02*
X1257853D01*
X1241010D02*
X1237935D01*
X1228011D02*
X1224307D01*
X1223923D02*
X1223364D01*
X1265017Y981672D02*
X1257853D01*
X1240801D02*
X1237831D01*
X1229060D02*
X1224307D01*
X1223923D02*
X1223364D01*
X1264912Y981777D02*
X1263514D01*
X1262396D02*
X1262047D01*
X1259880D02*
X1259636D01*
X1240696D02*
X1237831D01*
X1228955D02*
X1224202D01*
X1223818D02*
X1223259D01*
X1264807Y981881D02*
X1264143D01*
X1262291D02*
X1261942D01*
X1259775D02*
X1259531D01*
X1240486D02*
X1237831D01*
X1226648D02*
X1226404D01*
X1224342D02*
X1224098D01*
X1223818D02*
X1223259D01*
X1264807Y981986D02*
X1264143D01*
X1262186D02*
X1261837D01*
X1259671D02*
X1259426D01*
X1240486D02*
X1237726D01*
X1226648D02*
X1226299D01*
X1224342D02*
X1224098D01*
X1223713D02*
X1223154D01*
X1264702Y982091D02*
X1264039D01*
X1262082D02*
X1261732D01*
X1259566D02*
X1259321D01*
X1240381D02*
X1237726D01*
X1226544D02*
X1226194D01*
X1224237D02*
X1223993D01*
X1223713D02*
X1223154D01*
X1264702Y982196D02*
X1263934D01*
X1261977D02*
X1261627D01*
X1259461D02*
X1259216D01*
X1240381D02*
X1237726D01*
X1228745D02*
X1228605D01*
X1226439D02*
X1226089D01*
X1224237D02*
X1223993D01*
X1223608D02*
X1223154D01*
X1264702Y982301D02*
X1263829D01*
X1261872D02*
X1261627D01*
X1259356D02*
X1259111D01*
X1240381D02*
X1237726D01*
X1228745D02*
X1228500D01*
X1226334D02*
X1225985D01*
X1224132D02*
X1223888D01*
X1223608D02*
X1223154D01*
X1264598Y982406D02*
X1263829D01*
X1261767D02*
X1261523D01*
X1259251D02*
X1259007D01*
X1240277D02*
X1237621D01*
X1228640D02*
X1228396D01*
X1226229D02*
X1225880D01*
X1224132D02*
X1223888D01*
X1223503D02*
X1223049D01*
X1264493Y982510D02*
X1263724D01*
X1261767D02*
X1261418D01*
X1259251D02*
X1258902D01*
X1240277D02*
X1237621D01*
X1228535D02*
X1228291D01*
X1226124D02*
X1225880D01*
X1224028D02*
X1223783D01*
X1223503D02*
X1223049D01*
X1264388Y982615D02*
X1263619D01*
X1261662D02*
X1261313D01*
X1259146D02*
X1258902D01*
X1240277D02*
X1237621D01*
X1228431D02*
X1228186D01*
X1226019D02*
X1225775D01*
X1224028D02*
X1223783D01*
X1223503D02*
X1222944D01*
X1264283Y982720D02*
X1263514D01*
X1261558D02*
X1261208D01*
X1259042D02*
X1258797D01*
X1240381D02*
X1237621D01*
X1228431D02*
X1228186D01*
X1225915D02*
X1225670D01*
X1223923D02*
X1223783D01*
X1223399D02*
X1222944D01*
X1264178Y982825D02*
X1263514D01*
X1261453D02*
X1261103D01*
X1258937D02*
X1258692D01*
X1240381D02*
X1237621D01*
X1228326D02*
X1228081D01*
X1225915D02*
X1225565D01*
X1223923D02*
X1223678D01*
X1223399D02*
X1222944D01*
X1264178Y982930D02*
X1263410D01*
X1261348D02*
X1260998D01*
X1258832D02*
X1258587D01*
X1240486D02*
X1237621D01*
X1228221D02*
X1227976D01*
X1225810D02*
X1225460D01*
X1223923D02*
X1223678D01*
X1223399D02*
X1222944D01*
X1264073Y983035D02*
X1263305D01*
X1261243D02*
X1260894D01*
X1258727D02*
X1258482D01*
X1256001D02*
X1253450D01*
X1240696D02*
X1237621D01*
X1228116D02*
X1227871D01*
X1225705D02*
X1225356D01*
X1223818D02*
X1223573D01*
X1223399D02*
X1222840D01*
X1263969Y983139D02*
X1263200D01*
X1261138D02*
X1260894D01*
X1258622D02*
X1258482D01*
X1256001D02*
X1253450D01*
X1252437D02*
X1248733D01*
X1247825D02*
X1245693D01*
X1243946D02*
X1237621D01*
X1235245D02*
X1232379D01*
X1228011D02*
X1227767D01*
X1225600D02*
X1225251D01*
X1223818D02*
X1223573D01*
X1223294D02*
X1222840D01*
X1263864Y983244D02*
X1263095D01*
X1261033D02*
X1260789D01*
X1258517D02*
X1258482D01*
X1256001D02*
X1253450D01*
X1252437D02*
X1248733D01*
X1247825D02*
X1245588D01*
X1243841D02*
X1237621D01*
X1235245D02*
X1232274D01*
X1227906D02*
X1227662D01*
X1225495D02*
X1225146D01*
X1223713D02*
X1223573D01*
X1223294D02*
X1222840D01*
X1263864Y983349D02*
X1262990D01*
X1260929D02*
X1260684D01*
X1256001D02*
X1253450D01*
X1252332D02*
X1248733D01*
X1247825D02*
X1245588D01*
X1243841D02*
X1237621D01*
X1235245D02*
X1232274D01*
X1227802D02*
X1227557D01*
X1225390D02*
X1225041D01*
X1223713D02*
X1223469D01*
X1223294D02*
X1222735D01*
X1263759Y983454D02*
X1262885D01*
X1260824D02*
X1260579D01*
X1256001D02*
X1253450D01*
X1252332D02*
X1248733D01*
X1247720D02*
X1245483D01*
X1243736D02*
X1237621D01*
X1235140D02*
X1232170D01*
X1227697D02*
X1227452D01*
X1225286D02*
X1224936D01*
X1223608D02*
X1223469D01*
X1223189D02*
X1222735D01*
X1263759Y983559D02*
X1259321D01*
X1256001D02*
X1253450D01*
X1252227D02*
X1248733D01*
X1247720D02*
X1245483D01*
X1243736D02*
X1237621D01*
X1235035D02*
X1232065D01*
X1227697D02*
X1227347D01*
X1226544D02*
X1223469D01*
X1223189D02*
X1222735D01*
X1263654Y983664D02*
X1259216D01*
X1256001D02*
X1253450D01*
X1252123D02*
X1248733D01*
X1247615D02*
X1245378D01*
X1243631D02*
X1237726D01*
X1235035D02*
X1232065D01*
X1230003D02*
X1223364D01*
X1223189D02*
X1222735D01*
X1263444Y983768D02*
X1262571D01*
X1260614D02*
X1260369D01*
X1256001D02*
X1253450D01*
X1252123D02*
X1248733D01*
X1247510D02*
X1245378D01*
X1243631D02*
X1237726D01*
X1234930D02*
X1234476D01*
X1232624D02*
X1231960D01*
X1230003D02*
X1223364D01*
X1223189D02*
X1222630D01*
X1263340Y983873D02*
X1262571D01*
X1260509D02*
X1260265D01*
X1256001D02*
X1253450D01*
X1252018D02*
X1248733D01*
X1247510D02*
X1245274D01*
X1243526D02*
X1237726D01*
X1234930D02*
X1234371D01*
X1232519D02*
X1231960D01*
X1227382D02*
X1227138D01*
X1224971D02*
X1224622D01*
X1223503D02*
X1223364D01*
X1223189D02*
X1222630D01*
X1263235Y983978D02*
X1262466D01*
X1260404D02*
X1260160D01*
X1256001D02*
X1253450D01*
X1252018D02*
X1248733D01*
X1247405D02*
X1245274D01*
X1243526D02*
X1237726D01*
X1234825D02*
X1234371D01*
X1232414D02*
X1231855D01*
X1227277D02*
X1227033D01*
X1224866D02*
X1224517D01*
X1223503D02*
X1223364D01*
X1223189D02*
X1222630D01*
X1263130Y984083D02*
X1262361D01*
X1260300D02*
X1260055D01*
X1256001D02*
X1253450D01*
X1251913D02*
X1248733D01*
X1247405D02*
X1245169D01*
X1243422D02*
X1237831D01*
X1234825D02*
X1234266D01*
X1232414D02*
X1231855D01*
X1229479D02*
X1229444D01*
X1227173D02*
X1226928D01*
X1224761D02*
X1224412D01*
X1223503D02*
X1223364D01*
X1223189D02*
X1222630D01*
X1263025Y984188D02*
X1262152D01*
X1260195D02*
X1259950D01*
X1256001D02*
X1253450D01*
X1251913D02*
X1248733D01*
X1247300D02*
X1245169D01*
X1243317D02*
X1237831D01*
X1234721D02*
X1234161D01*
X1232309D02*
X1231750D01*
X1229479D02*
X1229339D01*
X1227068D02*
X1226823D01*
X1224657D02*
X1224307D01*
X1223503D02*
X1223364D01*
X1223189D02*
X1222630D01*
X1263025Y984293D02*
X1262152D01*
X1260090D02*
X1259740D01*
X1256001D02*
X1253450D01*
X1251808D02*
X1248733D01*
X1247300D02*
X1245064D01*
X1243317D02*
X1237935D01*
X1234721D02*
X1234161D01*
X1232309D02*
X1231750D01*
X1229374D02*
X1229234D01*
X1226963D02*
X1226718D01*
X1224552D02*
X1224202D01*
X1223399D02*
X1222630D01*
X1262920Y984397D02*
X1261942D01*
X1259985D02*
X1259740D01*
X1256001D02*
X1253450D01*
X1251808D02*
X1248733D01*
X1247196D02*
X1244959D01*
X1243212D02*
X1237935D01*
X1234616D02*
X1234057D01*
X1232205D02*
X1231645D01*
X1229374D02*
X1229129D01*
X1226963D02*
X1226614D01*
X1224552D02*
X1224098D01*
X1223399D02*
X1222630D01*
X1262815Y984502D02*
X1261837D01*
X1259880D02*
X1259636D01*
X1256001D02*
X1253450D01*
X1251703D02*
X1248733D01*
X1247196D02*
X1244959D01*
X1243212D02*
X1238040D01*
X1234616D02*
X1234057D01*
X1232205D02*
X1231541D01*
X1229269D02*
X1229025D01*
X1226858D02*
X1226509D01*
X1224447D02*
X1223993D01*
X1223399D02*
X1222630D01*
X1262711Y984607D02*
X1261732D01*
X1259775D02*
X1259531D01*
X1256001D02*
X1253450D01*
X1251703D02*
X1248733D01*
X1247091D02*
X1244854D01*
X1243107D02*
X1238040D01*
X1234511D02*
X1233952D01*
X1232100D02*
X1231541D01*
X1229164D02*
X1228920D01*
X1226753D02*
X1226404D01*
X1224342D02*
X1223888D01*
X1223399D02*
X1222630D01*
X1262501Y984712D02*
X1261627D01*
X1259775D02*
X1259426D01*
X1256001D02*
X1253450D01*
X1251598D02*
X1248733D01*
X1247091D02*
X1244854D01*
X1243107D02*
X1238145D01*
X1234511D02*
X1233952D01*
X1231995D02*
X1231436D01*
X1229060D02*
X1228815D01*
X1226648D02*
X1226299D01*
X1224237D02*
X1223888D01*
X1223399D02*
X1222630D01*
X1262396Y984817D02*
X1261523D01*
X1259671D02*
X1259426D01*
X1256001D02*
X1253450D01*
X1251598D02*
X1248733D01*
X1246986D02*
X1244749D01*
X1243002D02*
X1238250D01*
X1234406D02*
X1233847D01*
X1231995D02*
X1231436D01*
X1228955D02*
X1228710D01*
X1226544D02*
X1226194D01*
X1224132D02*
X1223783D01*
X1223399D02*
X1222630D01*
X1262396Y984922D02*
X1261418D01*
X1259566D02*
X1259321D01*
X1256001D02*
X1253450D01*
X1251494D02*
X1248733D01*
X1246986D02*
X1244749D01*
X1243002D02*
X1238250D01*
X1234301D02*
X1233847D01*
X1231890D02*
X1231331D01*
X1228850D02*
X1228605D01*
X1226439D02*
X1226194D01*
X1224028D02*
X1223678D01*
X1223399D02*
X1222630D01*
X1262291Y985026D02*
X1261313D01*
X1259461D02*
X1259321D01*
X1256001D02*
X1253450D01*
X1251389D02*
X1248733D01*
X1246881D02*
X1244645D01*
X1242897D02*
X1238355D01*
X1234301D02*
X1233742D01*
X1231890D02*
X1231331D01*
X1228850D02*
X1228500D01*
X1226334D02*
X1226089D01*
X1223923D02*
X1223573D01*
X1223399D02*
X1222630D01*
X1262186Y985131D02*
X1261103D01*
X1256001D02*
X1253450D01*
X1251389D02*
X1248733D01*
X1246776D02*
X1244645D01*
X1242897D02*
X1238460D01*
X1234196D02*
X1233742D01*
X1231785D02*
X1231226D01*
X1228745D02*
X1228396D01*
X1226334D02*
X1225985D01*
X1223818D02*
X1223573D01*
X1223399D02*
X1222630D01*
X1262082Y985236D02*
X1260998D01*
X1256001D02*
X1253450D01*
X1251284D02*
X1248733D01*
X1246776D02*
X1244540D01*
X1242793D02*
X1238564D01*
X1234196D02*
X1233637D01*
X1231785D02*
X1231121D01*
X1228640D02*
X1228396D01*
X1226229D02*
X1225880D01*
X1223818D02*
X1222630D01*
X1261872Y985341D02*
X1260894D01*
X1256001D02*
X1253450D01*
X1251284D02*
X1248733D01*
X1246671D02*
X1244540D01*
X1242793D02*
X1238774D01*
X1234092D02*
X1233532D01*
X1231680D02*
X1231121D01*
X1228535D02*
X1228291D01*
X1226124D02*
X1225775D01*
X1223713D02*
X1222630D01*
X1261767Y985446D02*
X1257644D01*
X1256001D02*
X1253450D01*
X1251179D02*
X1248733D01*
X1246671D02*
X1244435D01*
X1242688D02*
X1238879D01*
X1234092D02*
X1231016D01*
X1228431D02*
X1228186D01*
X1226019D02*
X1225670D01*
X1223608D02*
X1222630D01*
X1261767Y985551D02*
X1257644D01*
X1256001D02*
X1253450D01*
X1251179D02*
X1248733D01*
X1246567D02*
X1244330D01*
X1242583D02*
X1239089D01*
X1233987D02*
X1231016D01*
X1228326D02*
X1228081D01*
X1225915D02*
X1222630D01*
X1261662Y985655D02*
X1257644D01*
X1256001D02*
X1253450D01*
X1251074D02*
X1248733D01*
X1246567D02*
X1244330D01*
X1242583D02*
X1239298D01*
X1233987D02*
X1230912D01*
X1230003D02*
X1222630D01*
X1261453Y985760D02*
X1260369D01*
X1250969D02*
X1248733D01*
X1246462D02*
X1244330D01*
X1242478D02*
X1239718D01*
X1233882D02*
X1230912D01*
X1230003D02*
X1222630D01*
X1261348Y985865D02*
X1260160D01*
X1233777D02*
X1230912D01*
X1228116D02*
X1227767D01*
X1225705D02*
X1222630D01*
X1261243Y985970D02*
X1260055D01*
X1228011D02*
X1227662D01*
X1225600D02*
X1225146D01*
X1223399D02*
X1222630D01*
X1261033Y986075D02*
X1259950D01*
X1227906D02*
X1227557D01*
X1225495D02*
X1225041D01*
X1223399D02*
X1222735D01*
X1260929Y986180D02*
X1259740D01*
X1227802D02*
X1227452D01*
X1225390D02*
X1225041D01*
X1223399D02*
X1222735D01*
X1260824Y986284D02*
X1259636D01*
X1230003D02*
X1229863D01*
X1227697D02*
X1227452D01*
X1225286D02*
X1224936D01*
X1223399D02*
X1222735D01*
X1260719Y986389D02*
X1259426D01*
X1230003D02*
X1229863D01*
X1227592D02*
X1227347D01*
X1225181D02*
X1224831D01*
X1223503D02*
X1222735D01*
X1260509Y986494D02*
X1259321D01*
X1229898D02*
X1229758D01*
X1227487D02*
X1227242D01*
X1225076D02*
X1224727D01*
X1223503D02*
X1222840D01*
X1260300Y986599D02*
X1259111D01*
X1229898D02*
X1229654D01*
X1227487D02*
X1227138D01*
X1224971D02*
X1224622D01*
X1223503D02*
X1222840D01*
X1260195Y986704D02*
X1258902D01*
X1229793D02*
X1229549D01*
X1227382D02*
X1227033D01*
X1224866D02*
X1224517D01*
X1223503D02*
X1222840D01*
X1260090Y986809D02*
X1258797D01*
X1229689D02*
X1229444D01*
X1227277D02*
X1226928D01*
X1224866D02*
X1224412D01*
X1223608D02*
X1222944D01*
X1259985Y986913D02*
X1258587D01*
X1229584D02*
X1229339D01*
X1227173D02*
X1226823D01*
X1224761D02*
X1224307D01*
X1223608D02*
X1222944D01*
X1259880Y987018D02*
X1258378D01*
X1229479D02*
X1229234D01*
X1227068D02*
X1226718D01*
X1224657D02*
X1224202D01*
X1223713D02*
X1222944D01*
X1259671Y987123D02*
X1258273D01*
X1229374D02*
X1229129D01*
X1226963D02*
X1226614D01*
X1224552D02*
X1224098D01*
X1223713D02*
X1222944D01*
X1259461Y987228D02*
X1258063D01*
X1229374D02*
X1229025D01*
X1226858D02*
X1226509D01*
X1224447D02*
X1224098D01*
X1223818D02*
X1223049D01*
X1259251Y987333D02*
X1257853D01*
X1229269D02*
X1228920D01*
X1226753D02*
X1226404D01*
X1224342D02*
X1223993D01*
X1223818D02*
X1223049D01*
X1259146Y987438D02*
X1257644D01*
X1229164D02*
X1228920D01*
X1226753D02*
X1226404D01*
X1224237D02*
X1223049D01*
X1259042Y987542D02*
X1257434D01*
X1229060D02*
X1228815D01*
X1226648D02*
X1226299D01*
X1225076D02*
X1223154D01*
X1258937Y987647D02*
X1257224D01*
X1230632D02*
X1223154D01*
X1258727Y987752D02*
X1257015D01*
X1231261D02*
X1231226D01*
X1230632D02*
X1223154D01*
X1258517Y987857D02*
X1256805D01*
X1231261D02*
X1231121D01*
X1228850D02*
X1223259D01*
X1258203Y987962D02*
X1256595D01*
X1246042D02*
X1245798D01*
X1235245D02*
X1234895D01*
X1231261D02*
X1231016D01*
X1228640D02*
X1228396D01*
X1226229D02*
X1225880D01*
X1224342D02*
X1223259D01*
X1257993Y988066D02*
X1256386D01*
X1246147D02*
X1245588D01*
X1235350D02*
X1234686D01*
X1231156D02*
X1230912D01*
X1228640D02*
X1228291D01*
X1226124D02*
X1225775D01*
X1224447D02*
X1223364D01*
X1257888Y988171D02*
X1256071D01*
X1246252D02*
X1245274D01*
X1235454D02*
X1234371D01*
X1231051D02*
X1230807D01*
X1228535D02*
X1228186D01*
X1226019D02*
X1225670D01*
X1224552D02*
X1223364D01*
X1257784Y988276D02*
X1255862D01*
X1246357D02*
X1245064D01*
X1235559D02*
X1234161D01*
X1230947D02*
X1230702D01*
X1228431D02*
X1228081D01*
X1226019D02*
X1225565D01*
X1224657D02*
X1223364D01*
X1257574Y988381D02*
X1255547D01*
X1246462D02*
X1244749D01*
X1235664D02*
X1233847D01*
X1230842D02*
X1230597D01*
X1228326D02*
X1227976D01*
X1225915D02*
X1225460D01*
X1224761D02*
X1223364D01*
X1257364Y988486D02*
X1255337D01*
X1246671D02*
X1244540D01*
X1235874D02*
X1233637D01*
X1230737D02*
X1230492D01*
X1228221D02*
X1227871D01*
X1225810D02*
X1225460D01*
X1224971D02*
X1223573D01*
X1257050Y988591D02*
X1255023D01*
X1246776D02*
X1244225D01*
X1235978D02*
X1233323D01*
X1230737D02*
X1230387D01*
X1228116D02*
X1227871D01*
X1225705D02*
X1225356D01*
X1225076D02*
X1223783D01*
X1256840Y988695D02*
X1254708D01*
X1246986D02*
X1246217D01*
X1245833D02*
X1243911D01*
X1236188D02*
X1235105D01*
X1234721D02*
X1233008D01*
X1230632D02*
X1230387D01*
X1228011D02*
X1227767D01*
X1225600D02*
X1223888D01*
X1256526Y988800D02*
X1254394D01*
X1247196D02*
X1246322D01*
X1245518D02*
X1243596D01*
X1236398D02*
X1235210D01*
X1234406D02*
X1232694D01*
X1230527D02*
X1230283D01*
X1227906D02*
X1227662D01*
X1225495D02*
X1223993D01*
X1256526Y988905D02*
X1253975D01*
X1247405D02*
X1246322D01*
X1245518D02*
X1243177D01*
X1236607D02*
X1235210D01*
X1234406D02*
X1232274D01*
X1230422D02*
X1230178D01*
X1227906D02*
X1227557D01*
X1225705D02*
X1223993D01*
X1256211Y989010D02*
X1253555D01*
X1247720D02*
X1246427D01*
X1245204D02*
X1242862D01*
X1236922D02*
X1235419D01*
X1234092D02*
X1231855D01*
X1230318D02*
X1230073D01*
X1227802D02*
X1227452D01*
X1226019D02*
X1224098D01*
X1255897Y989115D02*
X1253136D01*
X1248034D02*
X1246636D01*
X1244889D02*
X1242338D01*
X1237236D02*
X1235524D01*
X1233777D02*
X1231436D01*
X1230213D02*
X1229968D01*
X1227697D02*
X1227347D01*
X1226334D02*
X1224307D01*
X1255582Y989220D02*
X1252612D01*
X1248454D02*
X1246846D01*
X1244575D02*
X1241814D01*
X1237551D02*
X1235734D01*
X1233463D02*
X1230912D01*
X1230108D02*
X1229863D01*
X1227592D02*
X1227242D01*
X1226753D02*
X1224412D01*
X1255268Y989324D02*
X1251983D01*
X1248978D02*
X1247056D01*
X1244260D02*
X1241185D01*
X1238075D02*
X1235944D01*
X1233148D02*
X1230283D01*
X1230003D02*
X1229758D01*
X1227487D02*
X1224622D01*
X1254953Y989429D02*
X1247161D01*
X1243946D02*
X1239927D01*
X1239228D02*
X1236153D01*
X1232834D02*
X1224831D01*
X1254639Y989534D02*
X1247370D01*
X1243631D02*
X1236258D01*
X1232624D02*
X1225041D01*
X1254534Y989639D02*
X1247370D01*
X1243526D02*
X1236363D01*
X1232519D02*
X1225041D01*
X1254114Y989744D02*
X1247685D01*
X1243107D02*
X1236573D01*
X1232100D02*
X1225356D01*
X1253590Y989849D02*
X1247999D01*
X1242583D02*
X1236887D01*
X1231576D02*
X1225670D01*
X1253171Y989953D02*
X1248314D01*
X1242164D02*
X1237202D01*
X1231261D02*
X1225985D01*
X1252437Y990058D02*
X1248943D01*
X1241535D02*
X1237831D01*
X1230527D02*
X1226404D01*
X1251913Y990163D02*
X1249257D01*
X1240906D02*
X1238145D01*
X1230213D02*
X1226718D01*
X0Y0D02*
M02*
