%
T1C.008F0S0
X106096Y09294
X105096Y09294
X107096Y09294
X106016Y09422
X105016Y09422
X107016Y09422
X105016Y09522
X106016Y09522
X107016Y09522
X107016Y09622
X106016Y09622
X105016Y09622
X107016Y09722
X106016Y09722
X105016Y09722
X105Y0979
X10538Y09922
X10647Y09928
X106916Y1005
X105916Y1005
X104916Y1005
X1078Y1005
X109016Y10022
X10881Y09844
X10925Y0979
X108016Y09722
X10955Y09649
X108016Y09622
X1095Y09595
X108016Y09522
X108016Y09422
X108096Y09294
X10927Y09191
X112016Y08822
X111016Y08822
X111016Y08922
X111016Y09022
X111016Y09122
X111016Y09222
X11205Y09295
X11206Y09441
X11205Y09511
X11205Y0958
X11068Y09822
X1123Y0985
X11067Y09851
X1124Y09945
X11226Y10041
X11119Y10072
X11147Y10111
X111016Y10222
X111016Y10322
X114016Y10322
X113016Y10322
X11462Y10106
X11361Y09951
X11282Y0985
X1148Y09715
X11369Y09699
X1133Y09699
X11328Y09623
X1137Y0962
X11355Y09495
X11327Y09421
X11385Y09396
X11305Y0927
X11353Y09234
X114016Y09122
X114016Y08922
X113016Y08822
X115016Y08822
X117Y08925
X11655Y09253
X11575Y09304
X11551Y0931
X11714Y0932
X11715Y09455
X11576Y09473
X11553Y09842
X11535Y09863
X11555Y1005
X11566Y10083
X11522Y10105
X11634Y10108
X11602Y1016
X11707Y1019
X11844Y10229
X11815Y10195
X11791Y10141
X11752Y10133
X11809Y10065
X11921Y10057
X11932Y09918
X11979Y09813
X11952Y09806
X11952Y09775
X11877Y09764
X11952Y09749
X11952Y09723
X11984Y09597
X11853Y0945
X11833Y09422
X11969Y09304
X11787Y09286
X11842Y09285
X11815Y09285
X11867Y09255
X11929Y09253
X11743Y09176
X1181Y09065
X11952Y09048
X11855Y0897
X1183Y08845
X12027Y08948
X1213Y08948
X12058Y09031
X11997Y09033
X12214Y09121
X12138Y09176
X12214Y09202
X1209Y09263
X1214Y0944
X12104Y09478
X12149Y09522
X12152Y09551
X11992Y09557
X122016Y09822
X12106Y09832
X12105Y09885
X12184Y09976
X1222Y10011
X12Y10055
X1211Y10133
X1201Y10155
X12298Y10133
X12246Y0998
X12397Y09978
X12334Y09836
X1245Y09775
X12368Y09668
X12337Y09668
X12396Y09667
X12256Y09654
X12395Y09623
X12367Y09623
X12338Y09622
X12257Y09616
X12445Y0945
X12296Y09367
X12356Y0933
X1226Y0933
X12301Y09267
X12257Y09241
X12445Y09235
X12297Y09154
X12455Y09105
X12455Y09015
X12305Y09015
X12475Y0895
X12345Y0895
X124016Y08822
X126016Y08822
X125016Y08822
X127016Y08822
X127016Y09022
X126016Y09022
X127016Y09122
X12505Y09175
X12715Y0926
X12545Y09379
X12675Y09413
X12545Y09424
X1254Y09535
X1254Y0959
X1254Y09665
X12717Y09679
X1251Y09715
X126016Y09922
X125016Y09922
X126016Y10005
X125016Y10005
X127016Y10005
X12666Y10145
X12555Y10146
X12509Y10205
X12608Y10207
X129016Y10322
X128016Y10322
X129016Y10222
X128016Y10222
X12865Y10155
X12776Y10151
X12865Y10065
X12745Y1001
X12762Y09983
X12745Y09821
X12745Y0978
X1275Y097
X12746Y09594
X12747Y09513
X12743Y09412
X12785Y0933
X12845Y0926
X12801Y09169
X129016Y09122
X129016Y09022
X128016Y08822
X129016Y08822
X131016Y08822
X132016Y08822
X130016Y08822
X132016Y08922
X131016Y08922
X131016Y09022
X132016Y09022
X130016Y09122
X13028Y09261
X132016Y09322
X131016Y09322
X13015Y10008
X132016Y10122
X131016Y10122
X13015Y10193
X130016Y10222
X132016Y10222
X131016Y10322
X130016Y10322
X132016Y10322
X134016Y10322
X134016Y10122
X1339Y09375
X134016Y09022
X134016Y08822
X133016Y08822
T2C.012F095S3
X1202Y0915
X10944Y09897
X1265Y0965
T3C.018F095S3
X11315Y0994
X11131Y09976
X11395Y10055
X11505Y10055
X115Y09535
X116Y09498
X11918Y09498
X1223Y0898
X12618Y09555
X12815Y10105
T4C.02756F197S55
X131928Y091424
X131928Y091924
X132428Y091924
X132928Y091924
X133428Y091924
X133928Y091924
X133428Y091424
X132928Y091424
X133928Y091424
X132428Y091424
T5C.035F197S55
X10728Y09136
X10628Y09136
X10528Y09136
X10828Y09136
X10628Y09985
X10528Y09985
X10828Y09985
X10728Y09985
X114528Y102955
X115528Y102955
X116528Y102955
X115528Y101955
X114528Y101955
X116528Y101955
X115786Y088787
X116786Y088787
X119786Y088787
X118786Y088787
X117786Y088787
X121786Y088787
X120786Y088787
X121962Y102961
X120962Y102961
X119962Y102961
X117962Y102961
X118962Y102961
X122962Y102961
X123962Y102961
X126962Y102961
X125962Y102961
X124962Y102961
X126786Y088787
X125786Y088787
X124786Y088787
X123786Y088787
X122786Y088787
X129786Y088787
X127786Y088787
X128786Y088787
T6C.03543F197S55
X12955Y095448
X12855Y095948
X12955Y096448
X12855Y096948
X12955Y097448
X12855Y097948
X12955Y098448
X12855Y098948
X133979Y099808
X133979Y098808
X133979Y095592
X133979Y094592
T7C.04724F139S55
X11Y093067
X11Y093854
X11Y094641
X11Y095429
X11Y096216
X11Y097004
X11Y097791
X11Y098578
X11Y099366
T8C.06693F089S55
X130849Y094151
X130849Y100249
T9C.13386F035S794
X13205Y09495
X13205Y09945
T10C.17717F035S1033
X112435Y089457
X112435Y102291
X133143Y102291
X133143Y089457
M30
